<?xml version="1.0" encoding="UTF-8"?>
<svg width="700pt" height="700pt" version="1.1" viewBox="0 0 700 700" xmlns="http://www.w3.org/2000/svg" xmlns:xlink="http://www.w3.org/1999/xlink">
 <defs>
  <symbol id="w" overflow="visible">
   <path d="m6.6094-0.39062c-0.33594 0.17969-0.6875 0.30859-1.0625 0.39062-0.36719 0.09375-0.75 0.14062-1.1562 0.14062-1.1992 0-2.1523-0.33203-2.8594-1-0.69922-0.67578-1.0469-1.5859-1.0469-2.7344 0-1.1445 0.34766-2.0508 1.0469-2.7188 0.70703-0.67578 1.6602-1.0156 2.8594-1.0156 0.40625 0 0.78906 0.046875 1.1562 0.14062 0.375 0.085938 0.72656 0.21484 1.0625 0.39062v1.5c-0.34375-0.23828-0.68359-0.41016-1.0156-0.51562-0.33594-0.11328-0.68359-0.17188-1.0469-0.17188-0.66797 0-1.1953 0.21484-1.5781 0.64062-0.375 0.42969-0.5625 1.0117-0.5625 1.75 0 0.74219 0.1875 1.3242 0.5625 1.75 0.38281 0.42969 0.91016 0.64062 1.5781 0.64062 0.36328 0 0.71094-0.050781 1.0469-0.15625 0.33203-0.11328 0.67188-0.28906 1.0156-0.53125z"/>
  </symbol>
  <symbol id="e" overflow="visible">
   <path d="m4.8438-3.9375c-0.15625-0.0625-0.30859-0.10938-0.45312-0.14062-0.14844-0.039063-0.29688-0.0625-0.45312-0.0625-0.4375 0-0.77734 0.14844-1.0156 0.4375-0.24219 0.28125-0.35938 0.6875-0.35938 1.2188v2.4844h-1.7344v-5.4062h1.7344v0.89062c0.21875-0.35156 0.46875-0.60938 0.75-0.76562 0.28906-0.16406 0.64062-0.25 1.0469-0.25 0.050781 0 0.10938 0.007812 0.17188 0.015625 0.070312 0 0.17578 0.011719 0.3125 0.03125z"/>
  </symbol>
  <symbol id="b" overflow="visible">
   <path d="m6.2188-2.7188v0.5h-4.0312c0.039062 0.40625 0.1875 0.71484 0.4375 0.92188 0.25 0.19922 0.59766 0.29688 1.0469 0.29688 0.36328 0 0.73438-0.050781 1.1094-0.15625 0.38281-0.11328 0.78125-0.28125 1.1875-0.5v1.3281c-0.40625 0.15625-0.82031 0.27344-1.2344 0.34375-0.40625 0.082031-0.8125 0.125-1.2188 0.125-0.98047 0-1.7422-0.24219-2.2812-0.73438-0.54297-0.5-0.8125-1.2031-0.8125-2.1094 0-0.875 0.26562-1.5625 0.79688-2.0625 0.53125-0.50781 1.2656-0.76562 2.2031-0.76562 0.84375 0 1.5195 0.25781 2.0312 0.76562 0.50781 0.51172 0.76562 1.1953 0.76562 2.0469zm-1.7656-0.5625c0-0.33203-0.10156-0.59766-0.29688-0.79688-0.1875-0.20703-0.4375-0.3125-0.75-0.3125-0.33594 0-0.60547 0.10156-0.8125 0.29688-0.21094 0.1875-0.33984 0.46094-0.39062 0.8125z"/>
  </symbol>
  <symbol id="d" overflow="visible">
   <path d="m3.25-2.4375c-0.36719 0-0.63672 0.0625-0.8125 0.1875-0.17969 0.125-0.26562 0.30859-0.26562 0.54688 0 0.21875 0.070313 0.39062 0.21875 0.51562 0.14453 0.125 0.34766 0.1875 0.60938 0.1875 0.32031 0 0.59375-0.11328 0.8125-0.34375 0.21875-0.23828 0.32812-0.53516 0.32812-0.89062v-0.20312zm2.6406-0.64062v3.0781h-1.75v-0.79688c-0.23047 0.32422-0.49219 0.5625-0.78125 0.71875-0.28125 0.14453-0.63281 0.21875-1.0469 0.21875-0.5625 0-1.0234-0.16016-1.375-0.48438-0.34375-0.33203-0.51562-0.75781-0.51562-1.2812 0-0.625 0.21875-1.082 0.65625-1.375 0.4375-0.30078 1.1172-0.45312 2.0469-0.45312h1.0156v-0.14062c0-0.26953-0.10938-0.46875-0.32812-0.59375-0.21094-0.13281-0.54297-0.20312-1-0.20312-0.36719 0-0.71094 0.042969-1.0312 0.125-0.3125 0.074219-0.60938 0.18359-0.89062 0.32812v-1.3125c0.375-0.09375 0.74219-0.16016 1.1094-0.20312 0.375-0.050781 0.75-0.078125 1.125-0.078125 0.97656 0 1.6797 0.19531 2.1094 0.57812 0.4375 0.38672 0.65625 1.0117 0.65625 1.875z"/>
  </symbol>
  <symbol id="a" overflow="visible">
   <path d="m2.7188-6.9375v1.5312h1.7812v1.2344h-1.7812v2.2969c0 0.25 0.046875 0.42188 0.14062 0.51562 0.10156 0.085937 0.30078 0.125 0.59375 0.125h0.89062v1.2344h-1.4844c-0.67969 0-1.1641-0.14062-1.4531-0.42188-0.28125-0.28906-0.42188-0.77344-0.42188-1.4531v-2.2969h-0.85938v-1.2344h0.85938v-1.5312z"/>
  </symbol>
  <symbol id="l" overflow="visible">
   <path d="m4.5-4.6094v-2.8906h1.7344v7.5h-1.7344v-0.78125c-0.24219 0.32422-0.50781 0.55859-0.79688 0.70312-0.28125 0.14453-0.60938 0.21875-0.98438 0.21875-0.66797 0-1.2148-0.26562-1.6406-0.79688-0.42969-0.53125-0.64062-1.2109-0.64062-2.0469 0-0.82031 0.21094-1.5 0.64062-2.0312 0.42578-0.53125 0.97266-0.79688 1.6406-0.79688 0.375 0 0.70312 0.078125 0.98438 0.23438 0.28906 0.14844 0.55469 0.375 0.79688 0.6875zm-1.1406 3.5c0.375 0 0.65625-0.13281 0.84375-0.40625 0.19531-0.26953 0.29688-0.66406 0.29688-1.1875 0-0.50781-0.10156-0.89844-0.29688-1.1719-0.1875-0.26953-0.46875-0.40625-0.84375-0.40625-0.36719 0-0.64844 0.13672-0.84375 0.40625-0.1875 0.27344-0.28125 0.66406-0.28125 1.1719 0 0.52344 0.09375 0.91797 0.28125 1.1875 0.19531 0.27344 0.47656 0.40625 0.84375 0.40625z"/>
  </symbol>
  <symbol id="k" overflow="visible">
   <path d="m3.7031-1.1094c0.36328 0 0.64453-0.13281 0.84375-0.40625 0.19531-0.26953 0.29688-0.66406 0.29688-1.1875 0-0.50781-0.10156-0.89844-0.29688-1.1719-0.19922-0.26953-0.48047-0.40625-0.84375-0.40625-0.36719 0-0.64844 0.13672-0.84375 0.40625-0.19922 0.27344-0.29688 0.66406-0.29688 1.1719 0 0.52344 0.097656 0.91797 0.29688 1.1875 0.19531 0.27344 0.47656 0.40625 0.84375 0.40625zm-1.1406-3.5c0.22656-0.3125 0.48828-0.53906 0.78125-0.6875 0.28906-0.15625 0.625-0.23438 1-0.23438 0.66406 0 1.2109 0.26562 1.6406 0.79688 0.42578 0.53125 0.64062 1.2109 0.64062 2.0312 0 0.83594-0.21484 1.5156-0.64062 2.0469-0.42969 0.53125-0.97656 0.79688-1.6406 0.79688-0.375 0-0.71094-0.074219-1-0.21875-0.29297-0.15625-0.55469-0.39062-0.78125-0.70312v0.78125h-1.7344v-7.5h1.7344z"/>
  </symbol>
  <symbol id="j" overflow="visible">
   <path d="m0.125-5.4062h1.7188l1.4531 3.6719 1.2344-3.6719h1.7344l-2.2812 5.9219c-0.23047 0.59375-0.49609 1.0078-0.79688 1.25-0.30469 0.23828-0.70312 0.35938-1.2031 0.35938h-1v-1.125h0.54688c0.28906 0 0.50391-0.046875 0.64062-0.14062 0.13281-0.09375 0.23828-0.26172 0.3125-0.5l0.046875-0.15625z"/>
  </symbol>
  <symbol id="i" overflow="visible">
   <path d="m0.90625-7.2031h1.8594v6.5c0 0.89453-0.24609 1.5664-0.73438 2.0156-0.49219 0.44531-1.2266 0.67188-2.2031 0.67188h-0.375v-1.4062h0.28125c0.38281 0 0.67578-0.10938 0.875-0.32812 0.19531-0.21875 0.29688-0.53516 0.29688-0.95312z"/>
  </symbol>
  <symbol id="h" overflow="visible">
   <path d="m0.76562-2.1094v-3.2969h1.7344v0.54688 1.1094 0.875c0 0.4375 0.007812 0.75 0.03125 0.9375 0.019531 0.1875 0.054688 0.32812 0.10938 0.42188 0.070313 0.11719 0.16406 0.20312 0.28125 0.26562 0.11328 0.054688 0.24219 0.078125 0.39062 0.078125 0.36328 0 0.64453-0.13281 0.84375-0.40625 0.20703-0.28125 0.3125-0.66406 0.3125-1.1562v-2.6719h1.7344v5.4062h-1.7344v-0.78125c-0.26172 0.3125-0.53906 0.54688-0.82812 0.70312-0.28125 0.14453-0.60156 0.21875-0.95312 0.21875-0.625 0-1.1055-0.1875-1.4375-0.5625-0.32422-0.38281-0.48438-0.94531-0.48438-1.6875z"/>
  </symbol>
  <symbol id="v" overflow="visible">
   <path d="m5.0469-5.2344v1.3125c-0.36719-0.15625-0.71875-0.26953-1.0625-0.34375-0.34375-0.082031-0.67188-0.125-0.98438-0.125-0.32422 0-0.57031 0.042969-0.73438 0.125-0.15625 0.085937-0.23438 0.21484-0.23438 0.39062 0 0.13672 0.054688 0.24219 0.17188 0.3125 0.125 0.074219 0.34375 0.125 0.65625 0.15625l0.3125 0.046875c0.88281 0.11719 1.4766 0.30469 1.7812 0.5625 0.30078 0.25 0.45312 0.65234 0.45312 1.2031 0 0.57422-0.21484 1.0078-0.64062 1.2969-0.41797 0.29297-1.0469 0.4375-1.8906 0.4375-0.35547 0-0.72656-0.03125-1.1094-0.09375-0.375-0.050781-0.76562-0.13281-1.1719-0.25v-1.3125c0.34375 0.16797 0.69141 0.29688 1.0469 0.39062 0.36328 0.085938 0.73438 0.125 1.1094 0.125 0.34375 0 0.59766-0.046875 0.76562-0.14062 0.16406-0.09375 0.25-0.23438 0.25-0.42188 0-0.15625-0.058594-0.26953-0.17188-0.34375-0.11719-0.070312-0.35156-0.12891-0.70312-0.17188l-0.29688-0.046875c-0.77344-0.09375-1.3125-0.26953-1.625-0.53125-0.30469-0.25781-0.45312-0.65625-0.45312-1.1875 0-0.57031 0.19141-0.99219 0.57812-1.2656 0.39453-0.28125 1-0.42188 1.8125-0.42188 0.3125 0 0.64453 0.027344 1 0.078125 0.35156 0.042969 0.73438 0.11719 1.1406 0.21875z"/>
  </symbol>
  <symbol id="c" overflow="visible">
   <path d="m3.4062-4.2969c-0.38672 0-0.68359 0.14062-0.89062 0.42188-0.19922 0.27344-0.29688 0.66406-0.29688 1.1719 0 0.52344 0.097656 0.92188 0.29688 1.2031 0.20703 0.27344 0.50391 0.40625 0.89062 0.40625 0.375 0 0.66016-0.13281 0.85938-0.40625 0.19531-0.28125 0.29688-0.67969 0.29688-1.2031 0-0.50781-0.10156-0.89844-0.29688-1.1719-0.19922-0.28125-0.48438-0.42188-0.85938-0.42188zm0-1.2344c0.92578 0 1.6484 0.25 2.1719 0.75 0.51953 0.5 0.78125 1.1953 0.78125 2.0781 0 0.89844-0.26172 1.5938-0.78125 2.0938-0.52344 0.5-1.2461 0.75-2.1719 0.75-0.9375 0-1.6719-0.25-2.2031-0.75-0.52344-0.5-0.78125-1.1953-0.78125-2.0938 0-0.88281 0.25781-1.5781 0.78125-2.0781 0.53125-0.5 1.2656-0.75 2.2031-0.75z"/>
  </symbol>
  <symbol id="u" overflow="visible">
   <path d="m5.9219-6.9688v1.5156c-0.39844-0.17578-0.78906-0.30469-1.1719-0.39062-0.375-0.09375-0.73047-0.14062-1.0625-0.14062-0.4375 0-0.76562 0.0625-0.98438 0.1875-0.21094 0.11719-0.3125 0.30469-0.3125 0.5625 0 0.19922 0.070313 0.35156 0.21875 0.45312 0.14453 0.10547 0.40625 0.19922 0.78125 0.28125l0.78125 0.15625c0.80078 0.15625 1.3672 0.40234 1.7031 0.73438 0.34375 0.32422 0.51562 0.78906 0.51562 1.3906 0 0.80469-0.24219 1.3984-0.71875 1.7812-0.46875 0.38672-1.1836 0.57812-2.1406 0.57812-0.46094 0-0.91797-0.046875-1.375-0.14062-0.46094-0.082031-0.92188-0.20703-1.3906-0.375v-1.5625c0.46875 0.24219 0.91406 0.42188 1.3438 0.54688 0.42578 0.125 0.83594 0.1875 1.2344 0.1875 0.40625 0 0.71094-0.066406 0.92188-0.20312 0.21875-0.13281 0.32812-0.32812 0.32812-0.57812 0-0.22656-0.074219-0.39844-0.21875-0.51562-0.14844-0.125-0.4375-0.23438-0.875-0.32812l-0.71875-0.17188c-0.71875-0.14453-1.2461-0.38281-1.5781-0.71875-0.33594-0.34375-0.5-0.80078-0.5-1.375 0-0.71875 0.22656-1.2695 0.6875-1.6562 0.46875-0.38281 1.1406-0.57812 2.0156-0.57812 0.39453 0 0.80078 0.03125 1.2188 0.09375 0.41406 0.054687 0.84766 0.14062 1.2969 0.26562z"/>
  </symbol>
  <symbol id="f" overflow="visible">
   <path d="m6.2656-3.2812v3.2812h-1.75v-2.5156c0-0.46875-0.011719-0.78906-0.03125-0.96875-0.023437-0.17578-0.054687-0.30469-0.09375-0.39062-0.074219-0.11328-0.16797-0.20312-0.28125-0.26562-0.11719-0.0625-0.24609-0.09375-0.39062-0.09375-0.36719 0-0.65234 0.14062-0.85938 0.42188-0.19922 0.28125-0.29688 0.66797-0.29688 1.1562v2.6562h-1.7344v-5.4062h1.7344v0.79688c0.25781-0.3125 0.53516-0.53906 0.82812-0.6875 0.28906-0.15625 0.61328-0.23438 0.96875-0.23438 0.625 0 1.0977 0.19531 1.4219 0.57812 0.32031 0.375 0.48438 0.93359 0.48438 1.6719z"/>
  </symbol>
  <symbol id="t" overflow="visible">
   <path d="m0.82812-5.4062h1.7344v5.4062h-1.7344zm0-2.0938h1.7344v1.4062h-1.7344z"/>
  </symbol>
  <symbol id="g" overflow="visible">
   <path d="m0.82812-7.5h1.7344v7.5h-1.7344z"/>
  </symbol>
  <symbol id="s" overflow="visible">
   <path d="m4.3906-7.5v1.125h-0.96875c-0.24219 0-0.41406 0.046875-0.51562 0.14062-0.09375 0.085937-0.14062 0.23438-0.14062 0.45312v0.375h1.4844v1.2344h-1.4844v4.1719h-1.7188v-4.1719h-0.85938v-1.2344h0.85938v-0.375c0-0.58203 0.16016-1.0156 0.48438-1.2969 0.33203-0.28125 0.84375-0.42188 1.5312-0.42188z"/>
  </symbol>
  <symbol id="r" overflow="visible">
   <path d="m5.8281-4.5c0.21875-0.33203 0.47656-0.58594 0.78125-0.76562 0.30078-0.17578 0.63281-0.26562 1-0.26562 0.61328 0 1.082 0.19531 1.4062 0.57812 0.33203 0.375 0.5 0.93359 0.5 1.6719v3.2812h-1.75v-2.8125c0.007813-0.039062 0.015625-0.082031 0.015625-0.125v-0.20312c0-0.38281-0.058594-0.66016-0.17188-0.82812-0.11719-0.17578-0.29688-0.26562-0.54688-0.26562-0.32422 0-0.57422 0.13672-0.75 0.40625-0.17969 0.27344-0.27344 0.66406-0.28125 1.1719v2.6562h-1.7344v-2.8125c0-0.60156-0.054687-0.98828-0.15625-1.1562-0.10547-0.17578-0.28906-0.26562-0.54688-0.26562-0.33594 0-0.58984 0.14062-0.76562 0.42188-0.17969 0.27344-0.26562 0.65625-0.26562 1.1562v2.6562h-1.75v-5.4062h1.75v0.79688c0.20703-0.30078 0.44531-0.53125 0.71875-0.6875 0.28125-0.15625 0.58203-0.23438 0.90625-0.23438 0.375 0 0.70312 0.09375 0.98438 0.28125 0.28906 0.17969 0.50781 0.42969 0.65625 0.75z"/>
  </symbol>
  <symbol id="q" overflow="visible">
   <path d="m6.2656-3.2812v3.2812h-1.75v-2.5c0-0.47656-0.011719-0.80469-0.03125-0.98438-0.023437-0.17578-0.054687-0.30469-0.09375-0.39062-0.074219-0.11328-0.16797-0.20312-0.28125-0.26562-0.11719-0.0625-0.24609-0.09375-0.39062-0.09375-0.36719 0-0.65234 0.14062-0.85938 0.42188-0.19922 0.28125-0.29688 0.66797-0.29688 1.1562v2.6562h-1.7344v-7.5h1.7344v2.8906c0.25781-0.3125 0.53516-0.53906 0.82812-0.6875 0.28906-0.15625 0.61328-0.23438 0.96875-0.23438 0.625 0 1.0977 0.19531 1.4219 0.57812 0.32031 0.375 0.48438 0.93359 0.48438 1.6719z"/>
  </symbol>
  <symbol id="p" overflow="visible">
   <path d="m0.90625-7.2031h2.0781l2.6094 4.9375v-4.9375h1.7656v7.2031h-2.0781l-2.6094-4.9375v4.9375h-1.7656z"/>
  </symbol>
  <symbol id="o" overflow="visible">
   <path d="m0.90625-7.2031h3.0781c0.91406 0 1.6172 0.20312 2.1094 0.60938 0.48828 0.40625 0.73438 0.99219 0.73438 1.75 0 0.75-0.24609 1.3281-0.73438 1.7344-0.49219 0.40625-1.1953 0.60938-2.1094 0.60938h-1.2188v2.5h-1.8594zm1.8594 1.3438v2.0156h1.0312c0.35156 0 0.62891-0.085938 0.82812-0.26562 0.19531-0.17578 0.29688-0.42188 0.29688-0.73438 0-0.32031-0.10156-0.57031-0.29688-0.75-0.19922-0.17578-0.47656-0.26562-0.82812-0.26562z"/>
  </symbol>
  <symbol id="n" overflow="visible">
   <path d="m0.82812-5.4062h1.7344v5.3125c0 0.71875-0.17969 1.2656-0.53125 1.6406-0.34375 0.38281-0.84375 0.57812-1.5 0.57812h-0.85938v-1.125h0.29688c0.33203 0 0.55469-0.078125 0.67188-0.23438 0.125-0.14844 0.1875-0.43359 0.1875-0.85938zm0-2.0938h1.7344v1.4062h-1.7344z"/>
  </symbol>
  <symbol id="m" overflow="visible">
   <path d="m5.1875-5.2344v1.4062c-0.23047-0.15625-0.46484-0.26953-0.70312-0.34375-0.24219-0.082031-0.48438-0.125-0.73438-0.125-0.48047 0-0.85547 0.14062-1.125 0.42188-0.27344 0.28125-0.40625 0.67188-0.40625 1.1719 0 0.51172 0.13281 0.90625 0.40625 1.1875 0.26953 0.28125 0.64453 0.42188 1.125 0.42188 0.26953 0 0.52344-0.035156 0.76562-0.10938 0.25-0.082031 0.47266-0.20703 0.67188-0.375v1.4219c-0.27344 0.09375-0.54688 0.16406-0.82812 0.21875-0.27344 0.050781-0.54688 0.078125-0.82812 0.078125-0.96875 0-1.7305-0.25-2.2812-0.75-0.55469-0.5-0.82812-1.1953-0.82812-2.0938 0-0.88281 0.27344-1.5781 0.82812-2.0781 0.55078-0.5 1.3125-0.75 2.2812-0.75 0.28125 0 0.55469 0.027344 0.82812 0.078125 0.28125 0.054687 0.55469 0.125 0.82812 0.21875z"/>
  </symbol>
 </defs>
 <g>
  <path d="m546.45 262.91c-1.7773-16-12.051-31.801-27.852-36.344-1.3828-4.7422-4.543-9.0859-8.0977-12.246-7.1094-6.9141-16.199-10.668-25.875-12.641-3.9492-8.8906-11.457-18.766-21.137-21.137-3.7539-0.78906-7.3086-0.19922-11.062 0.19922-1.7773 0.19922-3.5547 0.59375-5.332 0.78906 0-0.19922 0-0.59375-0.19922-0.78906-4.3438-7.1094-11.852-13.434-19.754-15.801-7.1094-2.1719-14.816-0.78906-21.332 2.5664-1.1836 0.59375-2.3711 1.3828-3.5547 2.1719-3.7539-2.9648-8.2969-5.332-13.035-6.5195-7.3086-1.7773-14.617 0.78906-20.148 5.5312-4.3438-0.78906-8.8906-1.3828-13.434-1.7773-6.7148-0.39453-15.211-1.1836-21.332 1.9766-3.7539 1.9766-6.9141 4.9375-9.6797 8.2969-4.3438-1.1836-8.8906-1.7773-13.234-2.1719-6.5195-0.39453-14.418-0.19922-18.965 5.1367-2.5664 2.9648-3.7539 6.5195-4.543 10.074-10.863-0.98828-27.852 0.39453-32.789 11.852-1.1836 2.9648-1.9766 6.125-2.7656 9.2852-1.1836 0.78906-2.1719 1.3828-3.3594 1.7773-4.3438 1.582-8.8906 1.9766-12.84 4.543-7.1094 4.3438-9.875 11.457-10.273 19.555-0.19922 2.5664-0.98828 4.543-1.582 6.9141-5.9258 3.1602-11.062 9.2852-13.828 15.211-2.1719 4.3438-2.5664 8.4922-2.1719 12.641-6.9141 2.9648-14.617 7.1094-19.359 12.84-2.1719 2.7656-2.9648 6.3203-3.7539 9.6797-0.78906 4.1484-1.3828 8.2969-1.582 12.445-0.19922 2.1719-0.19922 4.3438-0.39453 6.5195-6.3203 6.5195-9.0859 16.199-5.9258 24.891-4.9375 6.9141-6.7148 15.406-6.125 23.703 0.19922 3.9492 0.78906 8.0977 2.1719 11.852 0.98828 2.9648 2.7656 5.5312 3.7539 8.4922 1.7773 5.5312 4.1484 10.273 9.875 12.445 8.4922 3.1602 19.949 1.3828 28.445-1.1836 7.9023-2.5664 14.617-7.3086 18.566-14.617 63.801-0.59375 127.8-6.7148 190.82-15.605 28.246-3.9492 56.492-8.6914 84.543-14.418 13.434-2.7656 28.445-4.543 41.285-9.4805 5.1367-1.9766 9.875-5.1367 11.656-10.469 1.3828-3.9492 0.78906-8.2969-0.78906-12.246-0.39453-0.98828-1.1836-2.1719-1.582-3.3594 1.9766-5.1367 4.9375-9.0859 6.125-14.816 2.9688-16.012-6.5156-27.668-19.551-35.766zm-4.9375-5.5312c0.19922 0.98828 0.39453 1.9766 0.59375 2.9648-10.863-5.7266-23.109-9.6797-32.988-12.051-2.5664-3.7539-5.332-7.1094-8.6914-10.273-2.5664-2.3711-5.5312-4.543-8.4922-6.7148 12.246-3.5547 26.074-4.3438 36.344 4.1484 6.9102 5.5312 11.059 13.629 13.234 21.926zm-28.25-33.383c0.39453 0.59375 0.59375 1.1836 0.78906 1.582-8.8906-1.3828-17.777 0.39453-26.273 3.1602-13.035-7.9023-28.051-13.234-41.285-19.754-1.3828-0.59375-2.7656-1.3828-4.1484-2.1719 12.051-2.3711 26.668-3.9492 39.902-1.9766 0.39453 0.19922 0.78906 0.39453 1.1836 0.19922 12.648 2.1719 23.711 7.7031 29.832 18.961zm-50.766-39.703c7.9023 1.7773 14.023 9.4805 17.777 16.789-1.7773-0.19922-3.5547-0.39453-5.1367-0.59375-12.641-0.78906-25.285 0.98828-37.531 3.5547-4.543-2.5664-9.2852-5.1367-14.223-7.3086 5.9258-3.7539 12.051-7.5078 18.766-9.6797 3.1602-0.98828 6.3203-1.7773 9.4805-2.1719 3.5586-0.58984 7.3125-1.3789 10.867-0.58984zm-37.332-15.805c5.1367 1.1836 9.6797 4.1484 13.434 7.9023 1.9766 1.9766 3.7539 3.9492 5.332 6.3203-0.78906 0.19922-1.3828 0.39453-2.1719 0.59375-8.0977 2.5664-15.406 7.1094-22.52 11.852-3.1602-1.1836-6.5195-2.1719-9.6797-2.7656-7.5078-1.1836-15.605-1.582-23.703-1.1836 0.39453-1.1836 0.98828-2.1719 1.582-3.1602 4.3438-6.5195 11.457-10.863 17.777-15.012 5.9258-4.1484 12.84-6.3242 19.949-4.5469zm-37.531-1.5781c3.9492 0.78906 7.9023 2.7656 11.258 5.1367-5.1367 3.3594-10.074 7.3086-13.828 12.051-1.582 1.9766-3.1602 4.543-3.7539 7.1094-1.582 0.19922-3.3594 0.19922-4.9375 0.39453-4.543 0.39453-9.0859 1.3828-13.434 1.9766-5.9258 0.78906-12.445 0.98828-18.566 1.7773 2.1719-2.5664 4.3438-4.9375 6.9141-7.1094 5.1367-4.543 11.457-7.1094 16.199-12.246 5.3359-5.7305 11.852-10.867 20.148-9.0898zm-57.875 10.863c2.1719-2.1719 4.3438-4.3438 7.3086-5.5312 3.9492-1.7773 8.8906-1.582 13.035-1.582 5.332 0 10.668 0.59375 15.801 1.3828-1.7773 1.9766-3.5547 3.9492-5.9258 5.5312-3.1602 1.9766-6.3203 3.5547-9.2852 6.125-4.3438 3.7539-8.2969 7.9023-11.852 12.445-0.19922 0-0.39453 0-0.59375 0.19922-8.4922 2.1719-15.605 8.0977-22.914 12.641-1.1836 0.78906-2.5664 1.3828-3.7539 2.1719 0.98828-4.9375 3.3594-9.6797 5.332-14.023 3.3672-6.9141 7.5117-13.629 12.848-19.359zm-35.555 7.1133c3.3594-5.7266 10.273-5.9258 16.199-5.7266 3.9492 0.19922 8.0977 0.78906 12.051 1.7773-3.9492 5.5312-7.3086 11.457-10.074 17.582-2.1719 4.7422-4.1484 9.6797-4.7422 14.816-5.7266 2.9648-11.457 5.5312-16.988 9.2852-1.1836 0.78906-2.1719 1.582-3.3594 2.3711-1.1836-1.3828-2.3711-3.1602-2.3711-4.9375 0.19922-2.3711 0.78906-4.9375 1.3828-7.3086 0.78906-2.9648 1.582-5.9258 2.3711-8.8906 0.59375-1.7773 1.3828-3.5547 1.7773-5.332 0.98828-4.3555 1.1836-9.293 3.7539-13.637zm-35.953 20.543c2.1719-6.7148 9.2852-9.2852 15.605-10.469 4.3438-0.78906 8.8906-0.98828 13.434-0.59375 0 0.59375-0.19922 1.1836-0.39453 1.7773-0.98828 5.332-3.1602 10.469-4.543 15.801-0.59375 2.7656-1.582 5.9258-1.582 8.8906 0 2.3711 1.3828 4.7422 2.9648 6.5195-6.3203 4.7422-11.852 9.4805-16.789 16.594-2.5664 3.7539-5.1367 7.5078-7.9023 11.258-7.5078 0-5.1367-26.863-4.7422-30.617 0.98828-6.3203 1.9766-13.039 3.9492-19.16zm-27.457 25.281c1.582-4.543 5.1367-8.2969 9.4805-10.273 3.7539-1.7773 7.9023-2.1719 11.656-3.7539-0.39453 2.5664-0.59375 4.9375-0.78906 7.3086-0.78906 8.0977-1.3828 16.395 0 24.297 0.59375 3.9492 2.3711 8.8906 5.9258 10.469-5.9258 8.2969-11.656 16.789-16.395 25.68-5.332 1.3828-8.6914-16.199-9.2852-19.359-0.98828-4.3438-2.3711-8.8906-3.1602-13.234-0.59375-3.3594 0-5.5312 0.98828-8.6914 0.98828-4.1445 0.19531-8.4883 1.5781-12.441zm-16.988 31.012c2.1719-4.543 5.9258-9.2852 10.273-12.246 0.19922 1.582 0.39453 3.3594 0.78906 4.9375 1.7773 8.0977 3.3594 16.395 6.3203 24.098 1.3828 3.7539 3.7539 8.6914 7.5078 9.4805-1.1836 2.1719-2.3711 4.3438-3.3594 6.7148-1.9766 4.543-3.7539 9.2852-5.5312 13.828-2.7656-2.9648-4.7422-6.9141-6.7148-10.074-3.3594-5.9258-6.5195-11.852-8.8906-18.172-2.3672-6.5156-3.5547-12.242-0.39453-18.566zm-22.516 27.062c2.1719-3.7539 6.7148-6.3203 10.074-8.4922 1.9766-1.1836 3.9492-2.3711 6.125-3.3594 0.39453-0.19922 0.98828-0.39453 1.3828-0.59375 0.19922 1.1836 0.59375 2.3711 0.98828 3.5547 2.5664 7.1094 5.9258 14.023 9.875 20.543 2.3711 3.9492 4.9375 8.6914 8.4922 12.051-4.543 12.246-8.6914 24.492-13.828 36.344-3.5547-6.9141-9.2852-13.234-14.023-18.965-4.3438-5.332-8.8906-10.469-13.434-15.406 0.19922-5.1367 0.59375-10.273 1.3828-15.406 0.78906-3.5508 1.3828-7.3047 2.9648-10.27zm19.75 102.52c-7.7031 1.7773-22.52 4.543-27.852-3.3594-1.7773-2.5664-2.1719-5.5312-3.1602-8.2969-1.3828-3.3594-3.1602-6.125-3.9492-9.6797-2.3711-9.6797-1.582-21.332 4.7422-29.434 0.39453-0.59375 0.78906-1.1836 0.39453-1.7773-2.9648-7.3086-1.1836-15.211 3.9492-21.137 3.9492 4.3438 7.9023 8.6914 11.656 13.234 5.5312 6.7148 13.035 14.223 16 22.715 0 0 0.19922 0 0.19922 0.19922 0.19922 0.39453 0.39453 0.78906 0.78906 0.98828 8.4922 4.9375 13.434 14.023 15.406 23.508 0 0.39453 0.39453 0.59375 0.59375 0.78906-4.3477 6.5234-11.062 10.473-18.77 12.25zm329.09-52.344c-21.727 5.1367-43.457 9.4805-65.383 13.434-40.297 7.1094-80.789 12.445-121.29 16.395-28.84 2.7656-57.68 4.9375-86.715 6.125-8.2969 0.39453-16.789 0.59375-25.086 0.78906-1.9766 0-5.1367 0.59375-7.9023 0.59375-0.39453-0.19922-0.78906-0.39453-1.1836-0.19922 0-0.19922 0-0.19922-0.19922-0.39453-0.39453-2.1719-1.1836-4.3438-1.9766-6.3203-1.7773-4.7422-4.3438-9.2852-7.9023-12.84-1.1836-1.1836-4.1484-2.9648-4.543-4.3438-0.39453-1.3828 1.7773-5.332 2.3711-6.9141 3.1602-7.9023 6.125-16 9.2852-24.098 5.1367-12.641 8.8906-25.48 16.199-37.332 5.332-8.6914 10.863-17.184 16.594-25.68 0.39453-0.19922 0.59375-0.59375 0.59375-0.78906 3.1602-4.7422 6.3203-9.4805 9.6797-14.223 4.3438-5.9258 9.6797-10.273 15.605-14.418 0.19922 0 0.19922-0.19922 0.39453-0.19922 2.3711-1.7773 4.9375-3.3594 7.5078-5.1367 4.3438-2.7656 9.0859-4.9375 13.629-7.1094 0.39453 0 0.59375-0.19922 0.78906-0.39453 2.3711-1.1836 4.543-2.3711 6.9141-3.5547 8.4922-5.1367 16.199-11.656 26.273-12.84 19.949-2.3711 39.309-5.5312 59.457-4.1484 5.1367 0.39453 10.074 1.7773 14.816 3.5547 0.19922 0.19922 0.39453 0.19922 0.59375 0.19922 5.7266 2.3711 11.457 5.332 16.988 8.2969 0.19922 0.19922 0.39453 0.19922 0.39453 0.19922 2.3711 1.1836 4.7422 2.5664 6.9141 3.5547 13.828 6.9141 29.828 12.445 43.258 20.742 0.19922 0.19922 0.39453 0.19922 0.59375 0.39453 3.9492 2.3711 7.5078 5.1367 10.863 8.2969 13.035 11.852 18.371 29.234 25.875 44.641 0.19922 0.39453 0.39453 0.78906 0.59375 1.1836 0 0.19922 0.19922 0.19922 0.19922 0.39453 5.9258 12.246 12.445 24.098 19.359 35.754 1.1836 2.1719 4.543 0.19922 3.1602-1.9766-5.9258-9.875-11.258-19.754-16.594-30.023 9.6797 5.332 18.566 12.641 24.297 22.125 0.39453 0.78906 0.78906 1.3828 1.1836 2.1719 1.3828 1.9766 2.3711 4.3438 2.7656 6.7148 2.5586 12.039-9.0977 15.199-18.379 17.375zm17.578-28.645c-0.78906-1.3828-1.7773-2.5664-2.7656-3.7539-4.1484-5.332-9.0859-10.074-14.418-14.023-4.1484-2.9648-8.4922-5.5312-13.035-7.7031-0.78906-1.582-1.582-3.1602-2.3711-4.543-4.3438-9.0859-8.0977-18.566-13.234-27.258 19.949 5.1367 48.594 15.012 50.566 38.32 0.78906 6.3203-1.1875 13.234-4.7422 18.961z"/>
  <use x="70" y="589.628906" xlink:href="#w"/>
  <use x="77.25" y="589.628906" xlink:href="#e"/>
  <use x="82.117187" y="589.628906" xlink:href="#b"/>
  <use x="88.816406" y="589.628906" xlink:href="#d"/>
  <use x="95.480469" y="589.628906" xlink:href="#a"/>
  <use x="100.203125" y="589.628906" xlink:href="#b"/>
  <use x="106.902344" y="589.628906" xlink:href="#l"/>
  <use x="117.410156" y="589.628906" xlink:href="#k"/>
  <use x="124.480469" y="589.628906" xlink:href="#j"/>
  <use x="134.355469" y="589.628906" xlink:href="#i"/>
  <use x="138.03125" y="589.628906" xlink:href="#h"/>
  <use x="145.0625" y="589.628906" xlink:href="#v"/>
  <use x="150.941406" y="589.628906" xlink:href="#a"/>
  <use x="155.664062" y="589.628906" xlink:href="#c"/>
  <use x="165.886719" y="589.628906" xlink:href="#u"/>
  <use x="173" y="589.628906" xlink:href="#d"/>
  <use x="179.664062" y="589.628906" xlink:href="#f"/>
  <use x="186.695312" y="589.628906" xlink:href="#a"/>
  <use x="191.417969" y="589.628906" xlink:href="#t"/>
  <use x="194.800781" y="589.628906" xlink:href="#g"/>
  <use x="198.1875" y="589.628906" xlink:href="#g"/>
  <use x="201.574219" y="589.628906" xlink:href="#d"/>
  <use x="208.238281" y="589.628906" xlink:href="#f"/>
  <use x="70" y="599.507812" xlink:href="#s"/>
  <use x="74.296875" y="599.507812" xlink:href="#e"/>
  <use x="79.167969" y="599.507812" xlink:href="#c"/>
  <use x="85.953125" y="599.507812" xlink:href="#r"/>
  <use x="99.683594" y="599.507812" xlink:href="#a"/>
  <use x="104.402344" y="599.507812" xlink:href="#q"/>
  <use x="111.433594" y="599.507812" xlink:href="#b"/>
  <use x="121.570312" y="599.507812" xlink:href="#p"/>
  <use x="129.839844" y="599.507812" xlink:href="#c"/>
  <use x="136.625" y="599.507812" xlink:href="#h"/>
  <use x="143.65625" y="599.507812" xlink:href="#f"/>
  <use x="154.125" y="599.507812" xlink:href="#o"/>
  <use x="161.363281" y="599.507812" xlink:href="#e"/>
  <use x="166.234375" y="599.507812" xlink:href="#c"/>
  <use x="173.019531" y="599.507812" xlink:href="#n"/>
  <use x="176.40625" y="599.507812" xlink:href="#b"/>
  <use x="183.101562" y="599.507812" xlink:href="#m"/>
  <use x="188.957031" y="599.507812" xlink:href="#a"/>
 </g>
</svg>
