<?xml version="1.0" encoding="UTF-8"?>
<svg width="700pt" height="700pt" version="1.1" viewBox="0 0 700 700" xmlns="http://www.w3.org/2000/svg" xmlns:xlink="http://www.w3.org/1999/xlink">
 <defs>
  <symbol id="w" overflow="visible">
   <path d="m6.6094-0.39062c-0.33594 0.17969-0.6875 0.30859-1.0625 0.39062-0.36719 0.09375-0.75 0.14062-1.1562 0.14062-1.1992 0-2.1523-0.33203-2.8594-1-0.69922-0.67578-1.0469-1.5859-1.0469-2.7344 0-1.1445 0.34766-2.0508 1.0469-2.7188 0.70703-0.67578 1.6602-1.0156 2.8594-1.0156 0.40625 0 0.78906 0.046875 1.1562 0.14062 0.375 0.085938 0.72656 0.21484 1.0625 0.39062v1.5c-0.34375-0.23828-0.68359-0.41016-1.0156-0.51562-0.33594-0.11328-0.68359-0.17188-1.0469-0.17188-0.66797 0-1.1953 0.21484-1.5781 0.64062-0.375 0.42969-0.5625 1.0117-0.5625 1.75 0 0.74219 0.1875 1.3242 0.5625 1.75 0.38281 0.42969 0.91016 0.64062 1.5781 0.64062 0.36328 0 0.71094-0.050781 1.0469-0.15625 0.33203-0.11328 0.67188-0.28906 1.0156-0.53125z"/>
  </symbol>
  <symbol id="e" overflow="visible">
   <path d="m4.8438-3.9375c-0.15625-0.0625-0.30859-0.10938-0.45312-0.14062-0.14844-0.039063-0.29688-0.0625-0.45312-0.0625-0.4375 0-0.77734 0.14844-1.0156 0.4375-0.24219 0.28125-0.35938 0.6875-0.35938 1.2188v2.4844h-1.7344v-5.4062h1.7344v0.89062c0.21875-0.35156 0.46875-0.60938 0.75-0.76562 0.28906-0.16406 0.64062-0.25 1.0469-0.25 0.050781 0 0.10938 0.007812 0.17188 0.015625 0.070312 0 0.17578 0.011719 0.3125 0.03125z"/>
  </symbol>
  <symbol id="b" overflow="visible">
   <path d="m6.2188-2.7188v0.5h-4.0312c0.039062 0.40625 0.1875 0.71484 0.4375 0.92188 0.25 0.19922 0.59766 0.29688 1.0469 0.29688 0.36328 0 0.73438-0.050781 1.1094-0.15625 0.38281-0.11328 0.78125-0.28125 1.1875-0.5v1.3281c-0.40625 0.15625-0.82031 0.27344-1.2344 0.34375-0.40625 0.082031-0.8125 0.125-1.2188 0.125-0.98047 0-1.7422-0.24219-2.2812-0.73438-0.54297-0.5-0.8125-1.2031-0.8125-2.1094 0-0.875 0.26562-1.5625 0.79688-2.0625 0.53125-0.50781 1.2656-0.76562 2.2031-0.76562 0.84375 0 1.5195 0.25781 2.0312 0.76562 0.50781 0.51172 0.76562 1.1953 0.76562 2.0469zm-1.7656-0.5625c0-0.33203-0.10156-0.59766-0.29688-0.79688-0.1875-0.20703-0.4375-0.3125-0.75-0.3125-0.33594 0-0.60547 0.10156-0.8125 0.29688-0.21094 0.1875-0.33984 0.46094-0.39062 0.8125z"/>
  </symbol>
  <symbol id="d" overflow="visible">
   <path d="m3.25-2.4375c-0.36719 0-0.63672 0.0625-0.8125 0.1875-0.17969 0.125-0.26562 0.30859-0.26562 0.54688 0 0.21875 0.070313 0.39062 0.21875 0.51562 0.14453 0.125 0.34766 0.1875 0.60938 0.1875 0.32031 0 0.59375-0.11328 0.8125-0.34375 0.21875-0.23828 0.32812-0.53516 0.32812-0.89062v-0.20312zm2.6406-0.64062v3.0781h-1.75v-0.79688c-0.23047 0.32422-0.49219 0.5625-0.78125 0.71875-0.28125 0.14453-0.63281 0.21875-1.0469 0.21875-0.5625 0-1.0234-0.16016-1.375-0.48438-0.34375-0.33203-0.51562-0.75781-0.51562-1.2812 0-0.625 0.21875-1.082 0.65625-1.375 0.4375-0.30078 1.1172-0.45312 2.0469-0.45312h1.0156v-0.14062c0-0.26953-0.10938-0.46875-0.32812-0.59375-0.21094-0.13281-0.54297-0.20312-1-0.20312-0.36719 0-0.71094 0.042969-1.0312 0.125-0.3125 0.074219-0.60938 0.18359-0.89062 0.32812v-1.3125c0.375-0.09375 0.74219-0.16016 1.1094-0.20312 0.375-0.050781 0.75-0.078125 1.125-0.078125 0.97656 0 1.6797 0.19531 2.1094 0.57812 0.4375 0.38672 0.65625 1.0117 0.65625 1.875z"/>
  </symbol>
  <symbol id="a" overflow="visible">
   <path d="m2.7188-6.9375v1.5312h1.7812v1.2344h-1.7812v2.2969c0 0.25 0.046875 0.42188 0.14062 0.51562 0.10156 0.085937 0.30078 0.125 0.59375 0.125h0.89062v1.2344h-1.4844c-0.67969 0-1.1641-0.14062-1.4531-0.42188-0.28125-0.28906-0.42188-0.77344-0.42188-1.4531v-2.2969h-0.85938v-1.2344h0.85938v-1.5312z"/>
  </symbol>
  <symbol id="l" overflow="visible">
   <path d="m4.5-4.6094v-2.8906h1.7344v7.5h-1.7344v-0.78125c-0.24219 0.32422-0.50781 0.55859-0.79688 0.70312-0.28125 0.14453-0.60938 0.21875-0.98438 0.21875-0.66797 0-1.2148-0.26562-1.6406-0.79688-0.42969-0.53125-0.64062-1.2109-0.64062-2.0469 0-0.82031 0.21094-1.5 0.64062-2.0312 0.42578-0.53125 0.97266-0.79688 1.6406-0.79688 0.375 0 0.70312 0.078125 0.98438 0.23438 0.28906 0.14844 0.55469 0.375 0.79688 0.6875zm-1.1406 3.5c0.375 0 0.65625-0.13281 0.84375-0.40625 0.19531-0.26953 0.29688-0.66406 0.29688-1.1875 0-0.50781-0.10156-0.89844-0.29688-1.1719-0.1875-0.26953-0.46875-0.40625-0.84375-0.40625-0.36719 0-0.64844 0.13672-0.84375 0.40625-0.1875 0.27344-0.28125 0.66406-0.28125 1.1719 0 0.52344 0.09375 0.91797 0.28125 1.1875 0.19531 0.27344 0.47656 0.40625 0.84375 0.40625z"/>
  </symbol>
  <symbol id="k" overflow="visible">
   <path d="m3.7031-1.1094c0.36328 0 0.64453-0.13281 0.84375-0.40625 0.19531-0.26953 0.29688-0.66406 0.29688-1.1875 0-0.50781-0.10156-0.89844-0.29688-1.1719-0.19922-0.26953-0.48047-0.40625-0.84375-0.40625-0.36719 0-0.64844 0.13672-0.84375 0.40625-0.19922 0.27344-0.29688 0.66406-0.29688 1.1719 0 0.52344 0.097656 0.91797 0.29688 1.1875 0.19531 0.27344 0.47656 0.40625 0.84375 0.40625zm-1.1406-3.5c0.22656-0.3125 0.48828-0.53906 0.78125-0.6875 0.28906-0.15625 0.625-0.23438 1-0.23438 0.66406 0 1.2109 0.26562 1.6406 0.79688 0.42578 0.53125 0.64062 1.2109 0.64062 2.0312 0 0.83594-0.21484 1.5156-0.64062 2.0469-0.42969 0.53125-0.97656 0.79688-1.6406 0.79688-0.375 0-0.71094-0.074219-1-0.21875-0.29297-0.15625-0.55469-0.39062-0.78125-0.70312v0.78125h-1.7344v-7.5h1.7344z"/>
  </symbol>
  <symbol id="j" overflow="visible">
   <path d="m0.125-5.4062h1.7188l1.4531 3.6719 1.2344-3.6719h1.7344l-2.2812 5.9219c-0.23047 0.59375-0.49609 1.0078-0.79688 1.25-0.30469 0.23828-0.70312 0.35938-1.2031 0.35938h-1v-1.125h0.54688c0.28906 0 0.50391-0.046875 0.64062-0.14062 0.13281-0.09375 0.23828-0.26172 0.3125-0.5l0.046875-0.15625z"/>
  </symbol>
  <symbol id="i" overflow="visible">
   <path d="m0.90625-7.2031h1.8594v6.5c0 0.89453-0.24609 1.5664-0.73438 2.0156-0.49219 0.44531-1.2266 0.67188-2.2031 0.67188h-0.375v-1.4062h0.28125c0.38281 0 0.67578-0.10938 0.875-0.32812 0.19531-0.21875 0.29688-0.53516 0.29688-0.95312z"/>
  </symbol>
  <symbol id="h" overflow="visible">
   <path d="m0.76562-2.1094v-3.2969h1.7344v0.54688 1.1094 0.875c0 0.4375 0.007812 0.75 0.03125 0.9375 0.019531 0.1875 0.054688 0.32812 0.10938 0.42188 0.070313 0.11719 0.16406 0.20312 0.28125 0.26562 0.11328 0.054688 0.24219 0.078125 0.39062 0.078125 0.36328 0 0.64453-0.13281 0.84375-0.40625 0.20703-0.28125 0.3125-0.66406 0.3125-1.1562v-2.6719h1.7344v5.4062h-1.7344v-0.78125c-0.26172 0.3125-0.53906 0.54688-0.82812 0.70312-0.28125 0.14453-0.60156 0.21875-0.95312 0.21875-0.625 0-1.1055-0.1875-1.4375-0.5625-0.32422-0.38281-0.48438-0.94531-0.48438-1.6875z"/>
  </symbol>
  <symbol id="v" overflow="visible">
   <path d="m5.0469-5.2344v1.3125c-0.36719-0.15625-0.71875-0.26953-1.0625-0.34375-0.34375-0.082031-0.67188-0.125-0.98438-0.125-0.32422 0-0.57031 0.042969-0.73438 0.125-0.15625 0.085937-0.23438 0.21484-0.23438 0.39062 0 0.13672 0.054688 0.24219 0.17188 0.3125 0.125 0.074219 0.34375 0.125 0.65625 0.15625l0.3125 0.046875c0.88281 0.11719 1.4766 0.30469 1.7812 0.5625 0.30078 0.25 0.45312 0.65234 0.45312 1.2031 0 0.57422-0.21484 1.0078-0.64062 1.2969-0.41797 0.29297-1.0469 0.4375-1.8906 0.4375-0.35547 0-0.72656-0.03125-1.1094-0.09375-0.375-0.050781-0.76562-0.13281-1.1719-0.25v-1.3125c0.34375 0.16797 0.69141 0.29688 1.0469 0.39062 0.36328 0.085938 0.73438 0.125 1.1094 0.125 0.34375 0 0.59766-0.046875 0.76562-0.14062 0.16406-0.09375 0.25-0.23438 0.25-0.42188 0-0.15625-0.058594-0.26953-0.17188-0.34375-0.11719-0.070312-0.35156-0.12891-0.70312-0.17188l-0.29688-0.046875c-0.77344-0.09375-1.3125-0.26953-1.625-0.53125-0.30469-0.25781-0.45312-0.65625-0.45312-1.1875 0-0.57031 0.19141-0.99219 0.57812-1.2656 0.39453-0.28125 1-0.42188 1.8125-0.42188 0.3125 0 0.64453 0.027344 1 0.078125 0.35156 0.042969 0.73438 0.11719 1.1406 0.21875z"/>
  </symbol>
  <symbol id="c" overflow="visible">
   <path d="m3.4062-4.2969c-0.38672 0-0.68359 0.14062-0.89062 0.42188-0.19922 0.27344-0.29688 0.66406-0.29688 1.1719 0 0.52344 0.097656 0.92188 0.29688 1.2031 0.20703 0.27344 0.50391 0.40625 0.89062 0.40625 0.375 0 0.66016-0.13281 0.85938-0.40625 0.19531-0.28125 0.29688-0.67969 0.29688-1.2031 0-0.50781-0.10156-0.89844-0.29688-1.1719-0.19922-0.28125-0.48438-0.42188-0.85938-0.42188zm0-1.2344c0.92578 0 1.6484 0.25 2.1719 0.75 0.51953 0.5 0.78125 1.1953 0.78125 2.0781 0 0.89844-0.26172 1.5938-0.78125 2.0938-0.52344 0.5-1.2461 0.75-2.1719 0.75-0.9375 0-1.6719-0.25-2.2031-0.75-0.52344-0.5-0.78125-1.1953-0.78125-2.0938 0-0.88281 0.25781-1.5781 0.78125-2.0781 0.53125-0.5 1.2656-0.75 2.2031-0.75z"/>
  </symbol>
  <symbol id="u" overflow="visible">
   <path d="m5.9219-6.9688v1.5156c-0.39844-0.17578-0.78906-0.30469-1.1719-0.39062-0.375-0.09375-0.73047-0.14062-1.0625-0.14062-0.4375 0-0.76562 0.0625-0.98438 0.1875-0.21094 0.11719-0.3125 0.30469-0.3125 0.5625 0 0.19922 0.070313 0.35156 0.21875 0.45312 0.14453 0.10547 0.40625 0.19922 0.78125 0.28125l0.78125 0.15625c0.80078 0.15625 1.3672 0.40234 1.7031 0.73438 0.34375 0.32422 0.51562 0.78906 0.51562 1.3906 0 0.80469-0.24219 1.3984-0.71875 1.7812-0.46875 0.38672-1.1836 0.57812-2.1406 0.57812-0.46094 0-0.91797-0.046875-1.375-0.14062-0.46094-0.082031-0.92188-0.20703-1.3906-0.375v-1.5625c0.46875 0.24219 0.91406 0.42188 1.3438 0.54688 0.42578 0.125 0.83594 0.1875 1.2344 0.1875 0.40625 0 0.71094-0.066406 0.92188-0.20312 0.21875-0.13281 0.32812-0.32812 0.32812-0.57812 0-0.22656-0.074219-0.39844-0.21875-0.51562-0.14844-0.125-0.4375-0.23438-0.875-0.32812l-0.71875-0.17188c-0.71875-0.14453-1.2461-0.38281-1.5781-0.71875-0.33594-0.34375-0.5-0.80078-0.5-1.375 0-0.71875 0.22656-1.2695 0.6875-1.6562 0.46875-0.38281 1.1406-0.57812 2.0156-0.57812 0.39453 0 0.80078 0.03125 1.2188 0.09375 0.41406 0.054687 0.84766 0.14062 1.2969 0.26562z"/>
  </symbol>
  <symbol id="f" overflow="visible">
   <path d="m6.2656-3.2812v3.2812h-1.75v-2.5156c0-0.46875-0.011719-0.78906-0.03125-0.96875-0.023437-0.17578-0.054687-0.30469-0.09375-0.39062-0.074219-0.11328-0.16797-0.20312-0.28125-0.26562-0.11719-0.0625-0.24609-0.09375-0.39062-0.09375-0.36719 0-0.65234 0.14062-0.85938 0.42188-0.19922 0.28125-0.29688 0.66797-0.29688 1.1562v2.6562h-1.7344v-5.4062h1.7344v0.79688c0.25781-0.3125 0.53516-0.53906 0.82812-0.6875 0.28906-0.15625 0.61328-0.23438 0.96875-0.23438 0.625 0 1.0977 0.19531 1.4219 0.57812 0.32031 0.375 0.48438 0.93359 0.48438 1.6719z"/>
  </symbol>
  <symbol id="t" overflow="visible">
   <path d="m0.82812-5.4062h1.7344v5.4062h-1.7344zm0-2.0938h1.7344v1.4062h-1.7344z"/>
  </symbol>
  <symbol id="g" overflow="visible">
   <path d="m0.82812-7.5h1.7344v7.5h-1.7344z"/>
  </symbol>
  <symbol id="s" overflow="visible">
   <path d="m4.3906-7.5v1.125h-0.96875c-0.24219 0-0.41406 0.046875-0.51562 0.14062-0.09375 0.085937-0.14062 0.23438-0.14062 0.45312v0.375h1.4844v1.2344h-1.4844v4.1719h-1.7188v-4.1719h-0.85938v-1.2344h0.85938v-0.375c0-0.58203 0.16016-1.0156 0.48438-1.2969 0.33203-0.28125 0.84375-0.42188 1.5312-0.42188z"/>
  </symbol>
  <symbol id="r" overflow="visible">
   <path d="m5.8281-4.5c0.21875-0.33203 0.47656-0.58594 0.78125-0.76562 0.30078-0.17578 0.63281-0.26562 1-0.26562 0.61328 0 1.082 0.19531 1.4062 0.57812 0.33203 0.375 0.5 0.93359 0.5 1.6719v3.2812h-1.75v-2.8125c0.007813-0.039062 0.015625-0.082031 0.015625-0.125v-0.20312c0-0.38281-0.058594-0.66016-0.17188-0.82812-0.11719-0.17578-0.29688-0.26562-0.54688-0.26562-0.32422 0-0.57422 0.13672-0.75 0.40625-0.17969 0.27344-0.27344 0.66406-0.28125 1.1719v2.6562h-1.7344v-2.8125c0-0.60156-0.054687-0.98828-0.15625-1.1562-0.10547-0.17578-0.28906-0.26562-0.54688-0.26562-0.33594 0-0.58984 0.14062-0.76562 0.42188-0.17969 0.27344-0.26562 0.65625-0.26562 1.1562v2.6562h-1.75v-5.4062h1.75v0.79688c0.20703-0.30078 0.44531-0.53125 0.71875-0.6875 0.28125-0.15625 0.58203-0.23438 0.90625-0.23438 0.375 0 0.70312 0.09375 0.98438 0.28125 0.28906 0.17969 0.50781 0.42969 0.65625 0.75z"/>
  </symbol>
  <symbol id="q" overflow="visible">
   <path d="m6.2656-3.2812v3.2812h-1.75v-2.5c0-0.47656-0.011719-0.80469-0.03125-0.98438-0.023437-0.17578-0.054687-0.30469-0.09375-0.39062-0.074219-0.11328-0.16797-0.20312-0.28125-0.26562-0.11719-0.0625-0.24609-0.09375-0.39062-0.09375-0.36719 0-0.65234 0.14062-0.85938 0.42188-0.19922 0.28125-0.29688 0.66797-0.29688 1.1562v2.6562h-1.7344v-7.5h1.7344v2.8906c0.25781-0.3125 0.53516-0.53906 0.82812-0.6875 0.28906-0.15625 0.61328-0.23438 0.96875-0.23438 0.625 0 1.0977 0.19531 1.4219 0.57812 0.32031 0.375 0.48438 0.93359 0.48438 1.6719z"/>
  </symbol>
  <symbol id="p" overflow="visible">
   <path d="m0.90625-7.2031h2.0781l2.6094 4.9375v-4.9375h1.7656v7.2031h-2.0781l-2.6094-4.9375v4.9375h-1.7656z"/>
  </symbol>
  <symbol id="o" overflow="visible">
   <path d="m0.90625-7.2031h3.0781c0.91406 0 1.6172 0.20312 2.1094 0.60938 0.48828 0.40625 0.73438 0.99219 0.73438 1.75 0 0.75-0.24609 1.3281-0.73438 1.7344-0.49219 0.40625-1.1953 0.60938-2.1094 0.60938h-1.2188v2.5h-1.8594zm1.8594 1.3438v2.0156h1.0312c0.35156 0 0.62891-0.085938 0.82812-0.26562 0.19531-0.17578 0.29688-0.42188 0.29688-0.73438 0-0.32031-0.10156-0.57031-0.29688-0.75-0.19922-0.17578-0.47656-0.26562-0.82812-0.26562z"/>
  </symbol>
  <symbol id="n" overflow="visible">
   <path d="m0.82812-5.4062h1.7344v5.3125c0 0.71875-0.17969 1.2656-0.53125 1.6406-0.34375 0.38281-0.84375 0.57812-1.5 0.57812h-0.85938v-1.125h0.29688c0.33203 0 0.55469-0.078125 0.67188-0.23438 0.125-0.14844 0.1875-0.43359 0.1875-0.85938zm0-2.0938h1.7344v1.4062h-1.7344z"/>
  </symbol>
  <symbol id="m" overflow="visible">
   <path d="m5.1875-5.2344v1.4062c-0.23047-0.15625-0.46484-0.26953-0.70312-0.34375-0.24219-0.082031-0.48438-0.125-0.73438-0.125-0.48047 0-0.85547 0.14062-1.125 0.42188-0.27344 0.28125-0.40625 0.67188-0.40625 1.1719 0 0.51172 0.13281 0.90625 0.40625 1.1875 0.26953 0.28125 0.64453 0.42188 1.125 0.42188 0.26953 0 0.52344-0.035156 0.76562-0.10938 0.25-0.082031 0.47266-0.20703 0.67188-0.375v1.4219c-0.27344 0.09375-0.54688 0.16406-0.82812 0.21875-0.27344 0.050781-0.54688 0.078125-0.82812 0.078125-0.96875 0-1.7305-0.25-2.2812-0.75-0.55469-0.5-0.82812-1.1953-0.82812-2.0938 0-0.88281 0.27344-1.5781 0.82812-2.0781 0.55078-0.5 1.3125-0.75 2.2812-0.75 0.28125 0 0.55469 0.027344 0.82812 0.078125 0.28125 0.054687 0.55469 0.125 0.82812 0.21875z"/>
  </symbol>
 </defs>
 <g>
  <path d="m616.57 324.74c-0.19922 0.19922-0.78906 0.59375-0.78906 0.78906 0.39453 2.1719-0.98828 3.9492-1.9766 5.5312-2.3711 3.7539-5.7266 6.7148-9.2852 9.0859-8.2969 5.9258-16.988 11.457-25.68 16.988-6.7148 4.1484-13.234 8.4922-19.949 12.641-5.5312 3.3594-11.062 6.7148-16.594 10.074-4.7422 2.9648-9.6797 5.9258-14.418 8.6914-2.3711 1.3828-4.7422 2.5664-7.1094 3.9492-7.3086 4.1484-14.418 8.4922-21.727 12.641-3.3594 1.9766-6.7148 3.5547-10.074 5.332-8.6914 4.543-17.383 9.0859-26.074 13.828-16 8.8906-32.594 16.594-48.789 24.891-8.2969 4.1484-16.789 7.9023-25.285 11.852-8.0977 3.5547-16.199 7.1094-24.492 10.668-4.1484 1.7773-8.4922 3.5547-12.84 5.332-0.59375 5.9258-3.3594 10.863-7.1094 15.406-1.582 1.9766-3.7539 3.3594-5.7266 4.9375-2.1719 1.582-4.543 3.1602-6.9141 4.543-3.1602 1.9766-6.7148 2.9648-10.273 3.7539-0.39453 0-0.78906 0.59375-1.1836 0.78906h-8.0977c-4.1484-2.1719-7.9023-4.7422-10.273-8.8906-0.19922-0.39453-0.59375-0.59375-0.98828-0.78906-3.3594-1.7773-4.9375-5.1367-7.1094-7.9023-3.3594-4.543-4.9375-9.875-5.9258-15.211-0.78906-3.9492-0.78906-7.9023 0.39453-12.246-5.7266-6.9141-5.7266-15.012-3.5547-24.098-1.582-5.332-3.7539-11.258-4.543-17.582-0.19922-1.1836-0.78906-2.3711-0.78906-3.3594-0.19922-5.9258 2.3711-10.863 5.9258-15.605 1.9766-2.5664 4.1484-4.9375 6.3203-7.5078-0.59375-2.3711-1.3828-4.7422-1.9766-7.3086-8.4922 3.5547-16.988 7.1094-25.285 10.668-1.3828 7.9023-4.9375 14.223-11.656 19.16-3.9492 2.7656-7.7031 5.5312-12.051 7.5078-4.543 2.1719-9.6797 3.1602-14.617 2.5664-2.5664-0.19922-4.7422-1.7773-6.5195-3.3594-2.1719-1.9766-3.9492-4.1484-6.125-6.125-2.1719-1.9766-4.3438-4.1484-5.7266-6.7148-2.9648-4.9375-5.7266-9.875-6.5195-15.801-0.39453-2.3711-0.78906-4.7422-0.59375-7.1094 0-1.7773 0.39453-3.5547 0.59375-5.9258-5.7266-6.7148-5.7266-15.012-3.5547-23.703-1.3828-4.9375-3.1602-10.273-4.3438-15.605-0.39453-1.9766-0.78906-3.9492-0.78906-5.9258-0.19922-3.7539 0.98828-7.5078 3.1602-10.863 2.7656-4.1484 5.7266-7.9023 9.0859-12.246-0.39453-1.582-1.1836-3.9492-1.7773-5.9258-8.8906 3.7539-17.777 7.5078-26.863 11.457-0.98828 7.7031-5.1367 13.629-11.062 18.566-4.1484 3.5547-8.6914 6.3203-13.629 8.6914-4.7422 2.1719-9.875 2.1719-15.605 1.582-2.9648-1.582-6.5195-3.7539-8.6914-7.5078-0.39453-0.59375-0.78906-1.1836-1.3828-1.582-7.3086-5.332-10.668-13.234-13.035-21.332 0.59375-3.7539-2.1719-7.5078-0.19922-11.258 0.39453-0.78906 0-1.7773 0-2.9648-5.5312-7.3086-6.3203-15.211-3.3594-23.703-1.3828-4.543-2.5664-8.8906-3.9492-13.234-1.3828-4.543-0.98828-9.0859-0.98828-13.434 5.5312-11.258 5.5312-10.668 12.246-17.777-1.9766-3.3594-2.9648-7.3086-2.3711-11.258 0.78906-5.7266 2.3711-11.258 5.5312-16.199 0.59375-0.78906 0.98828-1.582 1.582-2.3711-0.19922-0.19922-0.19922-0.39453-0.19922-0.59375 0-3.3594-1.7773-6.3203-1.9766-9.6797-0.19922-3.1602 0-6.5195 0-9.2852 1.3828-4.7422 4.1484-7.9023 7.3086-10.863 1.3828-1.1836 2.9648-2.3711 4.3438-3.5547 1.1836-1.1836 2.3711-2.3711 3.5547-3.3594-0.19922-1.1836-0.59375-1.9766-0.59375-2.7656v-6.5195c-0.19922-3.9492 1.3828-6.9141 3.9492-9.6797 5.332-5.9258 12.246-9.0859 19.754-11.656v-4.7422c-0.39453-5.5312 1.9766-9.875 6.7148-12.445 6.125-3.3594 12.641-5.7266 19.949-6.3203 0.39453-0.59375 1.3828-1.582 1.3828-2.5664 0.59375-3.3594 2.5664-5.7266 4.543-8.0977 1.3828-1.7773 3.3594-2.9648 5.332-3.9492 5.5312-3.1602 11.457-4.7422 17.582-6.3203 2.1719-0.59375 4.543-1.1836 6.9141-1.7773 0.78906-0.98828 1.582-1.9766 2.1719-3.1602 3.1602-4.7422 7.3086-6.9141 12.84-8.2969 4.3438-0.98828 8.0977 0.39453 12.246 0.19922 0.39453 0 0.78906 0.59375 1.1836 0.78906 2.9648-3.3594 5.7266-6.7148 9.6797-9.0859 2.9648-1.7773 6.3203-3.1602 10.074-3.1602h4.1484c7.1094-0.39453 13.434 2.3711 19.16 6.3203 0.19922 0.19922 0.59375 0.19922 0.78906 0.19922 3.5547-1.7773 7.1094-3.7539 10.668-5.7266 12.84-0.98828 18.965 2.5664 27.852 10.668 10.863-1.9766 21.727-1.3828 31.605 4.7422 1.9766 1.3828 4.543 2.1719 5.7266 4.9375 16.594-0.39453 28.246 7.9023 36.742 21.926 4.9375 1.1836 10.074 2.7656 14.816 5.332 7.5078 4.1484 12.246 10.273 14.023 18.766 0.98828 4.1484 1.3828 8.0977 0 12.246-0.39453 0.98828 0 2.1719 0 3.3594 1.7773 2.5664 4.9375 4.1484 5.7266 7.7031 6.5195 1.9766 12.84 4.3438 17.383 10.074 7.9023-0.39453 14.816 1.1836 21.332 5.5312 6.3203 4.1484 11.457 9.4805 15.012 16 4.543 1.1836 9.0859 2.1719 13.035 4.1484 7.3086 3.7539 12.84 9.0859 15.406 17.184 0.78906 2.5664 1.3828 5.332 1.582 8.0977 0.19922 1.1836-0.59375 2.5664-0.78906 3.7539-0.19922 2.1719 0 4.3438 0 6.5195 5.332 5.7266 5.7266 6.3203 6.5195 9.875 2.7656 1.1836 5.7266 2.1719 8.2969 3.5547 2.5664 1.582 4.543 3.7539 7.1094 5.7266 16.395-0.59375 27.852 8.0977 36.148 21.926 6.9141 0.98828 13.234 3.5547 18.965 7.7031 3.9492 2.9648 6.9141 6.9141 8.6914 11.656 1.1836 3.1602 1.582 6.3203 1.582 9.6797v10.469c0.98828 0.98828 1.9766 1.9766 2.9648 2.9648 1.9766 1.9766 3.5547 4.3438 3.5547 7.3086 0 0.19922 0.59375 0.39453 0.78906 0.78906-0.19141 1.1953-0.19141 2.5781-0.19141 3.9609zm-19.16-1.582c-3.9492-3.1602-8.0977-6.5195-12.246-9.875-2.3711-1.9766-4.543-4.1484-6.9141-6.125-3.5547-3.1602-7.5078-6.125-10.863-9.4805-7.3086-6.9141-14.418-14.223-22.125-20.543-6.5195-5.332-13.629-8.6914-21.531-11.062-6.3203-1.9766-12.84-2.3711-19.359-3.1602-3.1602-0.39453-6.3203 0-9.2852-0.19922-2.9648-0.19922-6.125-0.78906-9.0859-0.78906-6.125 0.39453-12.246-0.98828-18.566-0.98828h-0.78906c-3.9492-1.3828-8.0977-0.98828-12.246-1.582-3.5547-0.59375-7.3086-0.19922-11.062 0-2.5664 0.19922-4.9375 0.39453-7.5078 0.98828-7.9023 2.3711-15.406 5.7266-22.914 9.0859-3.5547 1.582-6.9141 3.5547-10.469 5.5312-6.3203 3.3594-12.641 6.9141-18.965 10.469-4.3438 2.5664-7.7031 5.9258-10.668 10.074-4.7422 6.5195-9.2852 13.035-15.012 18.566-2.3711 2.1719-4.3438 5.1367-6.3203 7.7031-1.9766 2.7656-3.9492 5.5312-5.9258 8.4922-5.7266 8.0977-8.0977 17.383-10.074 26.863-0.78906 3.3594-1.582 6.5195-2.1719 9.875-0.59375 3.1602-1.3828 6.125-1.7773 9.2852-0.59375 3.5547-1.1836 7.1094-1.9766 10.469-1.1836 5.5312-1.9766 11.258-2.1719 16.789-0.19922 12.84 0 25.875 0 38.715 0 1.7773-0.19922 3.3594 0.59375 5.1367 0.59375 1.1836 0.59375 3.1602 0 4.3438-0.98828 1.7773-0.59375 3.3594-0.59375 4.9375 0.98828 1.1836 1.9766 1.9766 3.5547 2.3711 4.543 1.3828 8.4922 3.7539 11.656 7.3086 2.1719 2.3711 4.3438 4.3438 6.5195 6.7148 3.9492-1.7773 7.5078-3.5547 11.258-5.1367 6.5195-2.9648 13.234-5.5312 19.754-8.6914 6.9141-3.1602 13.828-6.5195 20.742-9.4805 5.1367-2.1719 9.875-4.7422 14.816-7.3086 14.617-7.3086 29.035-14.617 43.656-22.125 5.7266-2.9648 11.457-5.9258 17.184-8.8906 5.1367-2.7656 10.273-5.332 15.406-8.0977 2.5664-1.3828 5.332-2.7656 7.9023-4.3438 4.7422-2.7656 9.2852-5.5312 14.023-8.0977 5.7266-3.3594 11.457-6.3203 16.988-9.875 6.9141-4.1484 13.629-8.4922 20.344-12.641 5.5312-3.3594 11.062-6.7148 16.395-10.273 10.863-7.1094 21.727-14.418 32.594-21.531 4.7422-3.1602 9.2852-6.7148 11.457-12.246v-3.7539c-1.582-3.9492-3.5547-6.9141-6.9141-9.0859-3.1602-2.1719-6.125-4.543-9.6797-6.125-4.543-1.9766-9.0859-3.9492-14.223-4.3438-1.1836-0.19922-2.1719-0.59375-3.9492-0.98828 4.543 3.9492 8.4922 7.5078 12.445 10.863 3.9492 3.3594 8.2969 6.125 12.051 9.875-0.59375 0.98828-0.98828 1.7773-1.3828 2.3711-0.98828 0.011718-1.582 0.011718-2.5703 0.011718zm-202.27-73.875c0.19922-0.39453 0.78906-1.1836 1.3828-1.9766 2.1719-2.9648 4.543-5.7266 7.9023-7.5078 5.1367-2.7656 10.668-2.3711 16.395-1.7773 1.1836 0.19922 2.5664 0.39453 3.3594 0.59375 2.3711-2.9648 4.543-5.5312 7.3086-7.3086 6.125-4.1484 12.445-5.7266 19.754-4.1484 5.7266 1.1836 10.863 3.3594 15.605 6.3203 4.3438-1.582 7.7031-4.7422 12.246-5.7266 2.7656-0.59375 5.1367-0.59375 7.9023-0.19922 1.7773 0.39453 3.5547 1.3828 5.7266 0.98828-3.7539-3.1602-7.3086-5.9258-10.668-9.0859-5.9258-5.332-11.062-11.457-17.383-16.395-2.5664-2.1719-4.9375-4.543-7.5078-6.7148-3.1602-2.5664-6.5195-4.7422-10.273-6.7148-5.7266-2.9648-12.051-4.3438-18.172-5.7266-4.1484-0.98828-8.2969-0.78906-12.641-1.582-3.1602-0.59375-6.5195 0-9.6797-0.19922-3.1602-0.19922-6.3203-0.78906-9.4805-0.78906-6.125 0.39453-12.246-0.98828-18.566-0.98828h-0.78906c-1.9766-1.3828-4.1484-0.39453-6.3203-0.78906-2.1719-0.39453-4.3438-0.78906-6.7148-0.78906-2.3711 0.19922-4.9375-0.19922-7.3086 0-2.5664 0.19922-5.332 0.39453-7.9023 0.98828-6.9141 1.7773-13.629 4.543-20.148 7.7031-10.273 4.9375-20.344 10.469-30.418 15.801-6.3203 3.3594-11.062 8.0977-15.012 14.023-2.5664 3.7539-5.332 7.7031-8.4922 11.062-3.7539 4.1484-7.5078 8.2969-11.062 12.641-3.5547 4.7422-6.7148 9.6797-9.6797 14.816-4.3438 7.7031-5.332 16.594-7.3086 25.086-0.78906 2.9648-1.1836 6.125-1.9766 9.2852-0.78906 3.3594-1.582 6.9141-2.1719 10.273-0.59375 3.5547-1.3828 6.9141-1.7773 10.469-0.59375 3.9492-1.1836 7.9023-1.3828 11.852-0.39453 6.7148-0.19922 13.629 0 20.344 0.19922 6.9141-0.39453 13.629 0.59375 20.543 0.59375 4.1484 0.59375 8.4922-0.78906 12.641 1.1836 0.98828 1.9766 1.9766 3.5547 2.1719 1.582 0.19922 3.1602 0.98828 4.7422 1.9766 5.332 3.3594 9.875 7.3086 13.234 12.246 9.4805-4.1484 18.965-8.2969 28.246-12.445 1.3828-5.9258 2.5664-11.852 6.9141-16.594-0.39453-2.1719-0.39453-4.543-1.1836-6.7148-1.1836-2.9648-1.582-5.7266-1.582-8.8906 0-4.9375 1.7773-9.2852 5.332-12.84 2.1719-2.1719 4.543-3.9492 7.1094-5.7266 2.9648-2.1719 3.5547-3.7539 2.5664-7.5078-0.98828-3.7539-0.39453-7.3086 1.1836-10.863 1.582-3.5547 4.3438-6.3203 7.5078-8.4922 4.1484-2.7656 8.6914-4.9375 13.434-6.5195 0.78906-0.19922 1.3828-0.78906 1.582-0.98828-0.19922-2.1719-0.59375-3.9492-0.39453-5.7266 0.19922-1.7773 0.98828-3.5547 1.582-5.1367 0.19922-0.39453 0.19922-0.78906 0.39453-0.98828 1.7773-1.582 3.3594-3.3594 5.332-4.9375 3.5547-2.5664 7.7031-3.5547 11.852-4.9375 2.7656-0.78906 5.7266-1.3828 8.0977-1.7773 1.582-3.1602 2.5664-5.9258 4.3438-8.0977 2.3711-2.9648 4.9375-5.5312 8.6914-7.1094 2.7656-0.98828 5.332-2.1719 8.0977-3.1602 4.7383-1.3867 9.4766-2.5703 14.812-3.9531zm4.9375-101.93c0.19922-0.19922 0.39453-0.39453 0.59375-0.78906-3.7539-3.3594-7.5078-6.5195-11.062-10.074-6.7148-6.7148-13.434-13.234-20.742-19.16-3.5547-2.7656-7.5078-5.5312-11.656-7.5078-5.7266-2.5664-11.852-3.9492-17.977-5.1367-4.7422-0.98828-9.6797-1.1836-14.617-1.582-6.9141-0.59375-14.023 0.19922-20.938-0.78906-3.3594-0.59375-6.9141-0.19922-10.273-0.78906-5.1367-0.78906-10.469-0.98828-15.801-1.7773-5.1367-0.78906-10.668-0.39453-15.605 0.98828-6.3203 1.582-12.641 3.7539-18.766 6.7148-11.258 5.5312-22.52 11.258-33.582 17.383-5.332 2.9648-9.4805 7.3086-13.035 12.051-4.9375 6.5195-9.4805 13.234-15.406 18.766-0.98828 0.98828-1.9766 1.7773-2.7656 2.9648-2.9648 4.1484-5.5312 8.2969-8.4922 12.445-2.9648 4.1484-5.332 8.8906-6.7148 13.629-1.1836 4.1484-2.1719 8.2969-2.9648 12.641-1.1836 6.3203-2.7656 12.445-4.1484 18.766-1.3828 6.7148-2.7656 13.234-3.7539 19.949-0.59375 4.3438-0.39453 8.8906-0.98828 13.234-0.59375 3.7539 0.78906 7.3086 0.78906 11.062v34.172 3.9492c4.1484 1.3828 8.2969 2.7656 11.656 5.5312 3.5547 2.9648 6.7148 6.125 9.4805 9.4805 9.875-4.3438 19.555-8.6914 29.234-13.035 0.78906-6.7148 2.7656-12.445 6.9141-17.977-0.39453-2.1719-0.78906-4.543-1.3828-6.7148-0.39453-1.9766-1.3828-3.9492-1.3828-6.125-0.19922-7.5078 1.9766-13.828 8.4922-18.172 2.5664-1.582 4.7422-3.9492 7.1094-5.9258-0.39453-2.3711-0.98828-4.543-1.1836-6.7148-0.39453-6.7148 2.3711-12.051 7.5078-15.801 4.543-3.3594 9.4805-6.3203 15.012-7.7031 0.78906-0.19922 1.3828-0.59375 1.9766-0.98828-0.19922-1.582-0.78906-2.7656-0.59375-4.1484 0.59375-5.9258 2.9648-10.668 8.4922-13.434 3.9492-1.9766 8.0977-3.7539 12.445-4.3438 2.3711-0.39453 4.7422-1.1836 6.7148-1.7773 0.59375-1.1836 1.1836-1.7773 1.3828-2.5664 1.9766-6.9141 7.1094-10.863 13.035-13.434 4.1484-1.7773 8.4922-3.1602 13.035-4.1484 2.5664-0.59375 5.332-1.3828 8.0977-2.1719 1.9766-4.3438 5.5312-7.7031 9.6797-9.875 4.3438-2.1719 9.2852-2.3711 14.023-1.582 1.7773 0.19922 3.5547 0.39453 5.332 0.59375 0.98828-1.3828 1.7773-2.5664 2.7656-3.5547 4.3438-4.3438 9.2852-7.1094 15.406-7.9023 4.7422-0.59375 7.1094-0.39453 11.852 0.78906 4.543 1.1836 8.6914 3.3594 12.445 5.7266 3.5547-1.9766 7.1094-3.7539 10.469-5.5312 3.5703 0.58984 6.7305-1.9766 9.8906 0.39453zm-140.64 249.88c-2.5664-2.7656-5.332-5.9258-8.2969-8.8906-2.9648-2.9648-6.7148-4.9375-11.062-5.7266-1.582-0.19922-2.7656-0.78906-3.9492-1.7773-4.543-4.1484-9.6797-7.3086-15.012-10.074-6.5195-3.3594-13.035-6.7148-19.555-10.273-0.59375 0.98828-0.98828 1.7773-1.3828 2.5664 0 8.0977 0.78906 10.668 4.9375 15.605-0.19922 1.9766-0.19922 3.9492-0.59375 5.9258-0.59375 2.5664 0 5.1367 0.59375 7.9023 0.98828 5.5312 2.9648 10.668 6.5195 15.012 3.9492 4.7422 8.4922 9.0859 12.246 13.035 4.3438 2.1719 8.0977 1.582 11.656 0 5.1367-2.1719 10.074-4.543 14.223-8.4922 1.3828-1.3828 3.1602-2.5664 4.3438-3.9492 2.3672-3.1602 4.1445-6.7148 5.332-10.863zm-143.8-88.297c0.19922 0.19922 0.59375 0.59375 0.59375 1.1836-0.19922 3.9492 0.98828 7.5078 2.5664 11.062 1.3828 3.1602 2.9648 6.125 5.332 8.6914 2.5664 2.7656 5.5312 5.1367 7.7031 8.2969 1.3828 1.9766 3.3594 3.9492 5.1367 4.3438 2.9648 0 5.5312 0.59375 7.5078-0.19922 6.125-1.9766 11.656-4.9375 16.594-9.0859 4.543-3.9492 8.4922-8.4922 9.875-14.617-5.7266-7.3086-11.656-14.223-21.727-15.406-4.9375-5.1367-11.062-8.6914-17.184-12.051-2.3711-1.1836-4.543-2.5664-6.9141-3.7539-4.1484-2.1719-8.2969-4.1484-12.246-6.125-2.9648 7.5078 0 13.234 4.543 18.766-0.79297 2.7734-1.1875 5.5391-1.7812 8.8945zm198.52 193.19c4.3438 0.59375 7.9023-0.98828 11.258-2.5664 6.125-2.7656 11.457-6.7148 16-11.852 2.5664-2.9648 4.543-6.125 4.7422-10.074-5.5312-7.9023-12.051-13.828-21.531-15.406-10.668-9.6797-23.703-14.816-35.949-21.332-0.59375 0.98828-0.98828 1.7773-1.3828 2.3711-0.19922 3.1602-0.39453 6.3203 0.78906 9.2852 0.98828 2.1719 2.5664 4.3438 3.9492 6.7148 0 1.582-0.19922 3.5547-0.59375 5.5312-0.59375 2.9648-0.19922 6.125 0.59375 9.0859 1.7773 5.9258 3.9492 11.656 8.6914 16.199 1.582 1.582 3.3594 2.7656 4.543 4.543 2.3711 3.5469 5.1367 6.1172 8.8906 7.5zm-201.29-226.18c12.051 6.9141 24.098 12.246 34.965 20.148v-4.1484c0.59375-8.6914-0.98828-17.383-0.78906-26.074v-4.1484c-2.7656-1.7773-5.5312-3.3594-7.9023-4.9375-2.5664-1.7773-4.9375-3.5547-7.3086-5.5312-2.3711-1.9766-4.9375-4.1484-7.1094-6.3203s-4.1484-4.543-6.125-6.7148c-4.3438 3.7539-6.7148 7.1094-10.668 15.012-0.19922 8.0977 2.9648 15.605 4.9375 22.715zm171.26 135.51c-0.78906 9.0859 2.1719 16.789 4.7422 24.297 11.852 5.9258 23.309 11.852 34.172 18.965v-33.383c-11.062-6.5195-20.742-14.418-28.84-24.098-3.3594 3.3555-6.7188 8.0938-10.074 14.219zm-77.234-95.012c-3.5547 4.9375-8.0977 9.0859-9.875 14.617-0.98828 8.8906 2.3711 16.594 4.7422 23.902 11.656 6.3203 23.309 11.852 33.977 19.359v-33.582c-10.871-6.3242-20.551-14.223-28.844-24.297zm-49.188-176c-3.5547 1.7773-6.7148 3.5547-10.074 4.9375-2.7656 1.1836-4.9375 3.1602-6.9141 5.332-2.1719 2.5664-3.7539 5.5312-3.3594 9.0859 0.19922 2.3711 0.19922 4.7422 0.98828 7.1094 0.78906 2.5664 0.78906 5.1367 1.7773 7.7031 0.98828 2.5664 1.3828 5.332 2.3711 7.9023 1.7773 4.9375 3.5547 9.875 6.3203 14.418 1.1836 2.1719 3.1602 3.5547 5.332 5.5312 0.98828-4.1484 1.9766-7.7031 2.7656-11.457 1.3828-5.332 2.7656-10.668 5.5312-15.406 1.1836-1.9766 2.1719-3.9492 3.3594-6.125-2.5664-1.1836-4.1484-3.1602-4.7422-5.7266-0.59375-2.3711-1.1836-4.7422-1.582-7.3086-0.19922-1.7773 0-3.7539 0-5.7266-0.19922-1.9766-0.39453-3.9492-0.78906-5.9258-0.39062-1.1836-0.58984-2.5664-0.98438-4.3438zm175.61 159.8c-0.59375 0.19922-1.1836 0-1.7773 0.39453-2.3711 1.1836-4.7422 2.3711-7.1094 3.5547-4.9375 2.3711-8.8906 5.5312-11.062 10.863 0 2.7656-0.19922 5.332 0 8.0977 0.19922 2.3711 0.98828 4.543 1.582 6.9141 1.582 7.5078 4.3438 14.617 7.1094 21.926 1.1836 3.1602 3.1602 5.9258 5.7266 8.0977 0.59375 0.59375 1.582 0.59375 2.1719 0.78906 1.3828-5.7266 2.5664-11.062 4.1484-16.199 1.3828-5.332 3.9492-10.273 7.3086-15.406-0.98828-0.78906-2.3711-1.7773-3.3594-2.7656-0.78906-0.78906-1.582-1.9766-1.7773-2.9648-0.78906-4.3438-1.3828-8.8906-1.582-13.234-0.19531-3.7461 0.003906-6.9062-1.3789-10.066zm-83.16-55.109c-0.78906-3.7539-1.9766-6.9141-1.9766-10.273s-0.78906-6.5195-0.78906-9.875c0-1.7773-0.59375-3.5547-0.98828-5.332-6.125 1.582-11.258 4.7422-15.801 8.4922-2.1719 1.7773-4.1484 4.543-4.3438 7.7031-0.39453 4.1484 0 8.2969 0.98828 12.246 1.582 5.9258 3.3594 11.656 5.332 17.383 1.9766 5.332 3.9492 10.668 8.6914 14.418h1.582c2.7656-10.668 4.3438-21.926 11.258-31.211-1.3867-1.1797-2.7695-2.3672-3.9531-3.5508zm267.46-19.953c0.39453-1.1836 1.1836-2.5664 0.98828-3.7539-0.39453-2.3711-0.19922-4.9375-0.98828-7.1094-1.7773-5.9258-4.9375-11.258-10.074-15.012-4.9375-3.7539-11.062-5.332-16.988-6.5195-3.7539-0.78906-7.7031-0.98828-11.457-0.78906-5.9258 0-12.051 0.59375-18.172 0.78906 7.9023 7.3086 15.605 14.617 23.309 21.727 12.051 0.59375 23.109 4.5469 33.383 10.668zm-122.07-89.48c5.9258 0.59375 11.852 1.582 17.582 3.3594 5.7266 1.7773 11.062 4.543 16.395 7.7031 1.1836-4.3438 0.39453-8.2969-0.59375-12.051-2.3711-8.2969-8.0977-14.023-16.199-17.383-2.1719-0.98828-4.3438-1.582-6.7148-2.1719-2.3711-0.59375-4.7422-0.98828-6.9141-0.98828-2.3711 0-4.7422-0.78906-7.1094-0.78906-5.5312 0-10.863 0.39453-16.395 0.78906-0.78906 0-1.582 0.59375-2.3711 0.98828 7.5039 6.5195 14.812 13.434 22.32 20.543zm-85.137 195.75c-3.3594 2.9648-6.3203 5.332-8.6914 8.0977-2.9648 3.1602-4.3438 7.5078-3.3594 11.656 1.1836 4.3438 2.3711 8.6914 2.9648 13.234 0.19922 1.3828 0.98828 2.7656 1.7773 3.9492 3.1602 4.9375 6.5195 9.875 9.875 14.816 1.7773 2.5664 4.1484 4.9375 6.3203 7.3086 1.1836 1.3828 2.5664 2.1719 4.1484 1.9766 1.7773-9.0859 3.5547-17.777 5.1367-26.668 0 0-0.39453-0.59375-0.59375-0.59375-3.1602-0.78906-4.7422-3.1602-6.5195-5.5312-2.9648-4.1484-4.7422-8.6914-6.5195-13.434-1.5742-4.7383-2.957-9.4805-4.5391-14.812zm261.14-36.148c5.7266-0.59375 11.457 1.3828 17.184 2.9648 5.7266 1.582 11.062 4.3438 16.395 7.7031 0-2.7656 0.19922-5.1367 0-7.3086s-0.19922-4.3438-0.98828-6.125c-2.5664-6.3203-6.7148-11.258-12.84-14.617-6.7148-3.5547-13.828-4.543-21.137-5.1367-3.1602-0.39453-6.5195-0.19922-9.6797 0-3.3594 0.19922-6.7148 0.59375-9.875 0.78906-0.78906 0-1.3828 0.19922-1.9766 0.19922 7.5117 7.1133 15.215 14.223 22.918 21.531zm-347.85-44.051c-2.3711 1.7773-4.543 3.1602-6.5195 4.9375-1.582 1.582-3.3594 3.1602-4.3438 5.1367-1.582 2.9648-2.7656 6.125-1.7773 9.4805 1.3828 4.1484 2.3711 8.4922 2.9648 12.84 0.19922 1.3828 0.78906 2.9648 1.7773 4.3438 3.3594 4.7422 6.3203 9.6797 9.6797 14.418 1.9766 2.7656 4.3438 5.1367 6.5195 7.5078 1.1836 1.1836 2.5664 2.3711 4.3438 1.582 0.98828-9.0859 2.9648-17.582 5.1367-26.273-4.9375-1.7773-7.5078-5.7266-9.6797-9.875-2.3711-4.543-4.3438-9.4805-5.7266-14.418-0.79688-3.1602-1.5859-6.3203-2.375-9.6797zm-88.691-79.207c-2.9648 2.7656-5.5312 5.1367-8.0977 7.3086-4.3438 3.9492-4.543 8.8906-3.5547 14.223 0.59375 2.7656 2.1719 5.332 1.9766 8.2969-0.19922 3.3594 1.3828 6.125 3.1602 8.6914 3.7539 5.5312 7.7031 11.062 11.656 16.395 1.9766 2.5664 3.9492 5.1367 7.9023 5.5312 0.59375-3.1602 1.3828-6.125 1.7773-9.0859 0.39453-3.5547 1.3828-6.9141 1.9766-10.469 0.39453-2.3711 1.7773-4.7422 1.1836-7.1094-3.7539-1.3828-5.9258-4.1484-7.9023-7.3086-1.3828-2.1719-2.3711-4.543-3.3594-7.1094-1.9766-4.7422-3.7539-9.4805-4.9375-14.418-0.59766-1.1953-1.1875-2.7734-1.7812-4.9453zm206.81-71.113c6.3203-5.1367 12.641-9.0859 20.543-11.062-4.9375-4.7422-10.863-6.9141-17.184-7.7031-6.3203-0.78906-12.445 0.19922-18.566 1.9766-9.4805 2.5664-18.172 7.1094-26.668 12.051-0.78906 0.39453-1.1836 1.1836-2.1719 2.1719 8.4922 0.39453 16.789 0.59375 24.891 0.98828 1.7773 0 3.7539-0.39453 5.332 0.19922 2.3711 0.98828 4.7422 0.39453 7.1094 0.78906 2.3711-0.19922 4.7422 0.19531 6.7148 0.58984zm-71.898-5.1367c0.78906-0.59375 1.9766-1.3828 2.7656-2.3711 2.7656-4.1484 5.7266-7.9023 9.2852-11.457l5.332-5.332c-4.1484-2.1719-7.9023-4.1484-12.246-4.9375-3.1602-0.59375-6.125-0.59375-9.4805 0.19922-5.9258 1.582-10.074 5.5312-13.629 10.273-4.3438 5.7266-8.0977 11.656-10.074 18.566-0.19922 0.59375-0.19922 1.3828-0.19922 1.9766 9.2812-3.1641 17.777-7.3125 28.246-6.918zm171.46 135.31c-4.543 1.9766-8.4922 4.1484-11.457 7.7031-1.3828 1.7773-2.3711 3.7539-3.9492 5.5312-3.3594 3.7539-5.1367 8.2969-7.3086 12.641-0.59375 1.3828-2.1719 3.1602-0.39453 5.1367 9.0859-3.7539 18.371-7.1094 28.641-7.3086 4.543-6.5195 9.4805-13.234 16.199-18.371-7.707-4.7383-9.8789-5.9219-21.73-5.332zm-81.777-57.281c4.9375-6.3203 9.4805-13.434 16.395-18.172-3.5547-2.5664-7.3086-4.1484-11.258-4.9375-4.543-0.78906-8.8906-0.98828-13.234 0.98828-4.1484 1.9766-7.5078 4.7422-10.273 8.4922-3.3594 4.7422-6.7148 9.2852-9.0859 14.816-0.78906 1.9766-1.7773 3.9492-1.3828 6.5195 9.4805-3.9531 18.766-6.918 28.84-7.707zm90.664-5.1367c-0.19922-0.39453-0.19922-0.78906-0.39453-0.98828-3.5547-2.5664-7.5078-4.7422-11.852-5.9258-3.7539-0.98828-7.5078-0.59375-11.258-0.78906-4.3438-0.19922-8.2969 0.98828-12.445 2.1719-6.7148 1.9766-13.234 4.7422-19.555 8.0977-2.7656 1.582-5.332 3.1602-8.4922 4.9375 1.582 0.39453 2.5664 1.1836 3.5547 1.1836 7.9023-0.39453 15.605 0.78906 23.309 0.78906 1.9766 0 3.9492-0.39453 5.7266 0.19922s3.5547 0.59375 5.5312 0.78906c1.7773 0.19922 3.5547 0.59375 5.5312 0.78906 6.3203-4.9336 12.84-9.082 20.344-11.254zm23.113 88.098c2.7656 0.39453 4.543 0.98828 6.3203 1.1836 5.7266 0.39453 11.457-0.39453 17.184 0.78906 4.543 0.78906 9.2852-0.39453 14.023 0.98828 1.9766 0.59375 4.1484 0.39453 6.3203 0.59375 2.9648-2.1719 6.125-4.7422 9.4805-6.5195 3.3594-1.9766 7.1094-3.1602 11.062-4.9375-5.5312-3.5547-10.668-6.5195-16.988-6.9141-1.3828 0-2.5664-0.39453-3.9492-0.39453-1.1836 0-2.5664 0.39453-3.7539 0.39453-5.1367-0.39453-9.875 1.3828-14.617 2.7656-5.9258 1.7773-11.457 4.543-16.789 7.5078-2.3672 1.1875-5.1328 2.7656-8.293 4.543zm-290.37-139.85c-1.3828 0.39453-2.3711 0.59375-3.3594 0.78906-3.9492 1.1836-8.0977 1.7773-11.852 3.9492-5.332 3.1602-8.2969 8.2969-6.5195 13.434 1.582 4.9375 1.582 9.875 2.1719 14.816 0.59375 4.3438 0.98828 8.8906 1.7773 12.84 1.1836 1.1836 1.9766 2.1719 2.5664 2.9648 4.543-5.7266 9.0859-11.258 13.629-16.789-1.5742-4.5469-0.98438-23.113 1.5859-32.004zm70.52 124.25c0.78906 0.78906 1.9766 2.3711 3.1602 3.7539 3.9492-6.3203 8.2969-11.852 13.035-16.199-0.19922-1.582-0.19922-2.5664-0.39453-3.5547 0-1.1836 0.19922-2.5664-0.39453-3.5547-0.78906-1.582-0.78906-3.3594-0.39453-4.7422 0.98828-2.9648 0.39453-6.125 0.78906-9.0859 0.19922-2.5664 0.78906-5.1367 1.3828-7.7031 0.39453-1.3828 0.39453-2.5664 0-4.1484-0.59375 0.39453-0.98828 0.59375-1.582 0.78906-3.9492 0.39453-7.5078 1.9766-11.258 3.3594-3.7539 1.582-6.5195 3.9492-8.0977 7.3086 0 3.7539-0.39453 7.5078 0.78906 10.863 0.78906 2.3711 0.78906 4.7422 0.78906 7.1094 0 0.98828-0.19922 2.1719 0 3.1602 1.3828 3.9531 1.1875 7.9062 2.1758 12.645zm103.31 67.359c-0.39453-3.1602-0.98828-5.9258-0.98828-8.8906 0-3.1602 0.59375-6.3203 0.78906-9.4805 0-3.7539 0.59375-7.3086 1.582-10.863 0.19922-0.78906 0-1.582 0-2.3711-0.78906 0-1.1836-0.19922-1.3828-0.19922-3.3594 1.1836-7.1094 1.7773-10.469 3.1602-4.1484 1.582-7.3086 4.1484-9.2852 8.0977 0.19922 3.5547-0.39453 6.9141 0.78906 10.469 0.59375 1.3828 0.78906 3.1602 0.78906 4.543 0 5.5312 0.78906 10.863 1.582 16.199 0.39453 2.3711 1.3828 4.1484 3.3594 5.5312 4.3438-5.332 8.6914-10.664 13.234-16.195zm-139.26-213.93c-5.9258 1.9766-11.258 3.7539-16.395 5.7266-5.332 1.9766-9.4805 5.5312-11.457 11.062-2.1719 5.332-3.3594 11.062-3.9492 16.789-0.19922 0.98828 0 2.1719-0.19922 3.1602-0.78906 3.7539-0.98828 9.875-0.19922 13.629 1.9766-2.9648 4.1484-5.5312 5.9258-8.2969 2.7656-4.1484 5.5312-8.2969 9.4805-11.258 1.3828-0.98828 2.1719-1.9766 2.5664-3.1602 0.98828-2.5664 1.3828-5.332 2.5664-7.7031 1.582-2.9648 2.7656-5.9258 4.7422-8.6914 2.7695-3.1602 5.3398-6.3203 6.918-11.258zm55.902 129.38c1.3828-1.582 2.3711-2.7656 3.1602-4.1484 3.7539-5.7266 7.7031-11.258 12.84-15.801 1.3828-1.1836 2.1719-2.5664 2.5664-4.3438 1.7773-5.7266 4.1484-11.258 7.9023-16.199 1.7773-2.1719 3.1602-4.543 4.543-6.9141 0.39453-0.59375 0.39453-1.582 0.59375-2.7656-2.1719 0.59375-3.9492 1.1836-5.7266 1.7773-3.3594 1.1836-6.9141 2.1719-10.273 3.5547-5.1367 1.9766-8.8906 5.332-11.062 10.668-2.5664 6.5195-3.9492 13.234-4.7422 20.148-0.19531 4.3438 0.19922 8.8867 0.19922 14.023zm118.71 30.418c-6.3203 1.7773-12.445 3.5547-18.172 6.5195-3.5547 1.7773-5.9258 4.1484-7.7031 7.7031-1.1836 2.1719-1.9766 4.543-2.7656 6.9141-1.7773 5.7266-2.5664 11.457-2.7656 17.383-0.19922 2.5664 0 5.1367 0 7.7031 0 0.78906 0.19922 1.582 0.19922 3.1602 2.3711-3.3594 4.3438-5.9258 6.125-8.6914 2.9648-3.9492 5.332-8.4922 9.875-11.258 0.78906-0.59375 1.1836-1.582 1.582-2.5664 2.3711-6.3203 4.3438-12.641 8.8906-17.977 1.1836-1.582 2.3711-3.1602 3.5547-4.7422 0.78516-0.78906 1.7734-1.9727 1.1797-4.1484zm-269.83-44.246c-3.5547 5.7266-3.9492 12.246-3.5547 18.172 1.9766 5.332 5.332 9.2852 9.0859 12.84 3.9492 3.5547 7.9023 7.1094 12.051 10.469 2.1719 1.7773 4.3438 3.1602 7.3086 4.9375v-9.875c0.19922-2.9648-0.59375-6.125 0.59375-9.0859-1.3828-0.39453-2.7656-0.78906-4.1484-1.1836-4.1484-1.7773-6.5195-5.5312-9.0859-8.8906-4.3477-5.5312-8.2969-11.652-12.25-17.383zm175.8 159.41c-0.39453 0.39453-0.78906 0.78906-0.98828 1.1836-1.1836 2.7656-1.7773 5.7266-2.7656 8.4922-1.582 4.543-0.19922 8.4922 1.582 12.051 1.3828 2.9648 3.7539 5.332 6.125 7.9023 1.9766 1.9766 4.1484 3.7539 6.3203 5.5312 4.3438 3.7539 8.8906 7.5078 13.828 11.656 0-3.9492 0.19922-7.3086 0-10.469-0.19922-3.1602 1.7773-6.125 0.78906-8.8906-1.9766-0.98828-3.5547-1.582-5.332-2.3711-3.7539-1.7773-5.7266-5.332-7.9023-8.2969-4.1484-5.1367-7.707-11.062-11.656-16.789zm-62.223-52.742c-3.3594-1.1836-6.7148-2.7656-9.0859-5.7266-2.3711-3.1602-4.9375-6.3203-7.1094-9.4805-2.9648-4.1484-5.7266-8.2969-8.6914-12.641-0.39453 0.78906-0.78906 1.3828-0.98828 1.9766-1.1836 2.9648-1.7773 5.9258-2.5664 8.8906-1.3828 4.543 0.19922 8.2969 2.1719 11.852 1.582 2.9648 3.7539 5.5312 6.125 7.7031 4.3438 3.7539 8.4922 7.7031 13.035 11.258 2.1719 1.7773 4.543 3.1602 7.1094 4.9375-1.9766-6.5234 0.78906-12.449 0-18.77zm162.77-207.01c-0.98828-0.98828-1.3828-1.3828-1.582-1.7773-4.9375-6.9141-11.062-11.852-19.359-14.418-4.543-1.3828-9.0859-1.1836-13.629 0-3.7539 0.98828-7.5078 2.5664-10.668 4.543-1.7773 0.98828-3.7539 1.7773-4.9375 3.9492 6.7148 1.9766 13.035 4.3438 18.371 8.2969 4.1484-0.19922 7.9023-0.59375 11.852-0.78906 1.7773-0.19922 3.5547 0 5.5312-0.59375 2.1719-0.59375 4.7422-0.78906 6.7148 0 2.375 0.98438 4.5469 0.19531 7.707 0.78906zm124.84 151.7c3.5547 0.98828 7.1094 1.7773 10.074 3.3594 3.1602 1.7773 6.5195 3.3594 9.6797 4.9375 10.074-1.3828 20.148-2.1719 30.617-0.98828-2.9648-4.3438-6.5195-7.7031-10.668-11.062-7.5078-5.9258-16-7.1094-24.891-4.543-3.7539 1.1836-7.1094 3.1602-10.668 4.9375-1.3789 0.98828-2.7617 2.1719-4.1445 3.3594zm-87.508-80.395c7.5078 1.3828 13.828 4.543 19.754 8.2969 5.1367-0.59375 10.273-1.3828 15.406-1.3828 5.1367-0.19922 10.469-0.78906 16 0.98828-5.1367-7.1094-10.668-12.445-18.371-15.406-5.7266-2.1719-11.258-2.3711-16.988-0.59375-5.5273 1.3789-10.465 4.1445-15.801 8.0977zm-22.715-22.125c-0.59375-0.78906-0.98828-1.3828-1.3828-1.7773-2.3711-1.3828-4.7422-2.7656-7.1094-3.9492-5.5312-2.7656-11.062-2.7656-16.594 0.39453-1.1836 0.59375-2.3711 1.1836-3.3594 1.9766-3.5547 2.1719-6.9141 4.543-9.875 7.3086-3.3594 3.3594-6.3203 7.1094-9.0859 11.062 2.9648 2.3711 6.5195 0 9.2852 1.582 0.98828 0.59375 2.5664 0 3.7539 0 10.664-7.1172 21.527-13.238 34.367-16.598zm-88.297-79.012c-3.7539-3.3594-7.7031-5.1367-11.852-6.9141-3.5547-1.3828-7.1094-1.3828-10.469 0-5.1367 2.1719-10.074 5.332-14.223 9.0859-3.5547 3.3594-6.9141 7.3086-10.273 10.863-0.39453 0.39453-0.39453 0.98828-0.78906 1.3828-0.19922 0.39453-0.39453 0.59375-0.78906 0.98828 4.9375 0.39453 9.4805 0.78906 13.629 1.1836 11.062-7.1094 21.926-13.23 34.766-16.59zm87.703 184.3c0.78906-8.0977 4.1484-15.012 8.4922-21.727-0.78906-0.19922-1.582-0.19922-2.1719-0.39453-4.543-1.7773-8.6914-0.39453-12.445 1.582-3.3594 1.582-5.7266 4.9375-7.5078 8.2969-1.582 2.9648-2.5664 6.3203-4.3438 9.0859-3.7539 5.5312-8.2969 10.863-9.875 17.777 9.4805-3.7578 18.371-9.4844 27.852-14.621zm-114.96-65.777c10.273-3.5547 18.566-10.074 27.852-14.816 0.78906-7.9023 3.9492-15.012 8.6914-21.531-2.3711-0.39453-4.3438-0.98828-6.5195-0.98828-1.1836 0-2.5664 0.78906-3.7539 0.78906-2.3711 0-4.1484 0.98828-5.7266 2.3711-3.5547 3.1602-6.7148 6.7148-8.0977 11.457-0.59375 2.1719-1.9766 4.3438-3.3594 6.125-2.9648 4.543-6.3203 9.0859-8.4922 14.223-0.19922 0.59375-0.39844 1.1836-0.59375 2.3711zm-63.605-115.55c-1.1836 0.59375-2.5664 0.98828-3.7539 1.7773-1.7773 1.1836-3.7539 2.3711-4.7422 4.1484-1.7773 2.7656-3.5547 5.332-4.3438 8.6914-0.39453 1.9766-1.582 3.9492-2.9648 5.5312-3.7539 4.3438-6.3203 9.2852-8.6914 14.418-0.19922 0.39453-0.19922 0.98828-0.39453 1.582 10.469-3.3594 18.965-10.074 28.246-14.617-0.19922-7.7031 3.3594-14.418 8.0977-21.727-3.75 0.19531-7.5039 0.19531-11.453 0.19531zm252.84 148.94h-2.7656c-0.78906 0-4.543 0.19922-5.1367 0.39453-5.332 2.3711-10.273 5.332-14.617 9.0859-4.543 3.7539-8.2969 8.0977-11.457 13.434 4.543 0.59375 8.8906 1.1836 13.035 1.582 10.863-7.5078 21.926-13.434 34.566-16.988-3.9453-3.5586-8.0938-5.7305-13.625-7.5078zm23.902 5.5312h12.641c-8.8906-10.863-20.344-15.211-33.977-17.777 7.7031 6.3203 14.617 12.047 21.336 17.777zm-77.828-80.594c0.19922-0.19922 0.19922-0.59375 0.39453-0.78906-2.1719-1.7773-4.3438-3.7539-6.7148-5.5312-5.332-3.7539-11.457-6.125-17.777-7.9023-1.9766-0.59375-4.3438-1.9766-6.5195-0.59375 6.125 5.1367 12.246 10.273 17.777 15.012 4.7422-0.19531 8.6914-0.19531 12.84-0.19531z"/>
  <use x="70" y="589.628906" xlink:href="#w"/>
  <use x="77.25" y="589.628906" xlink:href="#e"/>
  <use x="82.117187" y="589.628906" xlink:href="#b"/>
  <use x="88.816406" y="589.628906" xlink:href="#d"/>
  <use x="95.480469" y="589.628906" xlink:href="#a"/>
  <use x="100.203125" y="589.628906" xlink:href="#b"/>
  <use x="106.902344" y="589.628906" xlink:href="#l"/>
  <use x="117.410156" y="589.628906" xlink:href="#k"/>
  <use x="124.480469" y="589.628906" xlink:href="#j"/>
  <use x="134.355469" y="589.628906" xlink:href="#i"/>
  <use x="138.03125" y="589.628906" xlink:href="#h"/>
  <use x="145.0625" y="589.628906" xlink:href="#v"/>
  <use x="150.941406" y="589.628906" xlink:href="#a"/>
  <use x="155.664062" y="589.628906" xlink:href="#c"/>
  <use x="165.886719" y="589.628906" xlink:href="#u"/>
  <use x="173" y="589.628906" xlink:href="#d"/>
  <use x="179.664062" y="589.628906" xlink:href="#f"/>
  <use x="186.695312" y="589.628906" xlink:href="#a"/>
  <use x="191.417969" y="589.628906" xlink:href="#t"/>
  <use x="194.800781" y="589.628906" xlink:href="#g"/>
  <use x="198.1875" y="589.628906" xlink:href="#g"/>
  <use x="201.574219" y="589.628906" xlink:href="#d"/>
  <use x="208.238281" y="589.628906" xlink:href="#f"/>
  <use x="70" y="599.507812" xlink:href="#s"/>
  <use x="74.296875" y="599.507812" xlink:href="#e"/>
  <use x="79.167969" y="599.507812" xlink:href="#c"/>
  <use x="85.953125" y="599.507812" xlink:href="#r"/>
  <use x="99.683594" y="599.507812" xlink:href="#a"/>
  <use x="104.402344" y="599.507812" xlink:href="#q"/>
  <use x="111.433594" y="599.507812" xlink:href="#b"/>
  <use x="121.570312" y="599.507812" xlink:href="#p"/>
  <use x="129.839844" y="599.507812" xlink:href="#c"/>
  <use x="136.625" y="599.507812" xlink:href="#h"/>
  <use x="143.65625" y="599.507812" xlink:href="#f"/>
  <use x="154.125" y="599.507812" xlink:href="#o"/>
  <use x="161.363281" y="599.507812" xlink:href="#e"/>
  <use x="166.234375" y="599.507812" xlink:href="#c"/>
  <use x="173.019531" y="599.507812" xlink:href="#n"/>
  <use x="176.40625" y="599.507812" xlink:href="#b"/>
  <use x="183.101562" y="599.507812" xlink:href="#m"/>
  <use x="188.957031" y="599.507812" xlink:href="#a"/>
 </g>
</svg>
