<?xml version="1.0" encoding="UTF-8"?>
<svg width="700pt" height="700pt" version="1.1" viewBox="0 0 700 700" xmlns="http://www.w3.org/2000/svg" xmlns:xlink="http://www.w3.org/1999/xlink">
 <defs>
  <symbol id="w" overflow="visible">
   <path d="m6.6094-0.39062c-0.33594 0.17969-0.6875 0.30859-1.0625 0.39062-0.36719 0.09375-0.75 0.14062-1.1562 0.14062-1.1992 0-2.1523-0.33203-2.8594-1-0.69922-0.67578-1.0469-1.5859-1.0469-2.7344 0-1.1445 0.34766-2.0508 1.0469-2.7188 0.70703-0.67578 1.6602-1.0156 2.8594-1.0156 0.40625 0 0.78906 0.046875 1.1562 0.14062 0.375 0.085938 0.72656 0.21484 1.0625 0.39062v1.5c-0.34375-0.23828-0.68359-0.41016-1.0156-0.51562-0.33594-0.11328-0.68359-0.17188-1.0469-0.17188-0.66797 0-1.1953 0.21484-1.5781 0.64062-0.375 0.42969-0.5625 1.0117-0.5625 1.75 0 0.74219 0.1875 1.3242 0.5625 1.75 0.38281 0.42969 0.91016 0.64062 1.5781 0.64062 0.36328 0 0.71094-0.050781 1.0469-0.15625 0.33203-0.11328 0.67188-0.28906 1.0156-0.53125z"/>
  </symbol>
  <symbol id="e" overflow="visible">
   <path d="m4.8438-3.9375c-0.15625-0.0625-0.30859-0.10938-0.45312-0.14062-0.14844-0.039063-0.29688-0.0625-0.45312-0.0625-0.4375 0-0.77734 0.14844-1.0156 0.4375-0.24219 0.28125-0.35938 0.6875-0.35938 1.2188v2.4844h-1.7344v-5.4062h1.7344v0.89062c0.21875-0.35156 0.46875-0.60938 0.75-0.76562 0.28906-0.16406 0.64062-0.25 1.0469-0.25 0.050781 0 0.10938 0.007812 0.17188 0.015625 0.070312 0 0.17578 0.011719 0.3125 0.03125z"/>
  </symbol>
  <symbol id="b" overflow="visible">
   <path d="m6.2188-2.7188v0.5h-4.0312c0.039062 0.40625 0.1875 0.71484 0.4375 0.92188 0.25 0.19922 0.59766 0.29688 1.0469 0.29688 0.36328 0 0.73438-0.050781 1.1094-0.15625 0.38281-0.11328 0.78125-0.28125 1.1875-0.5v1.3281c-0.40625 0.15625-0.82031 0.27344-1.2344 0.34375-0.40625 0.082031-0.8125 0.125-1.2188 0.125-0.98047 0-1.7422-0.24219-2.2812-0.73438-0.54297-0.5-0.8125-1.2031-0.8125-2.1094 0-0.875 0.26562-1.5625 0.79688-2.0625 0.53125-0.50781 1.2656-0.76562 2.2031-0.76562 0.84375 0 1.5195 0.25781 2.0312 0.76562 0.50781 0.51172 0.76562 1.1953 0.76562 2.0469zm-1.7656-0.5625c0-0.33203-0.10156-0.59766-0.29688-0.79688-0.1875-0.20703-0.4375-0.3125-0.75-0.3125-0.33594 0-0.60547 0.10156-0.8125 0.29688-0.21094 0.1875-0.33984 0.46094-0.39062 0.8125z"/>
  </symbol>
  <symbol id="d" overflow="visible">
   <path d="m3.25-2.4375c-0.36719 0-0.63672 0.0625-0.8125 0.1875-0.17969 0.125-0.26562 0.30859-0.26562 0.54688 0 0.21875 0.070313 0.39062 0.21875 0.51562 0.14453 0.125 0.34766 0.1875 0.60938 0.1875 0.32031 0 0.59375-0.11328 0.8125-0.34375 0.21875-0.23828 0.32812-0.53516 0.32812-0.89062v-0.20312zm2.6406-0.64062v3.0781h-1.75v-0.79688c-0.23047 0.32422-0.49219 0.5625-0.78125 0.71875-0.28125 0.14453-0.63281 0.21875-1.0469 0.21875-0.5625 0-1.0234-0.16016-1.375-0.48438-0.34375-0.33203-0.51562-0.75781-0.51562-1.2812 0-0.625 0.21875-1.082 0.65625-1.375 0.4375-0.30078 1.1172-0.45312 2.0469-0.45312h1.0156v-0.14062c0-0.26953-0.10938-0.46875-0.32812-0.59375-0.21094-0.13281-0.54297-0.20312-1-0.20312-0.36719 0-0.71094 0.042969-1.0312 0.125-0.3125 0.074219-0.60938 0.18359-0.89062 0.32812v-1.3125c0.375-0.09375 0.74219-0.16016 1.1094-0.20312 0.375-0.050781 0.75-0.078125 1.125-0.078125 0.97656 0 1.6797 0.19531 2.1094 0.57812 0.4375 0.38672 0.65625 1.0117 0.65625 1.875z"/>
  </symbol>
  <symbol id="a" overflow="visible">
   <path d="m2.7188-6.9375v1.5312h1.7812v1.2344h-1.7812v2.2969c0 0.25 0.046875 0.42188 0.14062 0.51562 0.10156 0.085937 0.30078 0.125 0.59375 0.125h0.89062v1.2344h-1.4844c-0.67969 0-1.1641-0.14062-1.4531-0.42188-0.28125-0.28906-0.42188-0.77344-0.42188-1.4531v-2.2969h-0.85938v-1.2344h0.85938v-1.5312z"/>
  </symbol>
  <symbol id="l" overflow="visible">
   <path d="m4.5-4.6094v-2.8906h1.7344v7.5h-1.7344v-0.78125c-0.24219 0.32422-0.50781 0.55859-0.79688 0.70312-0.28125 0.14453-0.60938 0.21875-0.98438 0.21875-0.66797 0-1.2148-0.26562-1.6406-0.79688-0.42969-0.53125-0.64062-1.2109-0.64062-2.0469 0-0.82031 0.21094-1.5 0.64062-2.0312 0.42578-0.53125 0.97266-0.79688 1.6406-0.79688 0.375 0 0.70312 0.078125 0.98438 0.23438 0.28906 0.14844 0.55469 0.375 0.79688 0.6875zm-1.1406 3.5c0.375 0 0.65625-0.13281 0.84375-0.40625 0.19531-0.26953 0.29688-0.66406 0.29688-1.1875 0-0.50781-0.10156-0.89844-0.29688-1.1719-0.1875-0.26953-0.46875-0.40625-0.84375-0.40625-0.36719 0-0.64844 0.13672-0.84375 0.40625-0.1875 0.27344-0.28125 0.66406-0.28125 1.1719 0 0.52344 0.09375 0.91797 0.28125 1.1875 0.19531 0.27344 0.47656 0.40625 0.84375 0.40625z"/>
  </symbol>
  <symbol id="k" overflow="visible">
   <path d="m3.7031-1.1094c0.36328 0 0.64453-0.13281 0.84375-0.40625 0.19531-0.26953 0.29688-0.66406 0.29688-1.1875 0-0.50781-0.10156-0.89844-0.29688-1.1719-0.19922-0.26953-0.48047-0.40625-0.84375-0.40625-0.36719 0-0.64844 0.13672-0.84375 0.40625-0.19922 0.27344-0.29688 0.66406-0.29688 1.1719 0 0.52344 0.097656 0.91797 0.29688 1.1875 0.19531 0.27344 0.47656 0.40625 0.84375 0.40625zm-1.1406-3.5c0.22656-0.3125 0.48828-0.53906 0.78125-0.6875 0.28906-0.15625 0.625-0.23438 1-0.23438 0.66406 0 1.2109 0.26562 1.6406 0.79688 0.42578 0.53125 0.64062 1.2109 0.64062 2.0312 0 0.83594-0.21484 1.5156-0.64062 2.0469-0.42969 0.53125-0.97656 0.79688-1.6406 0.79688-0.375 0-0.71094-0.074219-1-0.21875-0.29297-0.15625-0.55469-0.39062-0.78125-0.70312v0.78125h-1.7344v-7.5h1.7344z"/>
  </symbol>
  <symbol id="j" overflow="visible">
   <path d="m0.125-5.4062h1.7188l1.4531 3.6719 1.2344-3.6719h1.7344l-2.2812 5.9219c-0.23047 0.59375-0.49609 1.0078-0.79688 1.25-0.30469 0.23828-0.70312 0.35938-1.2031 0.35938h-1v-1.125h0.54688c0.28906 0 0.50391-0.046875 0.64062-0.14062 0.13281-0.09375 0.23828-0.26172 0.3125-0.5l0.046875-0.15625z"/>
  </symbol>
  <symbol id="i" overflow="visible">
   <path d="m0.90625-7.2031h1.8594v6.5c0 0.89453-0.24609 1.5664-0.73438 2.0156-0.49219 0.44531-1.2266 0.67188-2.2031 0.67188h-0.375v-1.4062h0.28125c0.38281 0 0.67578-0.10938 0.875-0.32812 0.19531-0.21875 0.29688-0.53516 0.29688-0.95312z"/>
  </symbol>
  <symbol id="h" overflow="visible">
   <path d="m0.76562-2.1094v-3.2969h1.7344v0.54688 1.1094 0.875c0 0.4375 0.007812 0.75 0.03125 0.9375 0.019531 0.1875 0.054688 0.32812 0.10938 0.42188 0.070313 0.11719 0.16406 0.20312 0.28125 0.26562 0.11328 0.054688 0.24219 0.078125 0.39062 0.078125 0.36328 0 0.64453-0.13281 0.84375-0.40625 0.20703-0.28125 0.3125-0.66406 0.3125-1.1562v-2.6719h1.7344v5.4062h-1.7344v-0.78125c-0.26172 0.3125-0.53906 0.54688-0.82812 0.70312-0.28125 0.14453-0.60156 0.21875-0.95312 0.21875-0.625 0-1.1055-0.1875-1.4375-0.5625-0.32422-0.38281-0.48438-0.94531-0.48438-1.6875z"/>
  </symbol>
  <symbol id="v" overflow="visible">
   <path d="m5.0469-5.2344v1.3125c-0.36719-0.15625-0.71875-0.26953-1.0625-0.34375-0.34375-0.082031-0.67188-0.125-0.98438-0.125-0.32422 0-0.57031 0.042969-0.73438 0.125-0.15625 0.085937-0.23438 0.21484-0.23438 0.39062 0 0.13672 0.054688 0.24219 0.17188 0.3125 0.125 0.074219 0.34375 0.125 0.65625 0.15625l0.3125 0.046875c0.88281 0.11719 1.4766 0.30469 1.7812 0.5625 0.30078 0.25 0.45312 0.65234 0.45312 1.2031 0 0.57422-0.21484 1.0078-0.64062 1.2969-0.41797 0.29297-1.0469 0.4375-1.8906 0.4375-0.35547 0-0.72656-0.03125-1.1094-0.09375-0.375-0.050781-0.76562-0.13281-1.1719-0.25v-1.3125c0.34375 0.16797 0.69141 0.29688 1.0469 0.39062 0.36328 0.085938 0.73438 0.125 1.1094 0.125 0.34375 0 0.59766-0.046875 0.76562-0.14062 0.16406-0.09375 0.25-0.23438 0.25-0.42188 0-0.15625-0.058594-0.26953-0.17188-0.34375-0.11719-0.070312-0.35156-0.12891-0.70312-0.17188l-0.29688-0.046875c-0.77344-0.09375-1.3125-0.26953-1.625-0.53125-0.30469-0.25781-0.45312-0.65625-0.45312-1.1875 0-0.57031 0.19141-0.99219 0.57812-1.2656 0.39453-0.28125 1-0.42188 1.8125-0.42188 0.3125 0 0.64453 0.027344 1 0.078125 0.35156 0.042969 0.73438 0.11719 1.1406 0.21875z"/>
  </symbol>
  <symbol id="c" overflow="visible">
   <path d="m3.4062-4.2969c-0.38672 0-0.68359 0.14062-0.89062 0.42188-0.19922 0.27344-0.29688 0.66406-0.29688 1.1719 0 0.52344 0.097656 0.92188 0.29688 1.2031 0.20703 0.27344 0.50391 0.40625 0.89062 0.40625 0.375 0 0.66016-0.13281 0.85938-0.40625 0.19531-0.28125 0.29688-0.67969 0.29688-1.2031 0-0.50781-0.10156-0.89844-0.29688-1.1719-0.19922-0.28125-0.48438-0.42188-0.85938-0.42188zm0-1.2344c0.92578 0 1.6484 0.25 2.1719 0.75 0.51953 0.5 0.78125 1.1953 0.78125 2.0781 0 0.89844-0.26172 1.5938-0.78125 2.0938-0.52344 0.5-1.2461 0.75-2.1719 0.75-0.9375 0-1.6719-0.25-2.2031-0.75-0.52344-0.5-0.78125-1.1953-0.78125-2.0938 0-0.88281 0.25781-1.5781 0.78125-2.0781 0.53125-0.5 1.2656-0.75 2.2031-0.75z"/>
  </symbol>
  <symbol id="u" overflow="visible">
   <path d="m5.9219-6.9688v1.5156c-0.39844-0.17578-0.78906-0.30469-1.1719-0.39062-0.375-0.09375-0.73047-0.14062-1.0625-0.14062-0.4375 0-0.76562 0.0625-0.98438 0.1875-0.21094 0.11719-0.3125 0.30469-0.3125 0.5625 0 0.19922 0.070313 0.35156 0.21875 0.45312 0.14453 0.10547 0.40625 0.19922 0.78125 0.28125l0.78125 0.15625c0.80078 0.15625 1.3672 0.40234 1.7031 0.73438 0.34375 0.32422 0.51562 0.78906 0.51562 1.3906 0 0.80469-0.24219 1.3984-0.71875 1.7812-0.46875 0.38672-1.1836 0.57812-2.1406 0.57812-0.46094 0-0.91797-0.046875-1.375-0.14062-0.46094-0.082031-0.92188-0.20703-1.3906-0.375v-1.5625c0.46875 0.24219 0.91406 0.42188 1.3438 0.54688 0.42578 0.125 0.83594 0.1875 1.2344 0.1875 0.40625 0 0.71094-0.066406 0.92188-0.20312 0.21875-0.13281 0.32812-0.32812 0.32812-0.57812 0-0.22656-0.074219-0.39844-0.21875-0.51562-0.14844-0.125-0.4375-0.23438-0.875-0.32812l-0.71875-0.17188c-0.71875-0.14453-1.2461-0.38281-1.5781-0.71875-0.33594-0.34375-0.5-0.80078-0.5-1.375 0-0.71875 0.22656-1.2695 0.6875-1.6562 0.46875-0.38281 1.1406-0.57812 2.0156-0.57812 0.39453 0 0.80078 0.03125 1.2188 0.09375 0.41406 0.054687 0.84766 0.14062 1.2969 0.26562z"/>
  </symbol>
  <symbol id="f" overflow="visible">
   <path d="m6.2656-3.2812v3.2812h-1.75v-2.5156c0-0.46875-0.011719-0.78906-0.03125-0.96875-0.023437-0.17578-0.054687-0.30469-0.09375-0.39062-0.074219-0.11328-0.16797-0.20312-0.28125-0.26562-0.11719-0.0625-0.24609-0.09375-0.39062-0.09375-0.36719 0-0.65234 0.14062-0.85938 0.42188-0.19922 0.28125-0.29688 0.66797-0.29688 1.1562v2.6562h-1.7344v-5.4062h1.7344v0.79688c0.25781-0.3125 0.53516-0.53906 0.82812-0.6875 0.28906-0.15625 0.61328-0.23438 0.96875-0.23438 0.625 0 1.0977 0.19531 1.4219 0.57812 0.32031 0.375 0.48438 0.93359 0.48438 1.6719z"/>
  </symbol>
  <symbol id="t" overflow="visible">
   <path d="m0.82812-5.4062h1.7344v5.4062h-1.7344zm0-2.0938h1.7344v1.4062h-1.7344z"/>
  </symbol>
  <symbol id="g" overflow="visible">
   <path d="m0.82812-7.5h1.7344v7.5h-1.7344z"/>
  </symbol>
  <symbol id="s" overflow="visible">
   <path d="m4.3906-7.5v1.125h-0.96875c-0.24219 0-0.41406 0.046875-0.51562 0.14062-0.09375 0.085937-0.14062 0.23438-0.14062 0.45312v0.375h1.4844v1.2344h-1.4844v4.1719h-1.7188v-4.1719h-0.85938v-1.2344h0.85938v-0.375c0-0.58203 0.16016-1.0156 0.48438-1.2969 0.33203-0.28125 0.84375-0.42188 1.5312-0.42188z"/>
  </symbol>
  <symbol id="r" overflow="visible">
   <path d="m5.8281-4.5c0.21875-0.33203 0.47656-0.58594 0.78125-0.76562 0.30078-0.17578 0.63281-0.26562 1-0.26562 0.61328 0 1.082 0.19531 1.4062 0.57812 0.33203 0.375 0.5 0.93359 0.5 1.6719v3.2812h-1.75v-2.8125c0.007813-0.039062 0.015625-0.082031 0.015625-0.125v-0.20312c0-0.38281-0.058594-0.66016-0.17188-0.82812-0.11719-0.17578-0.29688-0.26562-0.54688-0.26562-0.32422 0-0.57422 0.13672-0.75 0.40625-0.17969 0.27344-0.27344 0.66406-0.28125 1.1719v2.6562h-1.7344v-2.8125c0-0.60156-0.054687-0.98828-0.15625-1.1562-0.10547-0.17578-0.28906-0.26562-0.54688-0.26562-0.33594 0-0.58984 0.14062-0.76562 0.42188-0.17969 0.27344-0.26562 0.65625-0.26562 1.1562v2.6562h-1.75v-5.4062h1.75v0.79688c0.20703-0.30078 0.44531-0.53125 0.71875-0.6875 0.28125-0.15625 0.58203-0.23438 0.90625-0.23438 0.375 0 0.70312 0.09375 0.98438 0.28125 0.28906 0.17969 0.50781 0.42969 0.65625 0.75z"/>
  </symbol>
  <symbol id="q" overflow="visible">
   <path d="m6.2656-3.2812v3.2812h-1.75v-2.5c0-0.47656-0.011719-0.80469-0.03125-0.98438-0.023437-0.17578-0.054687-0.30469-0.09375-0.39062-0.074219-0.11328-0.16797-0.20312-0.28125-0.26562-0.11719-0.0625-0.24609-0.09375-0.39062-0.09375-0.36719 0-0.65234 0.14062-0.85938 0.42188-0.19922 0.28125-0.29688 0.66797-0.29688 1.1562v2.6562h-1.7344v-7.5h1.7344v2.8906c0.25781-0.3125 0.53516-0.53906 0.82812-0.6875 0.28906-0.15625 0.61328-0.23438 0.96875-0.23438 0.625 0 1.0977 0.19531 1.4219 0.57812 0.32031 0.375 0.48438 0.93359 0.48438 1.6719z"/>
  </symbol>
  <symbol id="p" overflow="visible">
   <path d="m0.90625-7.2031h2.0781l2.6094 4.9375v-4.9375h1.7656v7.2031h-2.0781l-2.6094-4.9375v4.9375h-1.7656z"/>
  </symbol>
  <symbol id="o" overflow="visible">
   <path d="m0.90625-7.2031h3.0781c0.91406 0 1.6172 0.20312 2.1094 0.60938 0.48828 0.40625 0.73438 0.99219 0.73438 1.75 0 0.75-0.24609 1.3281-0.73438 1.7344-0.49219 0.40625-1.1953 0.60938-2.1094 0.60938h-1.2188v2.5h-1.8594zm1.8594 1.3438v2.0156h1.0312c0.35156 0 0.62891-0.085938 0.82812-0.26562 0.19531-0.17578 0.29688-0.42188 0.29688-0.73438 0-0.32031-0.10156-0.57031-0.29688-0.75-0.19922-0.17578-0.47656-0.26562-0.82812-0.26562z"/>
  </symbol>
  <symbol id="n" overflow="visible">
   <path d="m0.82812-5.4062h1.7344v5.3125c0 0.71875-0.17969 1.2656-0.53125 1.6406-0.34375 0.38281-0.84375 0.57812-1.5 0.57812h-0.85938v-1.125h0.29688c0.33203 0 0.55469-0.078125 0.67188-0.23438 0.125-0.14844 0.1875-0.43359 0.1875-0.85938zm0-2.0938h1.7344v1.4062h-1.7344z"/>
  </symbol>
  <symbol id="m" overflow="visible">
   <path d="m5.1875-5.2344v1.4062c-0.23047-0.15625-0.46484-0.26953-0.70312-0.34375-0.24219-0.082031-0.48438-0.125-0.73438-0.125-0.48047 0-0.85547 0.14062-1.125 0.42188-0.27344 0.28125-0.40625 0.67188-0.40625 1.1719 0 0.51172 0.13281 0.90625 0.40625 1.1875 0.26953 0.28125 0.64453 0.42188 1.125 0.42188 0.26953 0 0.52344-0.035156 0.76562-0.10938 0.25-0.082031 0.47266-0.20703 0.67188-0.375v1.4219c-0.27344 0.09375-0.54688 0.16406-0.82812 0.21875-0.27344 0.050781-0.54688 0.078125-0.82812 0.078125-0.96875 0-1.7305-0.25-2.2812-0.75-0.55469-0.5-0.82812-1.1953-0.82812-2.0938 0-0.88281 0.27344-1.5781 0.82812-2.0781 0.55078-0.5 1.3125-0.75 2.2812-0.75 0.28125 0 0.55469 0.027344 0.82812 0.078125 0.28125 0.054687 0.55469 0.125 0.82812 0.21875z"/>
  </symbol>
 </defs>
 <g>
  <path d="m571.53 315.06c-1.3828 3.3594-2.5664 6.7148-5.332 9.0859-0.78906 0.78906-0.78906 1.582-0.59375 2.5664 0.78906 5.5312-1.7773 9.875-7.3086 10.863-5.332 0.98828-10.469 0.59375-15.801 0.39453-0.78906 0-1.3828-0.39453-2.1719-0.39453-5.7266-0.39453-11.457-0.39453-17.184-0.78906-4.543-0.39453-9.0859-0.78906-13.434-1.3828-2.9648-0.19922-5.9258-0.59375-8.8906-0.78906-4.1484-0.39453-8.2969-0.98828-12.445-1.3828-3.9492-0.39453-8.0977-0.78906-12.246-1.3828 0.19922 0.39453 0.39453 0.98828 0.59375 1.3828 0.78906 2.5664 1.1836 5.5312 2.3711 7.7031 1.3828 2.1719 3.7539 3.3594 5.5312 5.1367 3.9492 4.1484 6.7148 11.852 2.9648 19.16-1.1836 2.1719-1.3828 4.1484-0.59375 6.7148 1.3828 4.1484-0.19922 8.0977-3.7539 10.273-1.7773 0.98828-3.7539 1.9766-5.5312 2.3711-8.0977 1.7773-16 3.5547-24.098 5.1367-9.0859 1.7773-18.172 3.5547-27.457 5.1367-5.9258 0.98828-11.852 1.582-17.777 2.5664-6.7148 0.98828-13.434 1.9766-20.148 2.7656-5.9258 0.78906-11.852 1.1836-17.777 1.7773-3.9492 0.39453-8.0977 0.78906-12.051 1.1836h-0.98828c-3.7539 0.19922-7.7031 0.59375-11.457 0.78906-8.4922 0.39453-16.988 0.59375-25.48 0.78906-1.9766 0-3.3594 0.59375-4.543 2.1719-3.1602 4.3438-7.9023 5.9258-12.84 6.7148-2.9648 0.39453-5.9258 0.98828-8.8906 0-2.7656-0.78906-4.9375-2.3711-6.125-5.1367-0.78906-2.1719-1.9766-4.3438-2.5664-6.5195-1.582-5.9258-1.9766-11.656 0.78906-17.383 0.59375-1.3828 0.98828-2.5664 0.59375-4.1484-0.78906-2.9648 0.19922-5.9258 1.582-8.4922 0.39453-0.78906 0.98828-1.3828 1.3828-2.1719 0.98828-1.9766 0.59375-2.9648-1.7773-2.9648-3.1602 0.19922-6.125 0.59375-9.2852 0.78906-5.332 0.39453-10.668 0.98828-16 1.3828-5.5312 0.39453-10.863 0.98828-16.395 1.3828-6.3203 0.19922-12.641 0.19922-18.965 0.19922-2.1719 0-3.9492 0.19922-5.332 2.5664-1.3828 2.3711-3.9492 3.9492-6.5195 4.9375-5.1367 1.9766-10.469 3.1602-16.199 1.3828-1.9766-0.59375-3.7539-1.7773-4.543-3.9492-1.1836-2.9648-2.5664-5.9258-3.5547-8.8906-1.582-5.5312-1.3828-11.062 1.1836-16.395 0.59375-1.1836 0.78906-2.5664 0.59375-3.9492-0.19922-3.9492 0.19922-7.7031 2.9648-10.863 0.39453-0.39453 0.59375-1.3828 0.59375-1.9766 0.39453-2.5664 0.59375-5.1367 0.78906-7.7031 0.39453-4.1484 2.1719-7.3086 5.5312-9.4805 1.7773-1.1836 3.7539-2.1719 5.5312-3.3594 0.39453-0.19922 0.59375-0.78906 0.98828-1.3828-0.39453 0-0.98828-0.19922-1.3828-0.19922-2.7656 0.98828-5.7266 1.9766-8.4922 2.9648-7.9023 2.5664-16 5.1367-24.098 7.3086-1.7773 0.39453-2.7656 1.1836-3.3594 2.7656-2.3711 6.3203-12.445 11.852-19.359 10.668-1.1836-0.19922-2.7656-0.78906-3.3594-1.582-2.7656-3.5547-5.7266-6.9141-7.3086-11.457-0.98828-2.9648-0.98828-6.125-0.59375-9.2852 0.39453-2.9648-0.39453-5.332-1.3828-7.7031v-3.7539c1.582-2.5664 1.7773-5.332 0.98828-8.0977-1.3828-6.3203-0.78906-12.051 4.7422-16.395 1.7773-1.3828 2.1719-2.9648 1.9766-5.1367-0.39453-3.5547 0.59375-6.7148 2.5664-9.4805 1.582-1.9766 2.1719-4.1484 1.7773-6.5195-0.19922-0.98828 0-1.9766 0-2.9648-0.19922-2.9648 0.98828-5.332 3.1602-7.1094 0.98828-0.98828 2.3711-1.7773 3.5547-2.5664 1.9766-1.1836 2.9648-2.5664 2.7656-5.1367-0.39453-3.5547 1.3828-6.125 4.1484-7.7031 1.9766-1.1836 4.3438-2.1719 6.5195-2.9648 1.582-0.59375 2.7656-1.3828 2.9648-3.1602 0.39453-3.5547 2.3711-5.332 5.332-6.3203 2.3711-0.78906 5.1367-1.1836 7.7031-1.582 1.3828-0.19922 2.1719-0.39453 2.7656-1.7773 1.582-3.1602 4.1484-5.1367 7.5078-5.9258 2.3711-0.59375 4.7422-0.98828 6.9141-1.3828 1.582-0.39453 3.3594-0.19922 4.543-1.582 3.3594-3.9492 7.7031-4.543 12.445-3.1602 1.582 0.39453 2.3711 0.19922 3.5547-0.78906 2.7656-2.5664 5.9258-3.3594 9.4805-3.3594 3.5547 0 6.3203 1.7773 9.2852 3.5547 0-0.39453 0.19922-0.78906 0.19922-1.1836 0.19922-4.7422 2.3711-8.2969 6.9141-9.875 0.78906-0.19922 1.582-0.78906 2.3711-0.98828 1.582-0.39453 2.1719-1.3828 2.3711-3.1602 0.59375-4.543 3.3594-7.3086 7.5078-8.4922 1.7773-0.39453 3.5547-1.1836 5.1367-1.1836 1.9766 0 2.9648-0.59375 3.3594-2.7656 0.59375-2.3711 2.3711-4.1484 4.7422-4.7422 2.9648-0.78906 5.9258-1.3828 8.8906-0.59375 1.7773 0.59375 2.9648-0.19922 3.9492-1.3828 2.5664-3.1602 5.7266-4.1484 9.4805-4.1484h6.9141c1.582 0 2.9648-0.19922 4.3438-1.1836 3.1602-2.3711 6.7148-2.5664 10.273-0.98828 2.5664 1.1836 4.543 1.582 6.9141-0.39453 0.59375-0.39453 1.1836-0.59375 1.7773-0.98828h7.1094c2.3711 1.582 4.9375 2.7656 6.9141 4.543 1.9766 1.9766 3.7539 2.5664 6.125 1.7773 3.5547-1.1836 6.3203 0.19922 8.8906 2.3711 1.582 1.3828 2.7656 3.1602 4.1484 4.7422 0.59375 0.59375 0.98828 1.7773 1.582 1.7773 1.582 0.39453 3.3594 0.39453 4.9375 0.19922 0.98828-0.19922 1.7773-0.98828 2.5664-1.7773 1.582-1.7773 3.3594-3.3594 5.7266-3.7539 4.1484-0.98828 8.4922-1.582 12.84-0.59375 1.582 0.39453 2.7656 0 3.9492-0.98828 2.3711-2.1719 5.332-2.7656 8.2969-2.5664 2.1719 0 3.9492 0.78906 5.7266 1.7773 1.1836 0.59375 2.1719 0.59375 3.3594-0.19922 7.3086-4.7422 15.406-2.5664 20.344 3.3594 1.582 1.9766 3.1602 2.1719 5.1367 1.582 3.9492-1.1836 7.3086-0.39453 10.469 2.1719 1.582 1.3828 3.1602 2.7656 4.1484 4.543 1.582 2.3711 3.3594 3.5547 5.9258 4.1484 5.9258 1.3828 10.863 4.3438 14.023 10.074 0.39453 0.78906 1.3828 1.3828 2.1719 1.7773 7.1094 2.5664 11.258 8.2969 13.434 15.406 0.59375 1.7773 1.3828 2.7656 2.7656 3.9492 2.3711 1.9766 4.9375 3.7539 6.5195 6.3203 1.582 2.5664 3.3594 4.543 5.5312 6.7148 1.3828 1.3828 2.7656 1.7773 4.543 1.1836 4.1484-1.1836 7.9023 0 11.457 2.3711 2.9648 2.1719 4.9375 5.1367 6.3203 8.4922 0.59375 1.3828 1.1836 2.1719 2.7656 2.1719 5.332 0.39453 9.2852 2.7656 11.656 7.9023 0.59375 1.1836 1.3828 2.5664 1.3828 3.7539 0.19922 2.9648 2.1719 4.3438 4.3438 5.7266 4.7422 2.9648 8.2969 7.1094 9.6797 12.84 0.39453 1.9766 1.582 3.3594 2.7656 4.543 1.1836 1.1836 2.3711 2.3711 3.3594 3.9492 2.7656 3.9492 3.7539 8.4922 3.7539 13.434 0 1.3828 0 3.1602 0.59375 4.1484 2.3711 3.1602 4.1484 6.5195 5.7266 10.273 0.57812 2.3828 0.57812 4.9492 0.57812 7.3203zm-99.359 44.047c1.582 2.9648 2.9648 5.9258 4.543 8.6914 0.78906 1.582 1.7773 2.9648 2.5664 4.543 0.19922 0.39453 0 1.582-0.59375 1.7773-0.39453 0.19922-1.3828 0-1.7773-0.39453-0.78906-0.78906-1.1836-1.7773-1.7773-2.7656-2.1719-4.3438-4.543-8.4922-6.5195-12.84-2.7656-5.9258-5.332-11.852-8.2969-17.777-2.7656-5.7266-6.3203-10.668-11.656-13.828-4.1484-2.5664-8.4922-4.7422-12.641-6.9141-6.125-3.1602-12.445-6.125-18.766-9.4805-6.7148-3.5547-13.828-5.1367-21.531-4.7422-1.582 0-3.3594 0.39453-4.9375 0.59375-5.332 0.59375-10.668 0.98828-16 1.7773-3.3594 0.39453-6.7148 1.7773-9.6797 3.7539-4.3438 2.7656-8.8906 5.1367-13.434 7.9023-6.7148 3.9492-12.641 8.2969-16.789 15.211-2.7656 4.7422-6.125 9.2852-8.8906 14.023-1.9766 3.3594-4.1484 6.7148-5.5312 10.469-3.7539 9.4805-7.3086 19.16-11.062 28.641-0.59375 1.3828-0.19922 2.1719 0.78906 2.7656 2.7656 2.1719 4.1484 5.332 5.5312 8.6914 1.1836 2.7656 1.1836 2.7656 3.9492 2.3711 1.1836-0.19922 2.3711 0 3.5547-0.19922 3.5547 0 6.9141 0 10.469-0.19922 6.9141-0.39453 13.828-0.98828 20.742-1.3828 4.1484-0.19922 8.2969-0.39453 12.445-0.78906 6.125-0.59375 12.246-1.3828 18.566-2.1719 8.0977-0.98828 16.199-1.7773 24.098-2.9648 9.6797-1.3828 19.359-2.7656 29.035-4.543 12.246-2.3711 24.492-4.9375 36.742-7.5078 1.9766-0.39453 3.9492-1.1836 5.7266-2.1719 3.1602-1.582 4.3438-4.1484 3.1602-7.7031-2.1562-5.7227-6.3047-9.8711-12.035-12.836zm82.172-47.801c0 1.3828 0 1.9766 0.19922 2.5664 0.98828 3.7539 1.9766 7.5078 2.7656 11.062 0.19922 0.78906 0.59375 1.3828 0.59375 2.1719 0 0.59375-0.39453 1.1836-0.78906 1.3828-0.39453 0.19922-1.1836-0.19922-1.582-0.39453-0.59375-0.78906-0.78906-1.7773-0.98828-2.7656-2.5664-9.0859-4.7422-18.371-5.9258-27.852-1.582-11.062-5.7266-20.742-14.223-27.852-8.2969-7.1094-16.199-14.223-24.492-21.332-2.9648-2.5664-6.3203-4.3438-10.074-5.5312-8.6914-2.7656-17.582-3.7539-26.273-4.9375-3.7539-0.59375-7.7031-0.59375-11.457 0.78906-4.543 1.7773-9.4805 2.7656-14.223 3.9492-7.5078 1.9766-14.816 4.7422-20.543 10.668-1.9766 2.1719-4.1484 3.9492-6.5195 5.9258-8.0977 6.9141-15.012 14.816-20.742 24.098-0.78906 1.3828-2.3711 2.7656-2.3711 3.9492 0.19922 1.7773 2.7656 1.3828 3.9492 2.5664 1.7773 1.582 3.3594 1.1836 5.1367 0.19922 5.1367-2.7656 10.273-1.9766 15.012 1.3828 1.7773 1.3828 3.5547 2.9648 4.9375 4.9375 0.78906 1.1836 1.3828 1.582 2.9648 1.1836 5.7266-1.1836 10.668 0.59375 14.223 5.7266 0.78906 1.1836 1.582 2.1719 2.1719 3.3594 0.78906 1.7773 1.9766 2.3711 3.7539 2.9648 6.125 1.7773 11.258 5.1367 14.418 11.457 0.59375 1.1836 1.3828 1.582 2.3711 1.9766 1.9766 1.1836 3.9492 2.3711 5.5312 3.9492 1.7773 1.582 3.5547 2.3711 5.7266 2.5664 4.9375 0.39453 9.875 0.98828 15.012 1.582 5.7266 0.59375 11.656 1.3828 17.383 1.9766 6.3203 0.59375 12.641 1.1836 18.965 1.3828 8.4922 0.39453 16.988 0.59375 25.48 0.78906 0.98828 0 1.9766-0.19922 2.7656-0.39453 4.3438-0.98828 6.3203-3.9492 5.332-8.4922-1.5742-5.5312-4.1406-10.469-8.4883-15.012zm-197.53-17.582c-3.5547-2.1719-6.3203-4.1484-9.4805-5.7266-8.8906-4.543-17.582-8.8906-26.469-13.035-4.3438-1.9766-8.6914-3.1602-13.434-3.1602-7.7031-0.19922-15.406 0.98828-23.109 1.7773-5.1367 0.59375-9.875 2.1719-14.418 5.1367-3.3594 2.3711-7.1094 3.9492-10.668 6.125-4.1484 2.7656-8.4922 5.5312-12.246 8.8906-2.3711 1.9766-4.1484 4.7422-5.9258 7.5078-5.332 8.0977-11.062 16-14.816 25.086-3.7539 9.2852-7.1094 18.766-10.469 28.051-0.19922 0.59375 0 1.582 0.39453 1.9766 3.1602 2.7656 5.1367 6.3203 6.3203 10.273 0.39453 1.3828 1.3828 1.7773 2.7656 1.7773 3.1602-0.19922 6.5195-0.39453 9.6797-0.59375 5.332-0.19922 10.469-0.39453 15.801-0.78906 7.1094-0.39453 14.223-0.98828 21.332-1.582 5.7266-0.39453 11.457-0.98828 17.184-1.582 1.582-0.19922 1.9766-0.78906 2.1719-2.1719 0.59375-6.9141 4.543-11.258 10.273-13.828 0.19922-0.19922 0.59375-0.19922 0.59375-0.39453 0.39453-0.59375 0.98828-0.98828 1.1836-1.582 0.39453-5.1367 2.9648-9.0859 6.7148-12.246 1.7773-1.582 2.7656-3.3594 2.7656-5.7266 0.19922-3.3594 1.1836-6.7148 3.9492-8.8906 1.7773-1.1836 3.7539-2.1719 5.7266-2.9648 2.3711-0.78906 4.3438-1.582 4.7422-4.7422 0.78906-4.543 4.1484-6.9141 8.0977-7.9023 2.3711-0.59375 4.7422-0.78906 7.1094-0.78906 1.3828 0 2.3711-0.39453 2.9648-1.9766 1.1836-3.5547 3.7539-5.332 7.1094-5.9258 0.99609-0.39844 2.1797-0.59375 4.1562-0.99219zm52.738-110.62c-1.3828 0-3.1602-0.19922-4.9375 0-6.9141 1.1836-13.629 2.3711-20.344 3.5547-4.3438 0.78906-8.4922 2.5664-12.051 5.5312-2.9648 2.3711-6.125 4.3438-9.2852 6.3203-8.2969 5.1367-15.605 11.457-19.949 20.938-1.3828 2.9648-2.9648 5.7266-4.543 8.4922-4.9375 8.2969-8.0977 17.383-10.668 26.863-0.39453 1.3828-0.19922 2.3711 0.98828 3.1602 1.1836 0.98828 2.5664 1.9766 3.3594 3.3594 1.1836 2.1719 2.7656 2.3711 4.9375 1.7773 3.7539-0.98828 6.9141 0 9.6797 2.5664 1.9766 1.7773 3.7539 3.9492 4.9375 6.3203 0.98828 1.7773 2.1719 2.7656 3.9492 3.1602 2.9648 0.78906 5.9258 1.9766 8.2969 4.1484 1.582 1.3828 3.1602 1.1836 4.9375 1.3828 1.7773 0 2.1719-1.3828 2.9648-2.3711 0.59375-0.59375 0.98828-1.3828 1.7773-1.9766 1.582-1.1836 2.3711-2.9648 2.9648-4.9375 0.78906-2.3711 1.7773-4.543 2.7656-6.9141 1.3828-2.9648 3.5547-5.1367 6.7148-6.3203 1.7773-0.59375 3.3594-1.1836 5.1367-1.582 1.3828-0.19922 2.1719-0.78906 2.5664-1.9766 1.3828-4.7422 4.7422-7.7031 8.8906-9.6797 2.1719-0.98828 3.5547-2.5664 4.3438-4.9375 1.582-5.1367 5.1367-9.0859 12.246-8.6914 2.7656 0.19922 4.543-0.78906 5.7266-3.3594 1.9766-3.9492 5.5312-5.5312 9.4805-5.5312 2.1719 0 4.543 0.19922 6.7148 0.98828 2.1719 0.78906 3.1602 0.19922 4.543-1.582 1.582-2.3711 3.9492-3.3594 6.9141-3.1602 3.1602 0 5.9258 0.98828 8.4922 2.3711 1.9766 0.98828 3.7539 1.582 5.9258-0.19922 1.1836-0.98828 2.9648-1.1836 4.3438-1.3828 1.1836-0.19922 1.3828-0.59375 0.78906-1.7773-3.5547-7.1094-7.9023-13.434-14.816-17.184-3.5547-1.9766-7.1094-3.5547-10.668-5.1367-7.7031-3.1602-15.605-6.3203-23.309-9.4805-4.1367-1.7656-8.6797-3.3438-13.816-2.7539zm-177.78 97.383c-2.5664-1.582-3.5547-3.5547-4.543-5.7266-0.59375-1.3828-1.3828-2.5664-1.9766-3.9492-2.3711-5.1367-2.7656-10.469-0.59375-15.801 0.59375-1.3828 0.78906-2.3711 0.39453-3.9492-0.78906-2.7656-0.59375-5.5312 0.98828-7.9023 1.582-2.1719 1.7773-4.543 1.582-7.1094v-2.9648c0.19922-3.5547 0.98828-6.9141 3.9492-9.0859 1.582-1.1836 2.9648-2.3711 4.543-3.5547 0.59375-0.39453 1.1836-0.98828 1.3828-1.582 0.59375-1.582-0.39453-2.7656-2.3711-2.7656-4.1484-0.19922-8.0977-0.19922-12.051 1.1836-6.5195 2.3711-13.035 4.7422-19.555 7.1094-3.7539 1.3828-6.7148 3.7539-9.4805 6.5195-2.5664 2.7656-5.5312 5.5312-8.2969 8.0977-5.5312 5.332-10.469 11.258-12.641 18.965-1.1836 3.9492-2.5664 7.7031-3.9492 11.656-2.5664 7.1094-3.9492 14.418-4.543 22.125-0.59375 5.7266-1.1836 11.258-1.9766 16.988-0.19922 1.7773 0.19922 2.5664 1.7773 3.5547 1.7773 0.98828 3.1602 2.5664 4.543 3.9492 1.1836 1.1836 1.7773 3.1602 2.9648 3.5547 1.3828 0.39453 3.1602-0.59375 4.7422-0.98828 10.273-3.3594 20.543-6.7148 30.816-10.074 1.582-0.59375 2.5664-1.3828 3.5547-2.9648 1.582-2.7656 3.1602-5.5312 5.9258-7.3086 0.98828-0.59375 1.582-1.7773 1.582-3.1602 0-1.1836 0.39453-2.1719 0.59375-3.3594 0.59375-5.332 3.5547-8.4922 8.2969-10.074 1.3789-0.39453 2.7617-0.78906 4.3398-1.3828zm116.54-96.59c-3.7539-1.582-7.7031-3.3594-11.457-5.1367-4.3438-1.9766-8.8906-2.7656-13.629-2.5664-7.7031 0.19922-15.012 2.1719-22.52 3.5547-3.9492 0.78906-7.1094 2.3711-10.273 4.7422-3.1602 2.3711-6.3203 4.543-9.4805 6.5195-7.3086 4.543-13.035 10.469-16.789 18.371-0.59375 1.1836-1.3828 2.3711-1.9766 3.5547-2.5664 4.9375-5.5312 9.6797-7.3086 14.816-3.1602 9.0859-5.7266 18.566-8.6914 28.051-0.19922 0.98828-0.39453 1.7773 0.59375 2.7656 1.7773 1.7773 3.1602 3.5547 4.7422 5.5312 0.59375 0.78906 0.78906 0.78906 1.1836 0 1.3828-2.1719 3.3594-3.3594 5.7266-3.3594 2.9648-0.19922 5.9258 0 8.8906 0.39453 1.7773 0.19922 3.1602 0 4.543-1.3828 1.7773-1.9766 3.9492-3.3594 6.5195-3.5547 3.9492-0.19922 8.0977 0.19922 12.246 0.39453 1.582 0.19922 2.7656 0.19922 4.1484-0.78906 1.9766-1.1836 3.9492-2.3711 6.3203-2.1719 1.1836 0.19922 1.7773-0.59375 1.582-1.7773v-4.1484c0.19922-6.3203 2.3711-11.258 7.9023-14.418 0.78906-0.39453 1.3828-0.98828 2.1719-1.3828 1.1836-0.59375 1.582-1.3828 1.3828-2.7656-0.39453-4.7422 1.9766-8.4922 4.9375-11.457 2.1719-2.1719 2.9648-4.543 2.9648-7.5078 0-5.1367 2.7656-8.4922 7.1094-10.668 0.98828-0.59375 2.1719-0.78906 3.3594-1.1836 1.582-0.59375 2.3711-1.582 2.5664-3.5547 0.39453-4.543 2.9648-7.5078 6.9141-9.0859 1.9766-0.60156 4.3438-1.1953 6.3203-1.7852zm-50.961 227.55c5.9258-0.39453 10.668-1.3828 14.816-4.7422 1.582-1.3828 2.1719-2.7656 1.582-4.9375-1.1836-3.7539-2.7656-7.3086-6.3203-9.6797-0.78906-0.59375-1.582-1.3828-1.9766-2.1719-2.9648-6.7148-8.2969-11.457-12.641-16.988-0.78906-0.98828-1.3828-0.59375-1.9766 0.19922-1.582 2.3711-1.7773 5.1367-0.98828 7.9023 0.39453 1.582 0 2.5664-0.59375 3.7539-2.1719 3.9492-3.1602 8.0977-1.9766 12.445 0.98828 3.5547 2.1719 7.1094 3.5547 10.469 0.39453 0.98828 1.3828 1.9766 2.3711 2.5664 1.5781 0.78906 3.1602 0.98437 4.1484 1.1836zm-104.5-51.754c0.59375 2.5664 0.78906 5.1367 1.582 7.5078 0.59375 1.9766 1.582 3.9492 2.1719 5.9258 0.78906 2.5664 2.5664 3.7539 5.1367 3.9492 2.1719 0 4.3438 0.19922 6.5195-0.19922 3.9492-0.59375 7.5078-1.9766 10.469-4.7422 0.98828-0.98828 1.7773-1.9766 1.1836-3.9492-1.1836-3.7539-2.7656-7.1094-5.7266-9.6797-0.98828-0.78906-1.9766-1.582-2.3711-2.5664-2.5664-5.7266-7.1094-10.074-10.863-14.816-0.78906-0.98828-1.7773-1.9766-2.7656-2.7656-0.78906 1.3828-1.7773 2.5664-2.1719 4.1484-0.39453 1.1836-0.39453 2.7656 0 3.9492 0.39453 1.582 0.39453 2.7656-0.59375 4.1484-1.7773 2.7695-2.3711 5.9297-2.5703 9.0898zm-49.383-43.258c0.19922 1.1836 0.39453 3.3594 1.1836 5.332 1.7773 3.3594 3.7539 6.5195 5.9258 9.6797 0.59375 0.98828 2.3711 1.582 3.3594 1.3828 2.3711-0.19922 4.7422-0.78906 6.9141-1.582 2.9648-1.3828 5.9258-3.1602 7.9023-6.125 0.78906-1.3828 1.1836-2.5664 0.19922-3.9492-1.7773-3.1602-4.1484-5.7266-7.5078-7.1094-0.98828-0.39453-1.9766-1.3828-2.7656-1.9766-0.78906-0.59375-1.1836-1.3828-1.9766-1.9766-3.1602-2.5664-6.3203-4.9375-9.4805-7.3086-0.98828-0.78906-2.3711-2.7656-3.5547-1.582-0.78906 0.78906-0.59375 2.9648-0.78906 4.543 0 0.59375 0.19922 1.1836 0.39453 1.7773 0.98828 1.7773 1.3828 3.5547 0.39453 5.7266-0.19922 0.20312 0 1.3906-0.19922 3.168zm149.73 50.961c0.19922 0.59375 0.59375 1.9766 1.3828 2.9648 3.7539 4.9375 7.7031 9.6797 11.457 14.617 0.78906 1.1836 1.1836 0.78906 1.582-0.19922 1.3828-3.9492 2.7656-7.9023 4.3438-11.852 1.1836-2.7656 2.1719-5.5312-0.78906-7.7031-0.39453-0.19922-0.59375-0.78906-0.78906-1.1836-1.9766-4.3438-4.1484-8.6914-6.125-13.035-0.19922-0.59375-0.39453-1.582-1.582-0.98828-3.7539 2.1719-7.5078 3.9492-8.4922 8.8906-0.39844 2.5625-0.59375 5.1328-0.98828 8.4883zm-80-15.207c1.9766-5.7266 3.9492-11.258 6.125-16.789 0.39453-0.98828-0.19922-1.582-0.59375-2.3711-2.3711-4.3438-4.7422-8.4922-7.1094-12.84-0.78906-1.3828-1.3828-2.7656-1.9766-4.1484-1.582 0.78906-3.1602 1.3828-4.3438 2.3711-2.5664 1.7773-4.7422 3.9492-4.7422 7.3086-0.19922 2.3711-0.39453 4.9375-0.78906 7.3086-0.39453 1.582 0.19922 2.1719 0.98828 3.3594 3.75 5.1328 7.8984 10.27 12.441 15.801zm12.641-90.473c0.19922 5.332 2.9648 9.6797 5.1367 14.223 0.78906 1.582 1.7773 1.3828 2.5664-0.19922 2.1719-4.9375 6.3203-6.7148 11.258-7.1094h4.7422c0.78906 0 0.98828-0.19922 0.59375-0.98828-1.1836-2.7656-2.7656-5.332-5.1367-6.9141-0.78906-0.59375-1.7773-0.98828-2.1719-1.7773-2.7656-5.1367-7.1094-8.6914-10.863-12.84-0.78906-0.78906-1.7773-1.582-2.7656-2.3711-0.59375 1.3828-1.3828 2.5664-1.7773 3.9492-0.19922 0.98828 0.19922 2.1719 0.39453 3.1602 0.39453 1.3828 0.39453 2.7656-0.39453 4.1484-0.98828 1.9805-1.1875 4.5469-1.582 6.7188zm152.89 13.434c0.19922 0.59375 0.19922 0.98828 0.39453 1.3828 1.9766 4.1484 3.9492 8.4922 5.9258 12.641 0.59375 1.3828 1.582 1.3828 2.7656 0.78906 1.582-0.78906 3.1602-1.3828 4.9375-2.1719 0.59375-0.19922 0.98828-0.59375 1.3828-1.1836 1.1836-1.7773 2.3711-3.3594 3.3594-5.1367 0.39453-0.78906 0.59375-1.9766 0.19922-2.7656-2.1719-5.9258-3.9492-12.051-4.1484-18.371 0-0.39453-0.78906-0.98828-0.98828-0.78906-5.5312 1.1836-10.273 3.1602-11.852 9.6797-0.39453 1.3828-0.98828 2.5664-1.3828 3.7539-0.19922 0.78906-0.39844 1.3828-0.59375 2.1719zm-218.67 33.383c0.39453-5.1367 0.98828-10.074 1.3828-15.012 0.19922-1.3828-0.39453-2.3711-1.1836-3.3594-3.3594-3.7539-6.9141-7.7031-10.074-11.656-0.78906-0.98828-1.1836-0.98828-1.9766-0.19922-0.78906 0.78906-1.582 1.582-2.3711 2.3711-2.7656 2.5664-3.1602 5.7266-2.7656 9.2852 0.19922 1.1836 0.39453 2.1719 0.59375 3.3594 0 2.1719 0.98828 3.5547 2.7656 4.9375 4.543 3.3594 8.8867 6.7188 13.629 10.273zm78.023-85.727h-0.59375c-1.9766 0.39453-6.5195 5.1367-6.9141 7.1094-0.39453 2.5664-0.39453 5.1367-0.78906 7.7031-0.19922 1.7773 0.59375 2.9648 1.7773 4.1484 3.5547 3.7539 7.1094 7.7031 10.668 11.656 0.78906 0.78906 1.3828 0.98828 1.7773-0.19922 0.98828-3.3594 1.7773-6.9141 2.9648-10.273 1.1836-3.1602 0.59375-5.332-1.3828-7.9023-2.5664-3.1602-4.3438-7.1094-6.5195-10.668-0.19531-0.58984-0.59375-1.1797-0.98828-1.5742zm197.34 2.5664c-4.7422 0.19922-6.3203 1.3828-8.4922 5.5312-2.5664 4.9375-3.9492 10.074-5.332 15.211-0.39453 1.582-0.59375 3.3594-0.78906 5.1367 0 0.78906 0.59375 1.3828 0.98828 2.1719 0.59375-0.19922 0.98828-0.59375 1.582-0.78906 3.7539-3.3594 7.5078-6.9141 12.246-8.8906 0.98828-0.39453 1.582-1.1836 1.3828-2.3711-0.39453-2.7656 0.78906-5.1367 2.1719-7.3086 0.78906-1.3828 1.7773-2.7656 2.3711-4.1484 1.582-2.9648 1.582-3.1602-1.582-3.7539-1.3867-0.19531-2.9688-0.39453-4.5469-0.78906zm-107.85 101.93c0.39453 2.5664 0.59375 4.9375 0.98828 7.3086 0.19922 0.59375 0.59375 1.1836 0.98828 1.7773 0.59375-0.39453 1.1836-0.78906 1.582-1.1836 2.7656-4.543 5.9258-8.6914 10.074-12.051 0.39453-0.19922 0.59375-0.98828 0.59375-1.1836-1.3828-3.9492 0-7.5078 0.98828-11.258 1.582-5.7266 1.582-5.9258-4.1484-5.332-5.1367 0.59375-8.2969 2.9648-9.0859 7.9023-0.99609 4.7344-1.3906 9.4766-1.9805 14.02zm-80.594-56.098c-1.3828 0.39453-3.5547 0.78906-5.7266 1.3828-2.9648 0.78906-4.7422 2.9648-5.5312 6.125-1.7773 6.9141-1.582 13.828-1.3828 20.742 0 0.78906 0.39453 1.582 0.78906 2.3711 0.39453 1.1836 1.1836 1.1836 1.7773 0.19922 2.9648-4.7422 6.3203-9.2852 10.668-13.035 0.19922-0.19922 0.39453-1.1836 0.19922-1.582-0.98828-1.9766-0.78906-3.7539-0.19922-5.7266 0.78906-2.7656 1.582-5.5312 2.1719-8.2969 0.39453-1.7852 0.19531-2.1797-2.7656-2.1797zm104.3-82.176c0-2.1719 0-2.1719-1.7773-1.9766-1.9766 0.39453-3.9492 0.59375-5.9258 1.1836-3.1602 0.98828-5.332 2.9648-5.9258 6.5195-1.1836 6.5195-0.59375 12.84-0.39453 19.16 0 1.3828 0.59375 2.5664 0.98828 3.9492 0.59375 1.3828 1.1836 1.582 1.9766 0.39453 0.39453-0.59375 0.78906-1.1836 1.1836-1.7773 2.1719-4.1484 4.543-7.9023 7.9023-11.062 0.98828-0.98828 1.3828-1.7773 0.59375-3.1602s-0.78906-2.9648-0.39453-4.7422c0.78516-2.7578 1.1797-5.7227 1.7734-8.4883zm-17.582 18.57h0.19922v-5.1367c0-0.39453-0.59375-1.1836-0.98828-0.98828-3.9492 0.39453-7.5078 3.5547-8.2969 7.7031-0.98828 4.9375-1.3828 9.875 0.39453 14.617 0.98828 2.5664 1.582 5.1367 2.5664 7.7031 0.39453 1.1836 0.78906 2.3711 1.582 3.3594 0.98828 1.582 1.582 1.582 2.5664 0 1.582-2.9648 3.1602-6.125 4.7422-9.0859 0.98828-1.7773 1.3828-3.1602-0.19922-4.9375-0.98828-1.1836-1.3828-2.9648-1.582-4.543-0.39062-3.1602-0.58984-5.9258-0.98438-8.6914zm215.9 80.594c0.78906 4.1484 1.1836 7.9023 1.9766 11.457 0.59375 2.3711 0.19922 4.9375 2.1719 6.9141 4.1484 3.9492 7.7031 8.4922 9.875 14.023 0.39453 1.1836 1.1836 1.1836 1.7773 0.19922 1.582-2.3711 2.7656-4.7422 3.1602-7.7031 0.39453-5.332-1.582-9.6797-4.7422-13.629-3.9492-4.7461-8.8867-7.9062-14.219-11.262zm-142.62-32.199v5.9258c0 0.98828 0.19922 1.9766 0.39453 2.9648 0.59375 1.7773 0.78906 1.9766 2.1719 0.59375 2.3711-2.1719 4.7422-4.543 7.1094-6.7148 1.582-1.3828 2.9648-2.7656 1.582-5.332-0.39453-0.59375-0.19922-1.3828-0.19922-2.1719-0.19922-4.7422 1.3828-9.2852 2.9648-13.629 0.39453-1.1836 0.59375-2.1719 0.98828-3.3594-0.98828 0.19922-1.7773 0.19922-2.7656 0.39453h-1.3828c-3.3594 0.19922-5.9258 1.7773-7.3086 5.1367-0.59375 1.582-0.98828 3.1602-1.7773 4.543-1.3828 2.3711-1.9766 4.9375-1.7773 7.9023v3.7461zm-186.67 44.445c0.98828 5.5312 2.1719 11.062 3.9492 16.395 0 0.19922 0.19922 0.39453 0.39453 0.59375 0.78906 1.1836 1.3828 1.1836 1.9766 0 2.1719-3.3594 4.3438-6.9141 6.5195-10.273 0.59375-0.98828 0.78906-1.7773 0-2.7656-1.7773-2.5664-2.1719-5.5312-2.1719-8.4922 0.19922-3.5547 0.39453-7.1094 0.59375-10.668 0-0.39453-0.39453-1.1836-0.78906-1.3828-3.1602-0.19922-7.9023 3.1602-8.8906 6.5195-0.59375 3.3555-0.98828 6.5195-1.582 10.074zm105.09 21.531v-2.3711c0-0.98828-0.39453-1.3828-1.3828-1.1836-4.1484 0.59375-7.7031 2.9648-8.4922 8.0977-0.19922 1.3828-0.19922 2.7656-0.59375 3.9492-0.78906 2.7656-0.59375 5.332 0 7.9023 0.78906 2.9648 1.3828 5.9258 2.1719 8.8906 0.39453 1.582 0.98828 2.9648 1.7773 4.3438 0.39453 0.78906 1.1836 0.78906 1.7773 0 2.3711-3.7539 4.7422-7.5078 6.9141-11.258 0.19922-0.39453 0.19922-1.1836 0-1.582-2.7656-4.3438-2.9648-9.2852-2.3711-14.223 0.19922-0.78906 0.19922-1.7773 0.19922-2.5664zm161.19 36.543c0-5.7266-2.5664-9.6797-6.3203-12.84-4.9375-3.9492-10.668-6.125-16.395-7.9023-0.39453 0-0.98828 0-0.98828 0.19922-0.19922 0.39453-0.19922 0.98828 0 1.3828 1.7773 4.1484 3.5547 8.0977 5.332 12.246 0.59375 1.3828 1.582 1.9766 2.7656 2.7656 4.1484 2.1719 7.7031 5.1367 10.668 8.6914 0.78906 0.98828 1.7773 1.9766 2.5664 2.9648 0.59375-1.3828 1.3828-2.7656 1.7773-4.1484 0.59375-1.582 0.39453-2.7695 0.59375-3.3594zm-181.14-109.83v2.9648c0 3.5547 3.5547 5.9258 6.7148 4.3438 3.5547-1.7773 7.3086-2.1719 11.062-1.1836 1.3828 0.39453 1.7773-0.39453 1.9766-1.3828 0.39453-1.1836-0.19922-1.7773-0.78906-2.5664-3.5547-4.543-6.5195-9.4805-9.0859-14.617-0.98828-1.9766-0.98828-1.9766-2.7656-0.78906-0.98828 0.59375-1.7773 1.3828-2.5664 1.7773-2.9648 1.9766-4.3438 4.9375-4.3438 8.4922-0.20312 0.98438-0.20312 1.9727-0.20312 2.9609zm-142.02-8.2969c0.78906 4.543 1.582 9.2852 2.5664 13.828 0.39453 1.582 0.98828 3.3594 1.7773 4.7422 0.19922 0.59375 0.78906 0.78906 1.1836 1.1836 0.39453-0.39453 0.78906-0.98828 0.98828-1.3828 1.582-4.3438 2.9648-8.8906 5.9258-12.641 0.59375-0.78906 0.39453-1.3828 0-2.3711-1.582-2.5664-1.582-5.332-1.1836-8.2969 0.19922-1.9766 0.19922-3.9492 0.19922-5.9258-1.7773 0.59375-3.5547 0.98828-5.332 1.7773-3.9531 1.7773-6.3242 4.3477-6.125 9.0859zm95.012-44.246h0.39453v6.3203c0 1.3828 0.39453 2.9648 0.78906 4.3438 0.19922 0.59375 0.78906 1.1836 0.98828 1.7773 0.39453-0.39453 0.98828-0.98828 1.3828-1.582 2.3711-3.3594 4.3438-6.7148 6.9141-9.875 1.1836-1.3828 2.1719-2.5664 0.98828-4.3438-0.39453-0.59375-0.39453-1.582-0.19922-2.5664 0.39453-2.7656 1.1836-5.5312 1.582-8.2969 0.19922-1.582 0-1.9766-1.582-1.9766-2.5664-0.19922-4.9375 0.78906-7.3086 1.9766-1.582 0.78906-2.9648 2.1719-3.1602 4.3438-0.19922 3.1641-0.59375 6.5195-0.78906 9.8789zm-2.7656 0.98828v-3.7539c0-0.39453-0.39453-0.98828-0.59375-0.98828-3.7539 0.19922-7.5078 4.1484-7.7031 7.9023-0.19922 2.1719-0.39453 4.3438-0.59375 6.7148 0 0.59375 0.19922 1.1836 0.39453 1.7773 0.98828 3.5547 1.9766 7.1094 3.1602 10.668 0.39453 1.1836 0.98828 2.1719 1.7773 3.1602 0.59375 0.98828 0.98828 1.3828 1.7773 0 1.7773-3.3594 3.5547-6.7148 5.1367-10.074 0.19922-0.39453 0.19922-0.98828 0-1.3828-3.1602-4.1484-3.1602-9.0859-3.3555-14.023zm-94.816 48c-0.39453 0.19922-0.59375 0.19922-0.78906 0.39453-4.3438 2.5664-6.5195 5.5312-5.332 10.469 0.19922 0.78906 0.59375 1.7773 0.39453 2.5664-0.39453 2.9648 0.78906 5.5312 2.1719 8.0977 0.98828 1.9766 1.9766 3.9492 3.1602 5.9258 0.59375 1.1836 1.582 2.1719 2.3711 3.1602 0.59375 0.78906 1.1836 0.59375 1.582-0.39453 0.98828-2.9648 1.7773-6.125 2.9648-9.0859 0.78906-1.9766 0.98828-3.1602-0.98828-4.543-0.78906-0.59375-1.3828-1.7773-1.7773-2.7656-0.98828-3.1602-1.7773-6.3203-2.5664-9.6797-0.19922-0.98828-0.39453-2.1719-0.78906-3.1602 0.19141-0.58984-0.20312-0.78906-0.40234-0.98438zm333.04-7.5078c5.5312 1.3828 10.469 2.7656 14.816 5.7266 0.39453 0.19922 1.1836 0.39453 1.582 0.19922 3.7539-0.78906 7.3086-1.7773 11.062-2.7656 0.78906-0.19922 0.98828-0.78906 0.59375-1.3828-1.582-3.7539-6.125-9.4805-12.051-8.8906-4.9375 0.39453-9.2852 2.3711-13.434 4.7422-0.59766 0.79297-1.3867 1.582-2.5703 2.3711zm-84.543-57.68v-0.19922c2.7656 0.39453 5.332 0.59375 8.0977 0.98828 1.3828 0.19922 2.7656 0.39453 4.1484-0.59375 2.5664-1.9766 5.332-3.5547 8.2969-5.1367 1.1836-0.59375 1.582-1.1836 0.39453-2.1719-1.7773-1.3828-3.3594-2.7656-5.332-3.7539-2.9648-1.582-5.9258-1.7773-8.8906-0.19922-4.1484 2.1719-7.9023 5.1367-11.062 8.8906-0.59375 0.78906-0.98828 1.7773-1.3828 2.7656 0.98828 0 1.7773-0.19922 2.7656-0.19922 0.98828-0.58594 1.9766-0.39062 2.9648-0.39062zm-90.469 77.039c-0.19922 0-0.78906 0.19922-1.3828 0.39453-5.7266 1.3828-10.074 4.9375-14.023 9.2852-0.39453 0.39453-0.59375 0.98828-0.78906 1.582 0.59375 0.19922 0.98828 0.39453 1.582 0.39453 4.543-0.19922 9.0859 0.39453 13.434 1.7773 0.39453 0.19922 1.1836 0 1.582-0.19922 3.3594-1.7773 6.7148-3.5547 10.074-5.5312 0.19922-0.19922 0.39453-1.1836 0.19922-1.3828-2.3828-3.5547-5.9375-5.9258-10.676-6.3203zm105.48 41.285c-0.19922-0.19922-0.19922-0.59375-0.39453-0.78906-2.3711-3.5547-8.0977-7.9023-14.223-5.7266-4.7422 1.7773-8.6914 4.7422-12.051 8.4922-0.39453 0.39453-0.39453 0.98828-0.59375 1.582 0.59375 0.19922 0.98828 0.39453 1.582 0.39453 4.1484 0.39453 8.4922 0.39453 12.641 1.7773 0.78906 0.19922 2.1719-0.19922 2.9648-0.59375 3.1602-1.582 6.125-3.3594 9.2852-4.9375 0.19531-0.003906 0.39453-0.003906 0.78906-0.19922zm-91.852-20.348c2.3711 1.1836 3.9492 1.7773 5.5312 2.5664 3.9492 1.7773 7.9023 3.5547 11.656 5.5312 2.9648 1.582 5.7266 3.1602 9.2852 1.3828 0.78906-0.39453 2.1719-0.19922 3.1602-0.19922 1.582 0 2.9648-0.19922 4.543-0.19922-1.1836-1.582-1.9766-3.3594-3.3594-4.543-1.3828-1.3828-3.1602-2.1719-4.7422-3.1602-3.1602-1.9766-6.9141-2.1719-10.273-2.5664-5.1367-0.78906-10.074 0.19922-15.801 1.1875zm101.33-91.062c1.582 0.78906 2.3711 1.3828 3.3594 1.582 6.125 2.3711 12.246 4.9375 18.371 7.3086 0.78906 0.39453 1.9766 0 2.9648-0.19922 2.3711-0.39453 4.9375-1.1836 7.3086-1.582 0.98828-0.19922 1.9766-0.19922 2.9648-0.39453-0.59375-0.98828-0.98828-1.9766-1.7773-2.7656-0.78906-0.78906-1.582-1.3828-2.5664-2.1719-4.7422-3.3594-10.273-4.3438-15.801-4.1484-4.5508 0.39844-9.293 1.582-14.824 2.3711zm118.52 84.938c-0.98828-4.543-4.1484-7.9023-7.9023-10.668-5.9258-3.9492-12.641-5.332-19.555-6.3203-0.78906-0.19922-1.7773 0-3.1602 0.19922 1.582 1.3828 2.5664 2.3711 3.7539 3.3594 4.3438 3.7539 8.6914 7.3086 13.035 11.062 1.1836 1.1836 2.5664 1.582 4.1484 1.582 2.9648-0.003906 6.125 0.39062 9.6797 0.78516zm-125.83 40.102c0.78906 0.39453 1.3828 0.78906 1.9766 1.1836 6.125 2.9648 12.246 6.125 18.371 9.0859 0.98828 0.39453 2.3711 0.39453 3.3594 0.19922 2.7656-0.39453 5.5312-0.78906 8.4922-1.1836 0.59375 0 0.98828-0.39453 1.582-0.39453-0.19922-0.59375-0.39453-1.1836-0.78906-1.582-4.1484-5.5312-10.074-7.7031-16.594-8.0977-5.3359-0.59375-10.668-0.59375-16.398 0.78906zm-70.52-14.617c-5.332 0-7.1094 0.98828-8.2969 5.5312-1.1836 4.7422-2.3711 9.4805-3.5547 14.223-0.19922 0.78906-0.39453 1.3828-0.19922 2.1719 0.19922 0.78906 0.39453 1.582 1.582 0.78906 2.5664-1.7773 5.332-3.1602 8.0977-4.7422 0.59375-0.39453 1.1836-0.98828 1.1836-1.582 0.98828-4.7422 3.1602-8.6914 5.332-12.84 1.582-2.9648 1.3828-3.3594-1.9766-3.5547-0.78516 0.003906-1.5742 0.003906-2.168 0.003906zm-3.75-98.57v1.1836c0.19922 0.59375 0.39453 1.1836 0.59375 1.7773 0.59375-0.19922 1.1836-0.39453 1.7773-0.59375 2.1719-1.3828 4.3438-2.9648 6.5195-4.543 0.98828-0.59375 1.3828-1.3828 1.7773-2.5664 0.98828-3.7539 2.1719-7.3086 3.5547-10.863 2.1719-5.332 2.1719-5.5312-3.3594-5.1367-1.3828 0-2.7656 0.39453-4.1484 0.78906-1.9766 0.78906-3.5547 1.9766-3.7539 4.543-0.59375 3.9492-1.3828 8.0977-2.1719 12.051-0.39453 1.1875-0.59375 2.5703-0.78906 3.3594zm109.63 25.484c-2.3711-0.78906-4.543-1.7773-6.7148-2.1719-4.543-0.98828-6.5195 0.19922-8.6914 4.3438-1.3828 2.5664-2.7656 5.1367-4.1484 7.9023-0.78906 1.582-1.582 2.9648-2.3711 4.543-0.39453 0.78906-0.59375 1.7773-0.39453 2.3711 0.39453 0.98828 1.3828 0.39453 2.1719 0 1.3828-0.39453 2.9648-0.98828 4.543-1.1836 2.9648-0.39453 5.332-1.582 6.5195-4.9375 0.19922-0.59375 0.59375-0.98828 0.98828-1.582 2.7617-2.9648 5.332-6.125 8.0977-9.2852zm-211.95 59.852c0.19922 0.78906 0.39453 1.3828 0.39453 2.1719 0.59375-0.19922 1.3828-0.39453 1.7773-0.78906 1.9766-1.1836 3.9492-2.3711 5.9258-3.3594 1.582-0.78906 2.3711-1.7773 2.9648-3.3594 1.582-3.9492 3.3594-7.7031 4.9375-11.457 0.39453-1.1836 0.98828-2.1719 1.3828-3.3594-0.98828-0.19922-2.1719-0.19922-3.1602-0.39453-0.39453 0-0.98828-0.19922-1.3828-0.39453-4.9375-0.39453-8.6914 1.3828-9.4805 6.125-0.59375 3.9492-1.9766 7.9023-2.9648 11.852 0 0.98828-0.19531 1.9766-0.39453 2.9648zm141.23-112.2h-8.0977c-4.543 0-8.2969 1.7773-10.863 6.125-2.5664 4.3438-4.543 8.8906-6.125 13.828-0.19922 0.39453 0 0.78906-0.19922 0.98828 0.39453-0.19922 0.78906 0 1.1836-0.39453 3.5547-2.3711 7.1094-4.9375 10.668-7.3086 0.59375-0.39453 1.1836-1.1836 1.582-1.9766 2.1719-3.1602 4.7422-5.9258 7.9023-7.9023 1.3828-0.79297 2.3711-1.7773 3.9492-3.3594zm81.188 49.977c-1.9766 0.98828-3.9492 1.582-5.7266 2.7656-4.3438 2.7656-7.5078 6.9141-10.469 11.062-0.39453 0.39453-0.39453 0.98828-0.39453 1.582 0.59375 0 1.1836 0 1.7773-0.19922 1.3828-0.39453 2.9648-1.1836 4.3438-1.582 1.7773-0.39453 3.3594-0.98828 5.1367-1.1836 1.3828-0.19922 2.3711-0.59375 3.5547-1.3828 3.3594-2.3711 6.7148-4.543 10.863-5.5312 0.78906-0.19922 1.582-0.59375 2.3711-0.98828 0.78906-0.39453 0.59375-1.1836 0-1.3828-3.9531-0.98828-7.7031-1.9766-11.457-3.1602zm-181.93 37.727c-2.9648-0.39453-5.332-0.98828-7.5078-0.98828-3.1602 0-6.125 0.19922-8.6914 2.5664-4.543 4.3438-7.1094 9.875-9.4805 15.605-0.19922 0.39453 0.19922 0.78906 0.19922 1.3828 0.39453-0.19922 0.78906-0.19922 0.98828-0.39453 3.5547-2.3711 6.9141-4.9375 10.863-6.3203 0.59375-0.19922 1.1836-0.98828 1.582-1.582 2.1719-3.1602 4.9375-5.332 8.0977-7.3086 1.1836-0.78906 2.3672-1.7734 3.9492-2.9609zm67.949 52.938c5.1367-4.7422 12.84-5.7266 16.988-12.051 0.19922-0.19922 0.39453-0.19922 0.59375-0.39453 1.7773-1.3828 3.5547-2.5664 5.1367-3.9492 0.78906-0.59375 1.582-1.582 2.1719-2.3711-1.1836-0.39453-2.1719-0.78906-3.3594-0.98828-1.7773-0.19922-3.5547 0-5.332 0-2.9648-0.19922-5.332 0.98828-7.3086 3.1602-4.3477 4.7422-6.9141 10.273-8.8906 16.594zm-47.012 23.113c-3.7539 3.5547-6.3203 7.5078-4.9375 12.641 1.3828 5.7266 4.3438 10.863 7.5078 16 0.59375 0.78906 0.98828 0.59375 1.1836-0.19922 1.1836-2.5664 2.1719-5.1367 3.1602-7.9023 0.19922-0.39453-0.19922-0.98828-0.39453-1.1836-2.5664-2.3711-3.1602-5.5312-4.1484-8.4922-0.78906-3.5547-1.3828-7.1094-2.3711-10.863zm-77.828-134.71c-0.78906 0.19922-2.5664 0.39453-3.9492 1.3828-4.1484 2.7656-7.3086 6.7148-9.4805 11.258-0.39453 0.98828 0 1.3828 0.98828 0.98828 3.9492-1.1836 8.0977-1.9766 12.246-1.9766 0.59375 0 1.3828-0.39453 1.7773-0.78906 2.3711-2.1719 4.543-4.3438 6.9141-6.3203 0.78906-0.78906 0.78906-0.98828 0-1.582-1.9766-1.5781-4.543-2.9609-8.4961-2.9609zm109.83-33.582c-1.582-1.1836-3.1602-2.5664-4.9375-3.7539-2.9648-1.7773-6.125-2.1719-9.2852-0.39453-3.7539 1.9766-7.1094 4.543-9.6797 8.0977-0.39453 0.59375-0.78906 1.3828-0.98828 1.9766 4.1484 0 8.0977-0.59375 12.051 0.39453 1.582 0.39453 3.1602 0.19922 4.7422-0.98828 2.3711-1.7773 5.1328-3.3555 8.0977-5.332zm-131.55 143.61c0.39453 1.3828 0.39453 2.1719 0.78906 2.9648 1.7773 4.3438 3.5547 8.6914 5.5312 12.84 0.78906 1.582 1.7773 2.7656 2.7656 4.1484 0.59375-1.582 1.1836-2.9648 1.7773-4.543 0.39453-1.1836 0.78906-2.3711 1.582-3.3594 0.59375-0.98828 0.39453-1.582-0.39453-2.5664-1.1836-1.582-2.1719-3.3594-2.7656-5.1367-0.98828-3.1602-1.7773-6.3203-2.5664-9.6797-0.39453-1.1836-0.78906-2.3711-1.1836-3.7539-0.98828 0.98828-2.1719 1.7773-2.7656 2.9648-1.1914 2.1719-1.9805 4.3438-2.7695 6.1211zm104.49-81.582c0.19922 0.59375 0.39453 1.3828 0.39453 1.9766 1.582 6.3203 5.332 11.258 8.8906 16.395 0.59375 0.98828 0.98828 0.59375 1.3828-0.39453 0.78906-2.3711 1.582-4.9375 2.3711-7.3086 0.19922-0.39453 0-1.1836-0.39453-1.582-2.7656-2.5664-3.7539-5.9258-4.9375-9.2852-0.98828-2.5664-1.582-5.332-2.5664-8.0977-0.19922-0.39453-0.98828-0.78906-0.98828-0.78906-2.1758 2.5703-3.7578 5.5312-4.1523 9.0859zm87.309 25.484c0.19922-2.3711 0.39453-4.1484 0.59375-5.9258 0-0.98828-0.39453-0.98828-1.1836-0.78906-4.1484 2.5664-7.7031 6.5195-6.9141 11.852 0.59375 4.7422 1.7773 9.4805 2.9648 14.023 0.19922 0.78906 0.59375 1.582 0.98828 2.3711 0.59375-0.59375 1.3828-1.1836 1.9766-1.9766 0.59375-0.78906 0.98828-1.7773 1.7773-2.3711 2.1719-1.9766 2.9648-3.9492 0.98828-6.3203-0.19922-0.39453-0.19922-0.98828-0.19922-1.3828-0.39844-3.1602-0.79297-6.7148-0.99219-9.4805zm-226.17-22.125v7.1094c0 0.78906 0.39453 1.582 0.59375 2.3711 0.59375-0.39453 1.3828-0.78906 1.9766-1.1836 0.98828-0.78906 1.7773-2.1719 2.9648-2.7656 2.3711-1.582 3.3594-3.5547 2.9648-6.5195 0-0.78906 0.19922-1.3828 0.39453-2.1719 0.78906-3.1602 1.3828-6.3203 2.1719-9.2852 0.19922-0.98828-0.19922-1.1836-0.78906-1.1836-2.3711 0.59375-4.9375 1.1836-7.1094 1.9766-1.9766 0.78906-3.1602 2.5664-2.9648 4.9375-0.20312 2.1719-0.20312 4.543-0.20312 6.7148zm105.68-60.84h-1.7773c-4.3438 0-6.5195 1.7773-6.7148 6.7148-0.19922 1.9766-0.78906 3.9492-0.98828 5.7266-0.39453 2.5664-0.78906 5.1367-0.98828 7.7031 0 0.78906 0.59375 1.3828 1.3828 0.59375 1.9766-1.3828 3.9492-2.7656 5.9258-4.1484 1.1836-0.78906 1.582-1.7773 1.9766-2.9648 0.98828-4.543 2.5664-8.6914 4.7422-12.641 0.39453-0.78906 0.19922-0.98828-0.59375-0.98828-1.1875 0.003906-1.9766 0.003906-2.9648 0.003906zm169.28 153.09c1.7773 2.1719 3.9492 4.1484 5.7266 6.7148 0.98828 1.3828 2.1719 2.1719 3.7539 2.5664 1.9766 0.59375 4.1484 1.1836 6.125 1.9766 2.5664 0.98828 4.9375 1.9766 7.5078 3.1602-3.3594-12.641-11.258-17.773-23.113-14.418zm8.1016-126.81c2.5664 2.5664 5.1367 4.9375 7.5078 7.3086 0.59375 0.39453 1.1836 0.98828 1.7773 1.1836 4.7422 0.78906 9.2852 2.1719 13.828 3.7539 0.19922 0.19922 0.78906 0 0.98828-0.19922 0.19922-0.19922 0-0.59375 0-0.98828-1.582-4.543-4.1484-8.0977-8.0977-10.469-2.9648-1.7773-6.125-2.7656-9.6797-1.9766-2.1758 0.39844-4.1523 0.98828-6.3242 1.3867zm-138.47 74.074c1.7773 0.98828 3.1602 1.582 4.543 2.5664 1.3828 0.78906 2.7656 0.98828 4.1484 0.59375 4.1484-0.98828 8.4922-1.3828 12.84-1.3828h4.7422c0.19922 0 0.78906-0.59375 0.59375-0.98828-0.98828-3.3594-5.7266-6.9141-9.0859-6.9141-6.5234-0.19922-12.25 2.1719-17.781 6.125zm220.44 0.98438c1.7773 3.3594 3.3594 6.125 4.9375 9.0859 0.39453 0.78906 0.98828 1.7773 1.7773 2.3711 3.7539 2.7656 7.7031 5.332 11.656 8.0977 0.78906 0.59375 1.3828 0.59375 1.3828-0.59375 0.19922-7.5078-4.3438-14.816-10.273-16.594-3.1562-0.98438-6.3164-1.5742-9.4805-2.3672zm-68.738-39.109c0.98828 0.39453 1.3828 0.78906 1.7773 0.78906 3.7539 0.59375 7.5078 0.98828 11.258 1.582 2.7656 0.39453 4.9375 0.19922 6.9141-2.3711 0.78906-1.1836 2.3711-1.7773 3.5547-2.3711 1.3828-0.78906 2.7656-1.3828 4.1484-2.1719-3.9492-5.1367-9.2852-4.9375-13.434-2.3711-2.3711 1.3828-4.9375 2.3711-7.5078 3.5547-2.168 1.1875-4.3398 2.1758-6.7109 3.3594zm-97.977 70.125c5.9258 0.98828 10.863-1.3828 16.199-1.3828 0.39453 0 0.98828-0.39453 0.98828-0.78906 1.7773-3.9492 4.9375-6.7148 8.2969-9.0859-4.7422-3.3594-8.6914-3.5547-12.445 0-2.9648 2.7656-5.9258 5.332-9.2852 7.5078-1.1875 1.1797-2.1719 2.3672-3.7539 3.75zm67.949 3.3555c-1.9766-2.1719-3.1602-4.1484-4.9375-5.5312-1.582-1.582-3.7539-2.5664-5.9258-2.1719-5.5312 0.78906-10.863 2.1719-15.801 5.5312-1.1836 0.78906-0.98828 1.1836 0.19922 1.7773 0.78906 0.39453 1.7773 0.78906 2.5664 1.3828 1.582 1.1836 3.1602 1.1836 4.9375 0.78906 4.7422-0.78906 9.4805-1.1836 14.223-1.582 1.3828-0.39062 2.7656-0.19531 4.7383-0.19531zm-58.469-123.85c2.9648-0.78906 6.3203-1.582 9.4805-2.1719 3.3594-0.39453 5.9258-1.582 7.1094-5.1367 0.39453-1.3828 1.7773-2.3711 2.7656-3.3594 0.59375-0.78906 1.3828-1.3828 1.9766-2.1719 0.78906-0.78906 0.59375-1.1836-0.39453-1.582-3.5547-1.9766-7.1094-1.582-10.273 1.1836-0.78906 0.59375-1.3828 1.3828-1.9766 1.9766-1.9766 1.9766-4.1484 3.7539-6.125 5.7266l-3.5547 3.5547c-0.39453 0.39453-0.59375 0.78906-0.78906 1.1836 0.59766 0.40234 0.99219 0.60156 1.7812 0.79688zm55.113-9.0859c-5.9258 0.59375-11.258 2.7656-16.199 6.7148-0.59375 0.39453-0.98828 0.78906 0 1.3828 3.1602 1.582 6.5195 3.3594 10.074 1.1836 0.59375-0.19922 1.1836-0.39453 1.7773-0.39453 4.3438-0.78906 8.6914-1.7773 13.035-1.582 0.59375 0 1.7773 0 0.98828-0.98828-2.3672-3.3516-4.9375-6.3164-9.6758-6.3164zm-157.43 96.395c4.9375-0.78906 9.875-1.3828 14.816-2.3711 0.78906-0.19922 1.3828-1.1836 1.9766-1.7773 1.7773-1.9766 3.5547-3.9492 5.332-5.9258 0.39453-0.59375 1.1836-0.98828 1.582-1.582 0.19922-0.19922 0-0.98828-0.19922-0.98828-2.7656-2.1719-7.5078-2.3711-10.469-0.39453-0.98828 0.59375-1.7773 1.3828-2.5664 1.9766-2.1719 1.7773-4.3438 3.7539-6.7148 5.5312-1.582 1.3828-3.1602 2.7656-4.543 4.1484-0.19922 0.19922-0.39453 0.59375-0.39453 0.59375 0.58594 0.39453 0.78516 0.59375 1.1797 0.78906zm241.78-26.863v-0.39453c-2.5664 0.39453-5.1367 0.59375-7.7031 1.1836-1.3828 0.19922-2.5664 0.78906-3.9492 1.1836 0.98828 0.98828 1.9766 2.1719 2.9648 3.1602 0.98828 0.98828 1.7773 2.1719 3.5547 2.1719 5.9258 0 11.656 0.98828 17.184 2.7656 0.39453 0.19922 1.1836 0 1.582-0.19922 0.19922-0.19922 0-0.98828-0.19922-1.3828-2.1719-5.1367-4.3438-8.4922-10.863-8.2969-0.98828-0.19141-1.7773-0.19141-2.5703-0.19141zm-51.949-34.172s-0.59375 0.19922-0.78906 0.39453c0 0 0.19922 0.59375 0.39453 0.98828 1.3828 2.3711 2.5664 4.7422 3.9492 7.1094 0.39453 0.59375 0.98828 1.3828 1.7773 1.582 2.9648 1.1836 5.9258 2.1719 8.6914 3.1602 0.59375 0.19922 1.3828 0.39453 1.9766 0.39453 1.7773-0.39453 3.7539-0.78906 5.5312-1.1836 0.19922 0 0.59375-0.78906 0.39453-0.98828-1.1836-1.3828-2.3711-2.9648-3.7539-3.9492-5.332-4.1523-11.652-5.9297-18.172-7.5078zm-166.32-43.457c-0.59375-0.19922-0.98828-0.59375-1.3828-0.59375-3.1602 0.19922-6.3203 0.39453-9.4805 0.98828-0.78906 0.19922-1.7773 0.78906-2.3711 1.582-4.543 4.3438-6.3203 10.074-8.2969 15.801 0 0.19922 0 0.59375 0.19922 0.59375 0.19922 0.19922 0.39453 0 0.59375 0 1.1836-0.98828 2.3711-2.1719 3.7539-2.9648 4.1484-2.5664 8.2969-5.332 11.062-9.6797 0.59375-0.78906 1.582-1.3828 2.3711-2.1719 0.98828-0.78906 2.1719-1.582 3.1602-2.5664-0.003907-0.19922 0.19141-0.59375 0.39062-0.98828zm-117.53 65.578c3.3594-3.1602 6.3203-5.9258 9.4805-8.6914 0.19922-0.19922 0.39453-0.39453 0.39453-0.59375 1.7773-4.3438 4.3438-7.9023 7.5078-11.258 0.19922-0.39453 0.19922-0.78906 0.39453-1.3828-0.39453 0-0.98828-0.39453-1.3828-0.19922-2.5664 0.59375-5.1367 1.3828-7.5078 1.9766-1.7773 0.39453-3.1602 1.7773-4.1484 3.3594-2.9609 5.1367-4.543 10.469-4.7383 16.789zm55.109-22.715c-0.19922 0.19922-0.39453 0.19922-0.39453 0.19922-2.1719 1.582-3.9492 7.1094-3.1602 10.074 1.3828 5.332 4.543 9.6797 7.5078 14.223 0.78906 1.3828 1.3828 0.39453 1.582-0.39453 0.59375-1.9766 1.1836-3.9492 1.9766-5.9258 0.39453-0.78906 0.19922-1.3828-0.39453-1.9766-2.1719-1.9766-3.1602-4.9375-4.1484-7.7031-0.78906-2.3711-1.3828-4.9375-2.1719-7.5078-0.20312-0.19922-0.59766-0.59375-0.79687-0.98828zm-94.023 61.434c0.19922 1.1836 0.19922 1.9766 0.39453 2.5664 2.1719 5.9258 6.5195 10.074 10.668 14.223 0.59375 0.59375 0.98828 0 0.98828-0.59375 0.19922-1.582 0.39453-3.1602 0.78906-4.7422 0.39453-1.7773 0.59375-3.1602-1.582-4.1484-0.98828-0.39453-1.7773-1.7773-2.3711-2.7656-1.582-2.7656-3.1602-5.5312-4.7422-8.2969-0.59375-0.98828-1.1836-1.7773-1.7773-2.7656-0.59375 0.98828-1.1836 1.7773-1.582 2.7656-0.19141 1.1875-0.39062 2.5703-0.78516 3.7578zm201.68-102.12c-4.1484 0.39453-7.9023 1.3828-11.457 3.7539-1.1836 0.78906-2.3711 1.9766-3.5547 2.9648 1.582 0.78906 2.9648 1.7773 4.543 2.1719 1.1836 0.19922 2.5664-0.19922 3.7539-0.39453 3.7539-0.59375 7.5078-1.1836 11.258-1.7773 1.3828-0.19922 2.7656-0.39453 3.9492-0.59375-0.78906-1.1836-1.582-2.3711-2.5664-3.3594-1.3828-1.9766-3.3594-2.9648-5.9258-2.7656zm-29.629-3.9492c-4.543-2.9648-8.4922-1.9766-12.051 1.9766-1.9766 2.1719-4.3438 4.1484-6.5195 6.3203-0.78906 0.78906-1.582 1.582-2.3711 2.3711-0.19922 0.39453-0.39453 0.78906-0.59375 1.1836 0.39453 0 0.98828 0.19922 1.3828 0.19922 3.7539-0.78906 7.5078-1.582 11.258-2.3711 1.1836-0.19922 2.1719-0.78906 2.7656-2.1719 1.3867-3.1641 3.5586-5.5352 6.1289-7.5078zm-103.71 39.898c-2.7656-0.19922-5.1367 0.98828-6.7148 3.3594-2.5664 3.5547-4.9375 6.9141-7.5078 10.273-0.39453 0.59375-0.78906 1.1836-1.1836 1.9766-0.19922 0.19922-0.19922 0.39453-0.19922 0.78906 0.19922 0 0.59375 0.19922 0.78906 0.19922 4.1484-1.582 8.2969-3.1602 12.246-4.9375 0.39453-0.19922 0.59375-0.98828 0.98828-1.3828 1.3828-2.7656 2.7656-5.5312 4.3438-8.0977 0.59375-1.1836 0.39453-1.582-0.59375-1.7773-0.78516-0.40234-1.375-0.40234-2.168-0.40234zm154.07 81.582c0 2.5664 0.39453 3.1602 2.5664 3.3594s4.1484 0.39453 6.3203 0.59375c0.19922 0 0.59375-0.78906 0.39453-0.98828-1.582-3.3594-3.1602-6.9141-4.9375-10.273-0.39453-0.98828-1.1836-0.78906-1.582 0-1.5742 1.9766-2.7617 4.3438-2.7617 7.3086zm-2.9609 3.9492c-2.5664-0.19922-4.3438-0.39453-6.3203-0.19922-1.7773 0.19922-3.3594 0.78906-4.9375 1.1836 1.3828 1.1836 2.7656 2.5664 4.1484 3.7539 0.78906 0.59375 1.3828 0.39453 2.1719-0.39453 1.3828-1.3789 2.7656-2.5664 4.9375-4.3438zm-16.199-111.21c-0.19922-0.19922-0.39453-0.39453-0.78906-0.39453-0.59375 0-1.1836-0.19922-1.7773 0-1.1836 0.39453-2.3711 0.78906-3.3594 1.3828 1.1836 0.59375 2.1719 1.3828 3.3594 1.7773 1.1836 0.39453 2.7656-1.1875 2.5664-2.7656z"/>
  <use x="70" y="589.628906" xlink:href="#w"/>
  <use x="77.25" y="589.628906" xlink:href="#e"/>
  <use x="82.117187" y="589.628906" xlink:href="#b"/>
  <use x="88.816406" y="589.628906" xlink:href="#d"/>
  <use x="95.480469" y="589.628906" xlink:href="#a"/>
  <use x="100.203125" y="589.628906" xlink:href="#b"/>
  <use x="106.902344" y="589.628906" xlink:href="#l"/>
  <use x="117.410156" y="589.628906" xlink:href="#k"/>
  <use x="124.480469" y="589.628906" xlink:href="#j"/>
  <use x="134.355469" y="589.628906" xlink:href="#i"/>
  <use x="138.03125" y="589.628906" xlink:href="#h"/>
  <use x="145.0625" y="589.628906" xlink:href="#v"/>
  <use x="150.941406" y="589.628906" xlink:href="#a"/>
  <use x="155.664062" y="589.628906" xlink:href="#c"/>
  <use x="165.886719" y="589.628906" xlink:href="#u"/>
  <use x="173" y="589.628906" xlink:href="#d"/>
  <use x="179.664062" y="589.628906" xlink:href="#f"/>
  <use x="186.695312" y="589.628906" xlink:href="#a"/>
  <use x="191.417969" y="589.628906" xlink:href="#t"/>
  <use x="194.800781" y="589.628906" xlink:href="#g"/>
  <use x="198.1875" y="589.628906" xlink:href="#g"/>
  <use x="201.574219" y="589.628906" xlink:href="#d"/>
  <use x="208.238281" y="589.628906" xlink:href="#f"/>
  <use x="70" y="599.507812" xlink:href="#s"/>
  <use x="74.296875" y="599.507812" xlink:href="#e"/>
  <use x="79.167969" y="599.507812" xlink:href="#c"/>
  <use x="85.953125" y="599.507812" xlink:href="#r"/>
  <use x="99.683594" y="599.507812" xlink:href="#a"/>
  <use x="104.402344" y="599.507812" xlink:href="#q"/>
  <use x="111.433594" y="599.507812" xlink:href="#b"/>
  <use x="121.570312" y="599.507812" xlink:href="#p"/>
  <use x="129.839844" y="599.507812" xlink:href="#c"/>
  <use x="136.625" y="599.507812" xlink:href="#h"/>
  <use x="143.65625" y="599.507812" xlink:href="#f"/>
  <use x="154.125" y="599.507812" xlink:href="#o"/>
  <use x="161.363281" y="599.507812" xlink:href="#e"/>
  <use x="166.234375" y="599.507812" xlink:href="#c"/>
  <use x="173.019531" y="599.507812" xlink:href="#n"/>
  <use x="176.40625" y="599.507812" xlink:href="#b"/>
  <use x="183.101562" y="599.507812" xlink:href="#m"/>
  <use x="188.957031" y="599.507812" xlink:href="#a"/>
 </g>
</svg>
