<?xml version="1.0" encoding="UTF-8"?>
<svg width="700pt" height="700pt" version="1.1" viewBox="0 0 700 700" xmlns="http://www.w3.org/2000/svg" xmlns:xlink="http://www.w3.org/1999/xlink">
 <defs>
  <symbol id="v" overflow="visible">
   <path d="m19.547-1.1719c-1.0117 0.52344-2.0625 0.91406-3.1562 1.1719-1.0938 0.26953-2.2344 0.40625-3.4219 0.40625-3.543 0-6.3516-0.98828-8.4219-2.9688-2.0625-1.9766-3.0938-4.6602-3.0938-8.0469 0-3.4062 1.0312-6.0977 3.0938-8.0781 2.0703-1.9766 4.8789-2.9688 8.4219-2.9688 1.1875 0 2.3281 0.13672 3.4219 0.40625 1.0938 0.26172 2.1445 0.65625 3.1562 1.1875v4.3906c-1.0234-0.6875-2.0273-1.1914-3.0156-1.5156-0.98047-0.32031-2.0156-0.48438-3.1094-0.48438-1.9609 0-3.5 0.625-4.625 1.875-1.1172 1.25-1.6719 2.9805-1.6719 5.1875 0 2.1875 0.55469 3.9141 1.6719 5.1719 1.125 1.25 2.6641 1.875 4.625 1.875 1.0938 0 2.1289-0.16016 3.1094-0.48438 0.98828-0.32031 1.9922-0.82812 3.0156-1.5156z"/>
  </symbol>
  <symbol id="b" overflow="visible">
   <path d="m14.297-11.609c-0.44922-0.20703-0.89062-0.35938-1.3281-0.45312-0.4375-0.10156-0.88281-0.15625-1.3281-0.15625-1.3125 0-2.3242 0.42188-3.0312 1.2656-0.71094 0.83594-1.0625 2.0391-1.0625 3.6094v7.3438h-5.0938v-15.953h5.0938v2.625c0.65625-1.0508 1.4062-1.8164 2.25-2.2969 0.85156-0.47656 1.875-0.71875 3.0625-0.71875 0.17578 0 0.36328 0.011719 0.5625 0.03125 0.19531 0.011719 0.48438 0.042969 0.85938 0.09375z"/>
  </symbol>
  <symbol id="a" overflow="visible">
   <path d="m18.375-8.0156v1.4531h-11.922c0.125 1.1992 0.55469 2.0938 1.2969 2.6875 0.73828 0.59375 1.7734 0.89062 3.1094 0.89062 1.0703 0 2.1719-0.15625 3.2969-0.46875 1.125-0.32031 2.2812-0.80469 3.4688-1.4531v3.9375c-1.2109 0.46094-2.418 0.80469-3.625 1.0312-1.2109 0.22656-2.4141 0.34375-3.6094 0.34375-2.8984 0-5.1484-0.72656-6.75-2.1875-1.5938-1.4688-2.3906-3.5312-2.3906-6.1875 0-2.5938 0.78516-4.6328 2.3594-6.125 1.5703-1.5 3.7344-2.25 6.4844-2.25 2.5078 0 4.5156 0.75781 6.0156 2.2656 1.5078 1.5117 2.2656 3.5312 2.2656 6.0625zm-5.2344-1.7031c0-0.96875-0.28906-1.75-0.85938-2.3438-0.5625-0.59375-1.2969-0.89062-2.2031-0.89062-0.99219 0-1.7969 0.28125-2.4219 0.84375-0.61719 0.55469-0.99609 1.3516-1.1406 2.3906z"/>
  </symbol>
  <symbol id="e" overflow="visible">
   <path d="m9.5938-7.1719c-1.0625 0-1.8672 0.18359-2.4062 0.54688-0.53125 0.35547-0.79688 0.88281-0.79688 1.5781 0 0.64844 0.21094 1.1523 0.64062 1.5156 0.4375 0.36719 1.0391 0.54688 1.8125 0.54688 0.95703 0 1.7656-0.34375 2.4219-1.0312s0.98438-1.5469 0.98438-2.5781v-0.57812zm7.7969-1.9375v9.1094h-5.1406v-2.3594c-0.6875 0.96875-1.4609 1.6719-2.3125 2.1094-0.85547 0.4375-1.8906 0.65625-3.1094 0.65625-1.6562 0-3-0.47656-4.0312-1.4375-1.0312-0.96875-1.5469-2.2188-1.5469-3.75 0-1.875 0.64062-3.25 1.9219-4.125 1.2891-0.875 3.3164-1.3125 6.0781-1.3125h3v-0.39062c0-0.8125-0.32031-1.4062-0.95312-1.7812-0.63672-0.375-1.6328-0.5625-2.9844-0.5625-1.0859 0-2.1016 0.10938-3.0469 0.32812-0.9375 0.21875-1.8086 0.54688-2.6094 0.98438v-3.8906c1.082-0.25781 2.1758-0.45703 3.2812-0.59375 1.1016-0.14453 2.207-0.21875 3.3125-0.21875 2.875 0 4.9453 0.57031 6.2188 1.7031 1.2812 1.1367 1.9219 2.9805 1.9219 5.5312z"/>
  </symbol>
  <symbol id="d" overflow="visible">
   <path d="m8.0156-20.484v4.5312h5.2656v3.6406h-5.2656v6.7656c0 0.74219 0.14453 1.2461 0.4375 1.5156 0.30078 0.26172 0.89062 0.39062 1.7656 0.39062h2.6094v3.6406h-4.3594c-2.0234 0-3.4531-0.41406-4.2969-1.25-0.83594-0.84375-1.25-2.2734-1.25-4.2969v-6.7656h-2.5312v-3.6406h2.5312v-4.5312z"/>
  </symbol>
  <symbol id="j" overflow="visible">
   <path d="m13.297-13.625v-8.5312h5.1406v22.156h-5.1406v-2.3125c-0.69922 0.94922-1.4688 1.6406-2.3125 2.0781-0.84375 0.42578-1.8242 0.64062-2.9375 0.64062-1.9688 0-3.5859-0.77344-4.8438-2.3281-1.2617-1.5625-1.8906-3.5781-1.8906-6.0469 0-2.457 0.62891-4.4688 1.8906-6.0312 1.2578-1.5625 2.875-2.3438 4.8438-2.3438 1.1016 0 2.0781 0.22656 2.9219 0.67188 0.85156 0.4375 1.6289 1.1211 2.3281 2.0469zm-3.3594 10.328c1.0938 0 1.9258-0.39453 2.5-1.1875 0.57031-0.80078 0.85938-1.9609 0.85938-3.4844 0-1.5078-0.28906-2.6641-0.85938-3.4688-0.57422-0.80078-1.4062-1.2031-2.5-1.2031-1.0859 0-1.9141 0.40234-2.4844 1.2031-0.57422 0.80469-0.85938 1.9609-0.85938 3.4688 0 1.5234 0.28516 2.6836 0.85938 3.4844 0.57031 0.79297 1.3984 1.1875 2.4844 1.1875z"/>
  </symbol>
  <symbol id="i" overflow="visible">
   <path d="m10.938-3.2969c1.0938 0 1.9258-0.39453 2.5-1.1875 0.57031-0.80078 0.85938-1.9609 0.85938-3.4844 0-1.5078-0.28906-2.6641-0.85938-3.4688-0.57422-0.80078-1.4062-1.2031-2.5-1.2031s-1.9336 0.40234-2.5156 1.2031c-0.58594 0.80469-0.875 1.9609-0.875 3.4688 0 1.5117 0.28906 2.668 0.875 3.4688 0.58203 0.80469 1.4219 1.2031 2.5156 1.2031zm-3.3906-10.328c0.70703-0.92578 1.4883-1.6094 2.3438-2.0469 0.85156-0.44531 1.832-0.67188 2.9375-0.67188 1.9688 0 3.582 0.78125 4.8438 2.3438 1.2695 1.5625 1.9062 3.5742 1.9062 6.0312 0 2.4688-0.63672 4.4844-1.9062 6.0469-1.2617 1.5547-2.875 2.3281-4.8438 2.3281-1.1055 0-2.0859-0.21875-2.9375-0.65625-0.85547-0.4375-1.6367-1.125-2.3438-2.0625v2.3125h-5.0938v-22.156h5.0938z"/>
  </symbol>
  <symbol id="h" overflow="visible">
   <path d="m0.35938-15.953h5.0938l4.2969 10.828 3.6406-10.828h5.0938l-6.7031 17.469c-0.67969 1.7695-1.4648 3.0078-2.3594 3.7188-0.89844 0.70703-2.0781 1.0625-3.5469 1.0625h-2.9531v-3.3438h1.5938c0.86328 0 1.4922-0.14062 1.8906-0.42188 0.39453-0.27344 0.70312-0.76562 0.92188-1.4844l0.14062-0.4375z"/>
  </symbol>
  <symbol id="f" overflow="visible">
   <path d="m12.953-22.156v3.3438h-2.8281c-0.71875 0-1.2266 0.13281-1.5156 0.39062-0.28125 0.26172-0.42188 0.71484-0.42188 1.3594v1.1094h4.3594v3.6406h-4.3594v12.312h-5.0938v-12.312h-2.5312v-3.6406h2.5312v-1.1094c0-1.7383 0.48438-3.0195 1.4531-3.8438 0.96875-0.83203 2.4688-1.25 4.5-1.25z"/>
  </symbol>
  <symbol id="u" overflow="visible">
   <path d="m2.4531-15.953h5.0938v15.953h-5.0938zm0-6.2031h5.0938v4.1562h-5.0938z"/>
  </symbol>
  <symbol id="g" overflow="visible">
   <path d="m14.906-15.453v3.875c-1.0859-0.45703-2.1367-0.80078-3.1562-1.0312-1.0117-0.22656-1.9688-0.34375-2.875-0.34375-0.96875 0-1.6875 0.125-2.1562 0.375-0.46875 0.24219-0.70312 0.60938-0.70312 1.1094 0 0.40625 0.17578 0.71875 0.53125 0.9375 0.35156 0.21875 0.99219 0.38281 1.9219 0.48438l0.89062 0.14062c2.6133 0.32422 4.3672 0.86719 5.2656 1.625 0.90625 0.76172 1.3594 1.9531 1.3594 3.5781 0 1.6992-0.63281 2.9766-1.8906 3.8281-1.25 0.85547-3.1211 1.2812-5.6094 1.2812-1.0547 0-2.1406-0.085938-3.2656-0.25-1.125-0.15625-2.2812-0.39844-3.4688-0.73438v-3.875c1.0195 0.49219 2.0625 0.85938 3.125 1.1094 1.0703 0.24219 2.1602 0.35938 3.2656 0.35938 0.98828 0 1.7344-0.13281 2.2344-0.40625 0.50781-0.26953 0.76562-0.67578 0.76562-1.2188 0-0.45703-0.17969-0.79688-0.53125-1.0156-0.34375-0.22656-1.0312-0.40625-2.0625-0.53125l-0.89062-0.10938c-2.2734-0.28125-3.8672-0.80469-4.7812-1.5781-0.90625-0.76953-1.3594-1.9414-1.3594-3.5156 0-1.6875 0.57812-2.9375 1.7344-3.75 1.1562-0.82031 2.9297-1.2344 5.3281-1.2344 0.9375 0 1.9219 0.074219 2.9531 0.21875 1.0391 0.14844 2.1641 0.37109 3.375 0.67188z"/>
  </symbol>
  <symbol id="t" overflow="visible">
   <path d="m2.4531-22.156h5.0938v22.156h-5.0938z"/>
  </symbol>
  <symbol id="c" overflow="visible">
   <path d="m10.047-12.688c-1.1367 0-2 0.40625-2.5938 1.2188s-0.89062 1.9805-0.89062 3.5c0 1.5312 0.29688 2.7031 0.89062 3.5156s1.457 1.2188 2.5938 1.2188c1.1016 0 1.9453-0.40625 2.5312-1.2188 0.59375-0.8125 0.89062-1.9844 0.89062-3.5156 0-1.5195-0.29688-2.6875-0.89062-3.5-0.58594-0.8125-1.4297-1.2188-2.5312-1.2188zm0-3.6562c2.7383 0 4.8789 0.74609 6.4219 2.2344 1.5391 1.4805 2.3125 3.5273 2.3125 6.1406 0 2.625-0.77344 4.6797-2.3125 6.1562-1.543 1.4805-3.6836 2.2188-6.4219 2.2188-2.7617 0-4.918-0.73828-6.4688-2.2188-1.5547-1.4766-2.3281-3.5312-2.3281-6.1562 0-2.6133 0.77344-4.6602 2.3281-6.1406 1.5508-1.4883 3.707-2.2344 6.4688-2.2344z"/>
  </symbol>
  <symbol id="s" overflow="visible">
   <path d="m0.4375-15.953h5.1094l3.9688 11.031 3.9531-11.031h5.125l-6.2812 15.953h-5.6094z"/>
  </symbol>
  <symbol id="r" overflow="visible">
   <path d="m17.234-13.297c0.64453-0.98828 1.4102-1.7422 2.2969-2.2656 0.89453-0.51953 1.875-0.78125 2.9375-0.78125 1.832 0 3.2266 0.57031 4.1875 1.7031 0.95703 1.125 1.4375 2.7656 1.4375 4.9219v9.7188h-5.125v-8.3125-0.39062c0.007812-0.13281 0.015625-0.32031 0.015625-0.5625 0-1.1328-0.16797-1.9531-0.5-2.4531-0.32422-0.50781-0.85938-0.76562-1.6094-0.76562-0.96875 0-1.7188 0.40234-2.25 1.2031-0.52344 0.79297-0.79297 1.9453-0.8125 3.4531v7.8281h-5.125v-8.3125c0-1.7695-0.15234-2.9062-0.45312-3.4062-0.30469-0.50781-0.84375-0.76562-1.625-0.76562-0.98047 0-1.7344 0.40234-2.2656 1.2031-0.53125 0.80469-0.79688 1.9492-0.79688 3.4375v7.8438h-5.125v-15.953h5.125v2.3281c0.625-0.89453 1.3438-1.5703 2.1562-2.0312 0.8125-0.45703 1.707-0.6875 2.6875-0.6875 1.1016 0 2.0781 0.26562 2.9219 0.79688s1.4844 1.2812 1.9219 2.25z"/>
  </symbol>
  <symbol id="q" overflow="visible">
   <path d="m18.484-9.7188v9.7188h-5.125v-7.4062c0-1.3945-0.03125-2.3516-0.09375-2.875-0.0625-0.51953-0.16797-0.90625-0.3125-1.1562-0.19922-0.33203-0.46875-0.58594-0.8125-0.76562-0.34375-0.1875-0.73438-0.28125-1.1719-0.28125-1.0625 0-1.9023 0.41406-2.5156 1.2344-0.60547 0.8125-0.90625 1.9492-0.90625 3.4062v7.8438h-5.0938v-22.156h5.0938v8.5312c0.76953-0.92578 1.5859-1.6094 2.4531-2.0469 0.86328-0.44531 1.8164-0.67188 2.8594-0.67188 1.8438 0 3.2383 0.57031 4.1875 1.7031 0.95703 1.125 1.4375 2.7656 1.4375 4.9219z"/>
  </symbol>
  <symbol id="p" overflow="visible">
   <path d="m2.6719-21.266h6.125l7.7344 14.578v-14.578h5.2031v21.266h-6.125l-7.7344-14.594v14.594h-5.2031z"/>
  </symbol>
  <symbol id="o" overflow="visible">
   <path d="m2.2812-6.2031v-9.75h5.125v1.5938c0 0.86719-0.007812 1.9531-0.015625 3.2656-0.011719 1.3047-0.015625 2.1719-0.015625 2.6094 0 1.2812 0.03125 2.2031 0.09375 2.7656 0.070312 0.5625 0.1875 0.97656 0.34375 1.2344 0.21875 0.33594 0.49219 0.58984 0.82812 0.76562 0.33203 0.17969 0.71875 0.26562 1.1562 0.26562 1.0625 0 1.8945-0.40625 2.5-1.2188 0.61328-0.8125 0.92188-1.9453 0.92188-3.4062v-7.875h5.0938v15.953h-5.0938v-2.3125c-0.77344 0.9375-1.5898 1.625-2.4531 2.0625-0.85547 0.4375-1.7969 0.65625-2.8281 0.65625-1.8438 0-3.25-0.5625-4.2188-1.6875-0.96094-1.1328-1.4375-2.7734-1.4375-4.9219z"/>
  </symbol>
  <symbol id="n" overflow="visible">
   <path d="m18.484-9.7188v9.7188h-5.125v-7.4375c0-1.375-0.03125-2.3203-0.09375-2.8438-0.0625-0.51953-0.16797-0.90625-0.3125-1.1562-0.19922-0.33203-0.46875-0.58594-0.8125-0.76562-0.34375-0.1875-0.73438-0.28125-1.1719-0.28125-1.0625 0-1.9023 0.41406-2.5156 1.2344-0.60547 0.8125-0.90625 1.9492-0.90625 3.4062v7.8438h-5.0938v-15.953h5.0938v2.3281c0.76953-0.92578 1.5859-1.6094 2.4531-2.0469 0.86328-0.44531 1.8164-0.67188 2.8594-0.67188 1.8438 0 3.2383 0.57031 4.1875 1.7031 0.95703 1.125 1.4375 2.7656 1.4375 4.9219z"/>
  </symbol>
  <symbol id="m" overflow="visible">
   <path d="m2.6719-21.266h9.1094c2.707 0 4.7852 0.60547 6.2344 1.8125 1.4453 1.1992 2.1719 2.9062 2.1719 5.125 0 2.2305-0.72656 3.9492-2.1719 5.1562-1.4492 1.1992-3.5273 1.7969-6.2344 1.7969h-3.625v7.375h-5.4844zm5.4844 3.9688v5.9375h3.0469c1.0625 0 1.8789-0.25391 2.4531-0.76562 0.58203-0.51953 0.875-1.2539 0.875-2.2031 0-0.94531-0.29297-1.6758-0.875-2.1875-0.57422-0.51953-1.3906-0.78125-2.4531-0.78125z"/>
  </symbol>
  <symbol id="l" overflow="visible">
   <path d="m2.4531-15.953h5.0938v15.672c0 2.1328-0.51562 3.7656-1.5469 4.8906-1.0234 1.125-2.5078 1.6875-4.4531 1.6875h-2.5156v-3.3438h0.89062c0.96875 0 1.6289-0.21875 1.9844-0.65625 0.36328-0.4375 0.54688-1.2969 0.54688-2.5781zm0-6.2031h5.0938v4.1562h-5.0938z"/>
  </symbol>
  <symbol id="k" overflow="visible">
   <path d="m15.344-15.453v4.1562c-0.69922-0.46875-1.3984-0.81641-2.0938-1.0469-0.69922-0.22656-1.4219-0.34375-2.1719-0.34375-1.4297 0-2.5391 0.41797-3.3281 1.25-0.79297 0.82422-1.1875 1.9805-1.1875 3.4688 0 1.5 0.39453 2.668 1.1875 3.5 0.78906 0.82422 1.8984 1.2344 3.3281 1.2344 0.80078 0 1.5547-0.11719 2.2656-0.35938 0.71875-0.23828 1.3828-0.58594 2-1.0469v4.1719c-0.80469 0.29297-1.6172 0.50781-2.4375 0.65625-0.8125 0.14453-1.6367 0.21875-2.4688 0.21875-2.875 0-5.125-0.73438-6.75-2.2031-1.625-1.4766-2.4375-3.5352-2.4375-6.1719 0-2.625 0.8125-4.6758 2.4375-6.1562 1.625-1.4766 3.875-2.2188 6.75-2.2188 0.83203 0 1.6562 0.078125 2.4688 0.23438 0.8125 0.14844 1.625 0.36719 2.4375 0.65625z"/>
  </symbol>
 </defs>
 <g>
  <path d="m199.76 143.87c59.43 8.9609 119.31 7.9453 179.23 6.7852 28.074-0.54297 56.062-0.29297 84.062-2.6133 29.809-2.4688 75.449-9.6133 75.367 32.574-0.085937 49.309-7.9922 98.605-8.0156 147.91-0.011719 30.117 2.957 60.16 6.0039 90.086 2.2461 22.008 14.602 41.328 15.652 63.77 2.0234 43.605-68.914 22.789-90.824 20.305-30.602-3.4648-61.086-3.7734-91.84-3.2656-62.859 1.0508-125.84 0.87109-188.55 5.0039-45.238 2.9805-31.309-50.516-27.973-77.781 4.1992-34.27 4.6719-68.711 11.934-102.57 6.4805-30.215 11.402-60.41 16.723-90.844 2.375-13.609 4.375-27.219 5.8633-40.945 1.3164-12.133-5.9102-43.113 14.344-45.297 4.625-0.49609 4.6719-7.793 0-7.293-13.914 1.5-20.336 5.957-21.41 20.352-3.0234 40.746-7.6641 80.379-13.715 121.02-5.7734 38.828-14.992 75.32-17.91 114.69-2.2617 30.492-12.453 63.434-5.5781 93.836 4.1133 18.199 21.859 21.961 37.711 22.125 40.016 0.40234 80.828-3.2148 120.99-3.8867 43.301-0.71875 86.719-2.5664 130-0.49609 29.266 1.3984 66.977 15.738 96.285 8.6562 55.469-13.406 18.301-70.824 14.594-107.16-4.0781-40.016-6.9648-80.004-2.5312-120.09 3.5234-31.797 1.3477-63.121 4.6211-94.84 1.3242-12.785 4.4609-38.898-9.6289-47.188-23-13.535-55.637-7.3438-80.723-5.2656-82.18 6.8086-171.15 7.6719-252.74-4.6211-4.5938-0.67578-6.5703 6.3477-1.9336 7.0469z"/>
  <path d="m349.39 316.49c7.0859-19.805 24.121-36.422 45.664-38.668 36.691-3.8281 28.434 54.203 19.074 72.828-17.145 34.125-52.75 54.723-68.402 90.152-1.8789 4.2578 4.4023 7.9727 6.3008 3.6797 23.621-53.496 91.262-81.555 74.785-148.68-12.816-52.219-73.348-12.285-84.453 18.754-1.5898 4.4336 5.457 6.3242 7.0312 1.9336z"/>
  <path d="m344.02 311.68c-23.484-31.879-74.871-63.168-94.062-9.4688-9.0898 25.438 6.6094 55.938 21.449 75.43 18.824 24.723 47.555 49.848 72.629 68.152 3.8047 2.7773 7.4375-3.5508 3.6797-6.3008-27.988-20.43-60.852-50.297-79.754-79.352-13.312-20.465-18.773-50.512-2.8828-71.02 22.586-29.148 58.852 7.5195 72.637 26.238 2.7578 3.7461 9.0938 0.11719 6.3047-3.6797z"/>
  <path d="m249.74 189.89c-10.922-2.1758-21.258 2.332-26.613 12.227-5.3008 9.7891-1.3867 20.809 8.2383 25.812 23.176 12.035 34.363-23.711 23.555-39.371-2.6523-3.8438-8.9766-0.19922-6.3008 3.6797 5.7578 8.3359 4.5547 32.555-10.066 30.473-7.9336-1.1328-11.98-8.0742-9.7578-15.418 2.4219-7.9961 11.289-11.91 19.004-10.379 4.6016 0.92188 6.5547-6.1094 1.9414-7.0234z"/>
  <path d="m453.14 189.26c-10.16 6.918-15.633 18.656-12.945 30.859 2.4453 11.066 12.938 14.387 22.434 9.8398 11.41-5.4531 18.598-19.414 16.363-31.832-2.4609-13.613-14.156-19.051-26.984-16.246-4.5898 1.0039-2.6406 8.0312 1.9375 7.0273 8.5859-1.8789 15.605 0.94922 17.781 9.8516 2.1914 8.9727-3.0391 18.023-10.012 23.203-6.707 4.9805-12.938 3.2148-14.734-4.9531-1.832-8.2969 3.1953-16.941 9.8477-21.465 3.8555-2.6211 0.20703-8.9414-3.6875-6.2852z"/>
  <path d="m243.29 189.37c10.277-64.219 17.633-131.15 97.219-138.82 32.188-3.0977 64.48 10.641 87.574 32.336 30.711 28.848 25.402 66.68 24.25 104.52-0.14062 4.707 7.1523 4.6914 7.293 0 1.2266-40.051 4.7422-71.797-21.602-104.52-21.477-26.684-57.348-38.914-90.492-39.852-29.016-0.82422-63.617 12.141-80.949 36.316-22.535 31.43-24.406 71.098-30.32 108.09-0.73828 4.5898 6.2852 6.5625 7.0273 1.9297z"/>
  <use x="70" y="647.5" xlink:href="#v"/>
  <use x="91.40625" y="647.5" xlink:href="#b"/>
  <use x="105.789062" y="647.5" xlink:href="#a"/>
  <use x="125.570312" y="647.5" xlink:href="#e"/>
  <use x="145.253906" y="647.5" xlink:href="#d"/>
  <use x="159.195312" y="647.5" xlink:href="#a"/>
  <use x="178.976562" y="647.5" xlink:href="#j"/>
  <use x="210.007812" y="647.5" xlink:href="#i"/>
  <use x="230.886719" y="647.5" xlink:href="#h"/>
  <use x="260.054688" y="647.5" xlink:href="#f"/>
  <use x="272.742188" y="647.5" xlink:href="#e"/>
  <use x="292.425781" y="647.5" xlink:href="#u"/>
  <use x="302.421875" y="647.5" xlink:href="#g"/>
  <use x="319.78125" y="647.5" xlink:href="#e"/>
  <use x="339.464844" y="647.5" xlink:href="#t"/>
  <use x="349.460938" y="647.5" xlink:href="#c"/>
  <use x="369.5" y="647.5" xlink:href="#s"/>
  <use x="388.511719" y="647.5" xlink:href="#a"/>
  <use x="408.292969" y="647.5" xlink:href="#b"/>
  <use x="422.675781" y="647.5" xlink:href="#g"/>
  <use x="70" y="676.667969" xlink:href="#f"/>
  <use x="82.6875" y="676.667969" xlink:href="#b"/>
  <use x="97.074219" y="676.667969" xlink:href="#c"/>
  <use x="117.109375" y="676.667969" xlink:href="#r"/>
  <use x="157.65625" y="676.667969" xlink:href="#d"/>
  <use x="171.597656" y="676.667969" xlink:href="#q"/>
  <use x="192.363281" y="676.667969" xlink:href="#a"/>
  <use x="222.300781" y="676.667969" xlink:href="#p"/>
  <use x="246.710938" y="676.667969" xlink:href="#c"/>
  <use x="266.746094" y="676.667969" xlink:href="#o"/>
  <use x="287.511719" y="676.667969" xlink:href="#n"/>
  <use x="318.429688" y="676.667969" xlink:href="#m"/>
  <use x="339.804688" y="676.667969" xlink:href="#b"/>
  <use x="354.191406" y="676.667969" xlink:href="#c"/>
  <use x="374.226562" y="676.667969" xlink:href="#l"/>
  <use x="384.226562" y="676.667969" xlink:href="#a"/>
  <use x="404.007812" y="676.667969" xlink:href="#k"/>
  <use x="421.296875" y="676.667969" xlink:href="#d"/>
 </g>
</svg>
